<svg width="3000" height="576" viewBox="0 0 3000 576" fill="none" xmlns="http://www.w3.org/2000/svg">
<path d="M2466.07 439.953C2456.03 472.778 2402.88 464.109 2402.83 429.118C2402.69 346.201 2402.67 272.042 2402.78 206.639C2402.88 109.857 2340.49 27.0817 2245.29 5.41006C2114.91 -24.2431 2000.21 80.838 2000.26 208.172C2000.26 327.384 2000.18 449.168 2000 573.525C2000 574.072 2000.22 574.596 2000.6 574.983C2000.99 575.369 2001.51 575.586 2002.06 575.586H2111.58C2113.66 575.586 2114.69 574.547 2114.69 572.468C2114.66 447.618 2114.71 326.098 2114.85 207.908C2114.85 181.303 2122.14 160.23 2136.72 144.69C2181.79 96.6954 2260.4 111.39 2282.85 174.502C2286.09 183.629 2287.75 196.05 2287.82 211.767C2287.99 273.117 2287.78 334.52 2287.18 395.976C2286.87 430.016 2289.1 454.683 2293.89 469.977C2320.57 554.443 2411.18 599.425 2494.17 563.588C2525.94 549.88 2549.35 528.948 2564.38 500.793C2571.82 486.944 2581.33 460.039 2592.91 420.079C2618.66 331.348 2645.25 241.226 2672.69 149.712C2686.32 104.413 2740.57 104.413 2753.99 149.87C2795.8 290.965 2837.78 432.183 2879.94 573.525C2880.4 575.04 2881.42 575.798 2883 575.798L2997.96 575.851C2998.28 575.847 2998.59 575.77 2998.88 575.625C2999.16 575.48 2999.41 575.272 2999.6 575.016C2999.79 574.759 2999.91 574.463 2999.97 574.149C3000.02 573.836 3000.01 573.513 2999.92 573.208C2956.14 426.757 2911.71 277.064 2866.63 124.129C2859.51 99.9549 2851.52 81.5605 2842.64 68.9451C2795.73 2.13291 2708.77 -20.0673 2637.77 19.8931C2588.63 47.5906 2570.3 87.7096 2553.92 144.215C2523.74 248.309 2494.46 346.889 2466.07 439.953Z" fill="white"/>
<path d="M1466.07 439.953C1456.03 472.778 1402.88 464.109 1402.83 429.118C1402.69 346.201 1402.67 272.042 1402.78 206.639C1402.88 109.857 1340.49 27.0817 1245.29 5.41006C1114.91 -24.2431 1000.21 80.838 1000.26 208.172C1000.26 327.384 1000.18 449.168 1000 573.525C1000 574.072 1000.22 574.596 1000.6 574.983C1000.99 575.369 1001.51 575.586 1002.06 575.586H1111.58C1113.66 575.586 1114.69 574.547 1114.69 572.468C1114.66 447.618 1114.71 326.098 1114.85 207.908C1114.85 181.303 1122.14 160.23 1136.72 144.69C1181.79 96.6954 1260.4 111.39 1282.85 174.502C1286.09 183.629 1287.75 196.05 1287.82 211.767C1287.99 273.117 1287.78 334.52 1287.18 395.976C1286.87 430.016 1289.1 454.683 1293.89 469.977C1320.57 554.443 1411.18 599.425 1494.17 563.588C1525.94 549.88 1549.35 528.948 1564.38 500.793C1571.82 486.944 1581.33 460.039 1592.91 420.079C1618.66 331.348 1645.25 241.226 1672.69 149.712C1686.32 104.413 1740.57 104.413 1753.99 149.87C1795.8 290.965 1837.78 432.183 1879.94 573.525C1880.4 575.04 1881.42 575.798 1883 575.798L1997.96 575.851C1998.28 575.847 1998.59 575.77 1998.88 575.625C1999.16 575.48 1999.41 575.272 1999.6 575.016C1999.79 574.759 1999.91 574.463 1999.97 574.149C2000.02 573.836 2000.01 573.513 1999.92 573.208C1956.14 426.757 1911.71 277.064 1866.63 124.129C1859.51 99.9549 1851.52 81.5605 1842.64 68.9451C1795.73 2.13291 1708.77 -20.0673 1637.77 19.8931C1588.63 47.5906 1570.3 87.7096 1553.92 144.215C1523.74 248.309 1494.46 346.889 1466.07 439.953Z" fill="#D8F06F"/>
<path d="M466.068 439.953C456.03 472.778 402.883 464.109 402.83 429.118C402.689 346.201 402.671 272.042 402.777 206.639C402.883 109.857 340.49 27.0817 245.29 5.41006C114.906 -24.2431 0.211315 80.838 0.264145 208.172C0.264145 327.384 0.176113 449.168 1.20401e-05 573.525C1.20401e-05 574.072 0.21703 574.596 0.603425 574.983C0.989821 575.369 1.51394 575.586 2.06039 575.586H111.577C113.655 575.586 114.694 574.547 114.694 572.468C114.659 447.618 114.712 326.098 114.853 207.908C114.853 181.303 122.143 160.23 136.724 144.69C181.789 96.6954 260.4 111.39 282.853 174.502C286.093 183.629 287.748 196.05 287.819 211.767C287.995 273.117 287.783 334.52 287.185 395.976C286.868 430.016 289.104 454.683 293.894 469.977C320.573 554.443 411.177 599.425 494.173 563.588C525.942 549.88 549.346 528.948 564.385 500.793C571.816 486.944 581.325 460.039 592.913 420.079C618.659 331.348 645.25 241.226 672.686 149.712C686.317 104.413 740.573 104.413 753.992 149.87C795.798 290.965 837.781 432.183 879.939 573.525C880.397 575.04 881.418 575.798 883.003 575.798L997.962 575.851C998.28 575.847 998.593 575.77 998.877 575.625C999.16 575.48 999.406 575.272 999.596 575.016C999.785 574.759 999.913 574.463 999.968 574.149C1000.02 573.836 1000.01 573.513 999.916 573.208C956.138 426.757 911.708 277.064 866.626 124.129C859.511 99.9549 851.516 81.5605 842.641 68.9451C795.728 2.13291 708.769 -20.0673 637.766 19.8931C588.634 47.5906 570.302 87.7096 553.924 144.215C523.741 248.309 494.455 346.889 466.068 439.953Z" fill="#5ECEB8"/>
</svg>
