<svg width="971" height="559" viewBox="0 0 971 559" fill="none" xmlns="http://www.w3.org/2000/svg">
<path d="M452.552 426.969C442.805 458.825 391.199 450.412 391.148 416.453C391.011 335.984 390.994 264.013 391.097 200.541C391.199 106.615 330.616 26.2824 238.177 5.25039C111.573 -23.5276 0.205139 78.4522 0.25647 202.028C0.25647 317.722 0.170959 435.912 0 556.598C0 557.129 0.210693 557.637 0.585876 558.013C0.96106 558.388 1.47003 558.599 2.00061 558.599H108.342C110.359 558.599 111.368 557.59 111.368 555.572C111.334 434.407 111.385 316.473 111.522 201.772C111.522 175.952 118.601 155.501 132.759 140.42C176.517 93.8415 252.848 108.102 274.65 169.352C277.796 178.209 279.404 190.264 279.472 205.517C279.643 265.056 279.438 324.647 278.856 384.289C278.549 417.325 280.72 441.264 285.371 456.106C311.277 538.08 399.253 581.734 479.842 546.954C510.69 533.651 533.415 513.337 548.017 486.012C555.233 472.572 564.467 446.462 575.718 407.681C600.718 321.569 626.538 234.107 653.178 145.293C666.413 101.331 719.096 101.331 732.126 145.447C772.72 282.378 813.485 419.428 854.421 556.598C854.865 558.068 855.857 558.804 857.396 558.804L969.021 558.855C969.33 558.852 969.634 558.777 969.909 558.636C970.185 558.496 970.424 558.293 970.608 558.045C970.791 557.796 970.915 557.508 970.969 557.204C971.023 556.9 971.006 556.587 970.919 556.29C928.41 414.161 885.268 268.886 841.494 120.465C834.586 97.0049 826.822 79.1533 818.204 66.9102C772.652 2.06996 688.215 -19.4751 619.27 19.306C571.563 46.186 553.763 85.1209 537.86 139.958C508.552 240.98 480.116 336.651 452.552 426.969Z" fill="#354552"/>
</svg>
