<svg width="936" height="908" viewBox="0 0 936 908" fill="none" xmlns="http://www.w3.org/2000/svg">
<line x1="226.912" y1="1.64258" x2="842.664" y2="1.64258" stroke="#252222" stroke-width="3"/>
<line x1="2" y1="6.96875" x2="893.66" y2="6.96883" stroke="#252222" stroke-width="3"/>
<line x1="895.16" y1="7.32813" x2="895.16" y2="656.569" stroke="#252222" stroke-width="3"/>
<line x1="933.619" y1="656.928" x2="744.86" y2="656.928" stroke="#252222" stroke-width="3"/>
<line x1="933.619" y1="750.926" x2="121.116" y2="750.926" stroke="#252222" stroke-width="3"/>
<line x1="932.477" y1="663.777" x2="743.717" y2="663.777" stroke="#252222" stroke-width="3"/>
<line x1="932.477" y1="694.604" x2="743.717" y2="694.604" stroke="#252222" stroke-width="3"/>
<line x1="933.238" y1="696.887" x2="744.479" y2="696.887" stroke="#252222" stroke-width="3"/>
<line x1="932.477" y1="704.879" x2="743.717" y2="704.879" stroke="#252222" stroke-width="3"/>
<line x1="933.977" y1="655.428" x2="933.977" y2="749.807" stroke="#252222" stroke-width="3"/>
<line x1="743.359" y1="750.568" x2="743.359" y2="8.46979" stroke="#252222" stroke-width="3"/>
<line x1="843.023" y1="2" x2="843.023" y2="8.08901" stroke="#252222" stroke-width="3"/>
<line x1="228.412" y1="2.38086" x2="228.412" y2="7.70875" stroke="#252222" stroke-width="3"/>
<line x1="865.857" y1="750.188" x2="865.857" y2="767.693" stroke="#252222" stroke-width="3"/>
<line x1="858.648" y1="766.193" x2="864.357" y2="766.193" stroke="#252222" stroke-width="3"/>
<line x1="860.148" y1="766.932" x2="860.148" y2="870.445" stroke="#252222" stroke-width="3"/>
<line x1="863.596" y1="871.184" x2="793.191" y2="871.184" stroke="#252222" stroke-width="3"/>
<line x1="863.953" y1="870.445" x2="863.953" y2="898.988" stroke="#252222" stroke-width="3"/>
<line x1="798.496" y1="870.445" x2="798.496" y2="898.988" stroke="#252222" stroke-width="3"/>
<line x1="863.596" y1="900.107" x2="796.997" y2="900.107" stroke="#252222" stroke-width="3"/>
<line x1="792.453" y1="870.826" x2="792.453" y2="835.053" stroke="#252222" stroke-width="3"/>
<line x1="859.41" y1="836.172" x2="212.072" y2="836.172" stroke="#252222" stroke-width="3"/>
<line x1="859.41" y1="774.521" x2="212.072" y2="774.522" stroke="#252222" stroke-width="3"/>
<line x1="211.332" y1="869.684" x2="211.332" y2="773.021" stroke="#252222" stroke-width="3"/>
<line x1="277.887" y1="835.053" x2="277.887" y2="870.826" stroke="#252222" stroke-width="3"/>
<line x1="207.504" y1="869.326" x2="276.386" y2="869.326" stroke="#252222" stroke-width="3"/>
<line x1="207.504" y1="897.869" x2="273.341" y2="897.869" stroke="#252222" stroke-width="3"/>
<g filter="url(#filter0_d_1013_1378)">
<line x1="208.242" y1="869.684" x2="208.242" y2="899.368" stroke="#252222" stroke-width="3"/>
</g>
<g filter="url(#filter1_d_1013_1378)">
<line x1="273.699" y1="869.684" x2="273.699" y2="899.368" stroke="#252222" stroke-width="3"/>
</g>
<line x1="212.451" y1="773.76" x2="205.22" y2="773.76" stroke="#252222" stroke-width="3"/>
<line x1="204.863" y1="773.021" x2="204.863" y2="749.427" stroke="#252222" stroke-width="3"/>
<line x1="120.758" y1="750.188" x2="120.758" y2="655.427" stroke="#252222" stroke-width="3"/>
<line x1="121.117" y1="653.928" x2="325.099" y2="653.928" stroke="#252222" stroke-width="3"/>
<line x1="326.217" y1="8.46875" x2="326.217" y2="749.426" stroke="#252222" stroke-width="3"/>
<line x1="100.318" y1="599.422" x2="174.147" y2="654.224" stroke="#252222" stroke-width="3"/>
<line x1="99.0664" y1="600.627" x2="99.0664" y2="7.70923" stroke="#252222" stroke-width="3"/>
<line x1="198.729" y1="749.421" x2="199.109" y2="863.209" stroke="#252222" stroke-width="3"/>
<line x1="197.99" y1="863.574" x2="2.00009" y2="863.574" stroke="#252222" stroke-width="3"/>
<line x1="1.64258" y1="862.074" x2="1.64258" y2="819.071" stroke="#252222" stroke-width="3"/>
<line x1="2.76172" y1="818.711" x2="11.5147" y2="818.711" stroke="#252222" stroke-width="3"/>
<line x1="2.76172" y1="809.959" x2="11.5147" y2="809.959" stroke="#252222" stroke-width="3"/>
<line x1="10.0137" y1="819.07" x2="10.0137" y2="810.698" stroke="#252222" stroke-width="3"/>
<line x1="1.64258" y1="811.459" x2="1.64261" y2="7.32855" stroke="#252222" stroke-width="3"/>
<line x1="10.0137" y1="810.697" x2="10.0136" y2="286.661" stroke="#252222" stroke-width="3"/>
<line x1="2.76172" y1="285.541" x2="100.567" y2="285.541" stroke="#252222" stroke-width="3"/>
<line x1="99.8047" y1="523.775" x2="325.479" y2="523.775" stroke="#252222" stroke-width="3"/>
<line x1="325.479" y1="548.512" x2="744.859" y2="548.512" stroke="#252222" stroke-width="3"/>
<line x1="333.471" y1="532.908" x2="736.868" y2="532.908" stroke="#252222" stroke-width="3"/>
<line x1="324.717" y1="638.324" x2="744.098" y2="638.324" stroke="#252222" stroke-width="3"/>
<line x1="534.051" y1="750.188" x2="534.051" y2="8.46948" stroke="#252222" stroke-width="3"/>
<line x1="331.971" y1="534.408" x2="331.971" y2="8.4696" stroke="#252222" stroke-width="3"/>
<line x1="736.129" y1="534.408" x2="736.129" y2="8.4696" stroke="#252222" stroke-width="3"/>
<path d="M337.738 470.289C337.738 470.289 488.848 492.35 489.501 492.356" stroke="#252222" stroke-width="3"/>
<path d="M731.533 470.061C731.533 470.061 580.685 492.083 580.033 492.089" stroke="#252222" stroke-width="3"/>
<line x1="337.299" y1="470.854" x2="337.299" y2="118.452" stroke="#252222" stroke-width="3"/>
<line x1="728.898" y1="470.849" x2="730.043" y2="117.686" stroke="#252222" stroke-width="3"/>
<line x1="514.404" y1="145.434" x2="338.584" y2="119.936" stroke="#252222" stroke-width="3"/>
<line x1="555.494" y1="143.99" x2="730.933" y2="117.35" stroke="#252222" stroke-width="3"/>
<line x1="514.977" y1="143.949" x2="514.977" y2="311.778" stroke="#252222" stroke-width="3"/>
<line y1="-1.5" x2="167.448" y2="-1.5" transform="matrix(0 1 1 0 556.48 144.33)" stroke="#252222" stroke-width="3"/>
<line x1="488.201" y1="354.796" x2="513.318" y2="311.032" stroke="#252222" stroke-width="3"/>
<line y1="-1.5" x2="50.3728" y2="-1.5" transform="matrix(-0.497762 -0.867313 -0.867313 0.497762 580.033 355.514)" stroke="#252222" stroke-width="3"/>
<line x1="488.002" y1="492.547" x2="488.002" y2="355.544" stroke="#252222" stroke-width="3"/>
<line y1="-1.5" x2="136.622" y2="-1.5" transform="matrix(4.37114e-08 -1 -1 -4.37114e-08 580.076 492.166)" stroke="#252222" stroke-width="3"/>
<line x1="488.74" y1="472.734" x2="348.312" y2="472.734" stroke="#252222" stroke-width="3"/>
<line y1="-1.5" x2="140.047" y2="-1.5" transform="matrix(1 8.74228e-08 8.74228e-08 -1 580.836 471.234)" stroke="#252222" stroke-width="3"/>
<line x1="372.646" y1="301.885" x2="372.646" y2="475.422" stroke="#252222" stroke-width="3"/>
<line y1="-1.5" x2="172.776" y2="-1.5" transform="matrix(4.37114e-08 1 1 -4.37114e-08 698.432 302.264)" stroke="#252222" stroke-width="3"/>
<line x1="371.146" y1="300.385" x2="514.238" y2="300.385" stroke="#252222" stroke-width="3"/>
<line y1="-1.5" x2="143.092" y2="-1.5" transform="matrix(-1 0 0 1 698.432 302.264)" stroke="#252222" stroke-width="3"/>
<line x1="338.418" y1="273.363" x2="513.858" y2="273.363" stroke="#252222" stroke-width="3"/>
<line y1="-1.5" x2="175.059" y2="-1.5" transform="matrix(-1 0 0 1 730.779 275.244)" stroke="#252222" stroke-width="3"/>
<line x1="338.418" y1="269.559" x2="513.858" y2="269.559" stroke="#252222" stroke-width="3"/>
<line y1="-1.5" x2="175.059" y2="-1.5" transform="matrix(-1 0 0 1 730.779 271.439)" stroke="#252222" stroke-width="3"/>
<line x1="338.799" y1="255.857" x2="514.239" y2="255.857" stroke="#252222" stroke-width="3"/>
<line y1="-1.5" x2="175.059" y2="-1.5" transform="matrix(-1 0 0 1 730.398 257.738)" stroke="#252222" stroke-width="3"/>
<line x1="338.037" y1="248.246" x2="466.668" y2="248.246" stroke="#252222" stroke-width="3"/>
<line y1="-1.5" x2="128.25" y2="-1.5" transform="matrix(-1 0 0 1 731.16 249.746)" stroke="#252222" stroke-width="3"/>
<line x1="338.037" y1="244.822" x2="466.668" y2="244.822" stroke="#252222" stroke-width="3"/>
<line y1="-1.5" x2="128.25" y2="-1.5" transform="matrix(-1 0 0 1 731.16 246.322)" stroke="#252222" stroke-width="3"/>
<line x1="467.787" y1="137.48" x2="467.787" y2="253.172" stroke="#252222" stroke-width="3"/>
<line y1="-1.5" x2="115.691" y2="-1.5" transform="matrix(4.37114e-08 1 1 -4.37114e-08 603.291 137.48)" stroke="#252222" stroke-width="3"/>
<line x1="466.668" y1="251.672" x2="514.238" y2="251.672" stroke="#252222" stroke-width="3"/>
<line y1="-1.5" x2="47.5704" y2="-1.5" transform="matrix(-1 0 0 1 602.91 253.172)" stroke="#252222" stroke-width="3"/>
<line x1="435.82" y1="274.482" x2="435.82" y2="455.25" stroke="#252222" stroke-width="3"/>
<line y1="-1.5" x2="180.387" y2="-1.5" transform="matrix(4.37114e-08 1 1 -4.37114e-08 635.258 274.863)" stroke="#252222" stroke-width="3"/>
<line x1="439.244" y1="274.482" x2="439.244" y2="454.869" stroke="#252222" stroke-width="3"/>
<line y1="-1.5" x2="179.626" y2="-1.5" transform="matrix(4.37114e-08 1 1 -4.37114e-08 631.451 274.863)" stroke="#252222" stroke-width="3"/>
<line x1="489.502" y1="469.309" x2="440.029" y2="469.309" stroke="#252222" stroke-width="3"/>
<line y1="-1.5" x2="49.4732" y2="-1.5" transform="matrix(1 0 0 -1 580.076 467.809)" stroke="#252222" stroke-width="3"/>
<line x1="439.785" y1="469.147" x2="434.077" y2="455.447" stroke="#252222" stroke-width="3"/>
<line y1="-1.5" x2="14.8163" y2="-1.5" transform="matrix(0.384615 -0.923077 -0.923077 -0.384615 628.281 468.346)" stroke="#252222" stroke-width="3"/>
<line x1="434.701" y1="453.75" x2="489.122" y2="453.75" stroke="#252222" stroke-width="3"/>
<line y1="-1.5" x2="54.4206" y2="-1.5" transform="matrix(-1 0 0 1 634.877 455.25)" stroke="#252222" stroke-width="3"/>
<line x1="864.76" y1="749.426" x2="864.76" y2="736.487" stroke="#252222" stroke-width="3"/>
<line x1="865.117" y1="735.367" x2="933.238" y2="735.367" stroke="#252222" stroke-width="3"/>
<line x1="860.148" y1="696.148" x2="860.148" y2="703.379" stroke="#252222" stroke-width="3"/>
<line x1="121.496" y1="661.158" x2="325.098" y2="661.158" stroke="#252222" stroke-width="3"/>
<line x1="121.117" y1="692.744" x2="324.719" y2="692.744" stroke="#252222" stroke-width="3"/>
<line x1="138.623" y1="695.408" x2="325.099" y2="695.408" stroke="#252222" stroke-width="3"/>
<line x1="138.623" y1="702.26" x2="325.099" y2="702.26" stroke="#252222" stroke-width="3"/>
<line x1="139.361" y1="695.768" x2="139.361" y2="749.427" stroke="#252222" stroke-width="3"/>
<line x1="213.57" y1="693.484" x2="213.57" y2="703.76" stroke="#252222" stroke-width="3"/>
<line x1="206.363" y1="751.732" x2="865.118" y2="751.732" stroke="#252222" stroke-width="3"/>
<mask id="path-105-outside-1_1013_1378" maskUnits="userSpaceOnUse" x="777" y="149" width="97" height="293" fill="black">
<rect fill="white" x="777" y="149" width="97" height="293"/>
<path d="M870.488 406.188C870.488 411.231 869.661 415.777 868.008 419.828C866.272 423.796 863.585 427.227 859.948 430.12C856.311 432.931 851.681 435.121 846.06 436.692C840.356 438.18 833.577 438.924 825.724 438.924C817.871 438.924 811.133 438.18 805.512 436.692C799.808 435.121 795.137 432.931 791.5 430.12C787.863 427.227 785.217 423.796 783.564 419.828C781.828 415.777 780.96 411.231 780.96 406.188C780.96 398.831 782.572 392.961 785.796 388.58C788.937 384.116 793.691 380.561 800.056 377.916L806.256 389.076C801.379 390.564 797.865 392.672 795.716 395.4C793.567 398.045 792.492 401.641 792.492 406.188C792.492 412.057 794.517 416.645 798.568 419.952C802.619 423.176 808.199 424.788 815.308 424.788L836.14 424.788C843.249 424.788 848.829 423.176 852.88 419.952C856.931 416.645 858.956 412.057 858.956 406.188C858.956 401.559 857.799 397.839 855.484 395.028C853.169 392.135 849.449 389.903 844.324 388.332L850.772 377.42C857.137 380.148 862.015 383.785 865.404 388.332C868.793 392.879 870.488 398.831 870.488 406.188ZM869 307.961L852.26 307.961L852.26 343.797L840.728 343.797L782.448 313.417L782.448 295.437L841.596 295.437L841.596 284.773L852.26 284.773L852.26 295.437L869 295.437L869 307.961ZM841.596 332.885L841.596 307.961L794.6 307.961L794.6 309.573L841.596 332.885ZM870.488 247.196C870.488 252.073 869.661 256.289 868.008 259.844C866.272 263.398 863.627 266.333 860.072 268.648C856.435 270.962 851.805 272.657 846.184 273.732C840.48 274.806 833.66 275.344 825.724 275.344C817.788 275.344 811.009 274.806 805.388 273.732C799.684 272.657 795.055 270.962 791.5 268.648C787.863 266.333 785.217 263.398 783.564 259.844C781.828 256.289 780.96 252.073 780.96 247.196C780.96 242.318 781.828 238.102 783.564 234.548C785.217 230.993 787.863 228.1 791.5 225.868C795.055 223.553 799.684 221.858 805.388 220.784C811.009 219.626 817.788 219.048 825.724 219.048C833.66 219.048 840.48 219.626 846.184 220.784C851.805 221.858 856.435 223.553 860.072 225.868C863.627 228.1 866.272 230.993 868.008 234.548C869.661 238.102 870.488 242.318 870.488 247.196ZM859.204 247.196C859.204 241.988 857.468 238.35 853.996 236.284C850.441 234.134 845.027 233.06 837.752 233.06L813.696 233.06C806.421 233.06 801.048 234.134 797.576 236.284C794.021 238.35 792.244 241.988 792.244 247.196C792.244 252.404 794.021 256.082 797.576 258.232C801.048 260.298 806.421 261.332 813.696 261.332L837.752 261.332C845.027 261.332 850.441 260.298 853.996 258.232C857.468 256.082 859.204 252.404 859.204 247.196ZM870.488 180.231C870.488 185.108 869.661 189.324 868.008 192.879C866.272 196.434 863.627 199.368 860.072 201.683C856.435 203.998 851.805 205.692 846.184 206.767C840.48 207.842 833.66 208.379 825.724 208.379C817.788 208.379 811.009 207.842 805.388 206.767C799.684 205.692 795.055 203.998 791.5 201.683C787.863 199.368 785.217 196.434 783.564 192.879C781.828 189.324 780.96 185.108 780.96 180.231C780.96 175.354 781.828 171.138 783.564 167.583C785.217 164.028 787.863 161.135 791.5 158.903C795.055 156.588 799.684 154.894 805.388 153.819C811.009 152.662 817.788 152.083 825.724 152.083C833.66 152.083 840.48 152.662 846.184 153.819C851.805 154.894 856.435 156.588 860.072 158.903C863.627 161.135 866.272 164.028 868.008 167.583C869.661 171.138 870.488 175.354 870.488 180.231ZM859.204 180.231C859.204 175.023 857.468 171.386 853.996 169.319C850.441 167.17 845.027 166.095 837.752 166.095L813.696 166.095C806.421 166.095 801.048 167.17 797.576 169.319C794.021 171.386 792.244 175.023 792.244 180.231C792.244 185.439 794.021 189.118 797.576 191.267C801.048 193.334 806.421 194.367 813.696 194.367L837.752 194.367C845.027 194.367 850.441 193.334 853.996 191.267C857.468 189.118 859.204 185.439 859.204 180.231Z"/>
</mask>
<path d="M868.008 419.828L870.756 421.03L870.771 420.996L870.786 420.962L868.008 419.828ZM859.948 430.12L861.782 432.494L861.799 432.481L861.816 432.468L859.948 430.12ZM846.06 436.692L846.817 439.595L846.842 439.588L846.867 439.581L846.06 436.692ZM805.512 436.692L804.716 439.584L804.73 439.588L804.744 439.592L805.512 436.692ZM791.5 430.12L789.632 432.468L789.649 432.481L789.666 432.494L791.5 430.12ZM783.564 419.828L786.333 418.674L786.327 418.66L786.321 418.646L783.564 419.828ZM785.796 388.58L788.212 390.358L788.231 390.332L788.249 390.306L785.796 388.58ZM800.056 377.916L802.678 376.459L801.378 374.118L798.905 375.146L800.056 377.916ZM806.256 389.076L807.131 391.945L810.68 390.863L808.878 387.619L806.256 389.076ZM795.716 395.4L798.044 397.292L798.059 397.274L798.072 397.257L795.716 395.4ZM798.568 419.952L796.671 422.276L796.685 422.288L796.7 422.299L798.568 419.952ZM852.88 419.952L854.748 422.299L854.763 422.288L854.777 422.276L852.88 419.952ZM855.484 395.028L853.141 396.902L853.155 396.919L853.168 396.935L855.484 395.028ZM844.324 388.332L841.741 386.806L839.804 390.084L843.445 391.2L844.324 388.332ZM850.772 377.42L851.954 374.663L849.53 373.624L848.189 375.894L850.772 377.42ZM865.404 388.332L862.999 390.125L862.999 390.125L865.404 388.332ZM867.488 406.188C867.488 410.901 866.716 415.054 865.23 418.694L870.786 420.962C872.606 416.5 873.488 411.561 873.488 406.188L867.488 406.188ZM865.26 418.626C863.734 422.113 861.364 425.16 858.08 427.772L861.816 432.468C865.807 429.293 868.81 425.479 870.756 421.03L865.26 418.626ZM858.114 427.746C854.853 430.266 850.598 432.309 845.253 433.803L846.867 439.581C852.765 437.934 857.769 435.595 861.782 432.494L858.114 427.746ZM845.303 433.789C839.912 435.195 833.401 435.924 825.724 435.924L825.724 441.924C833.754 441.924 840.8 441.165 846.817 439.595L845.303 433.789ZM825.724 435.924C818.046 435.924 811.58 435.195 806.28 433.792L804.744 439.592C810.686 441.165 817.696 441.924 825.724 441.924L825.724 435.924ZM806.308 433.8C800.878 432.304 796.588 430.26 793.334 427.746L789.666 432.494C793.687 435.601 798.738 437.938 804.716 439.584L806.308 433.8ZM793.368 427.772C790.094 425.168 787.776 422.137 786.333 418.674L780.795 420.982C782.659 425.455 785.632 429.285 789.632 432.468L793.368 427.772ZM786.321 418.646C784.767 415.019 783.96 410.883 783.96 406.188L777.96 406.188C777.96 411.579 778.889 416.536 780.807 421.01L786.321 418.646ZM783.96 406.188C783.96 399.248 785.481 394.07 788.212 390.358L783.38 386.802C779.663 391.853 777.96 398.413 777.96 406.188L783.96 406.188ZM788.249 390.306C790.988 386.414 795.229 383.171 801.207 380.686L798.905 375.146C792.152 377.952 786.886 381.818 783.343 386.854L788.249 390.306ZM797.434 379.373L803.634 390.533L808.878 387.619L802.678 376.459L797.434 379.373ZM805.381 386.207C800.178 387.794 796.027 390.158 793.36 393.543L798.072 397.257C799.704 395.186 802.579 393.334 807.131 391.945L805.381 386.207ZM793.388 393.508C790.678 396.843 789.492 401.183 789.492 406.188L795.492 406.188C795.492 402.1 796.456 399.247 798.044 397.292L793.388 393.508ZM789.492 406.188C789.492 412.834 791.831 418.325 796.671 422.276L800.465 417.628C797.204 414.966 795.492 411.281 795.492 406.188L789.492 406.188ZM796.7 422.299C801.449 426.079 807.771 427.788 815.308 427.788L815.308 421.788C808.627 421.788 803.788 420.273 800.436 417.605L796.7 422.299ZM815.308 427.788L836.14 427.788L836.14 421.788L815.308 421.788L815.308 427.788ZM836.14 427.788C843.677 427.788 849.999 426.079 854.748 422.299L851.012 417.605C847.66 420.273 842.821 421.788 836.14 421.788L836.14 427.788ZM854.777 422.276C859.617 418.325 861.956 412.834 861.956 406.188L855.956 406.188C855.956 411.281 854.244 414.966 850.983 417.628L854.777 422.276ZM861.956 406.188C861.956 401.056 860.666 396.601 857.8 393.121L853.168 396.935C854.932 399.077 855.956 402.062 855.956 406.188L861.956 406.188ZM857.827 393.154C855.001 389.622 850.659 387.136 845.203 385.464L843.445 391.2C848.239 392.67 851.337 394.647 853.141 396.902L857.827 393.154ZM846.907 389.858L853.355 378.946L848.189 375.894L841.741 386.806L846.907 389.858ZM849.59 380.177C855.577 382.743 859.988 386.086 862.999 390.125L867.809 386.539C864.041 381.484 858.698 377.553 851.954 374.663L849.59 380.177ZM862.999 390.125C865.901 394.018 867.488 399.284 867.488 406.188L873.488 406.188C873.488 398.377 871.686 391.739 867.809 386.539L862.999 390.125ZM869 307.961L869 310.961L872 310.961L872 307.961L869 307.961ZM852.26 307.961L852.26 304.961L849.26 304.961L849.26 307.961L852.26 307.961ZM852.26 343.797L852.26 346.797L855.26 346.797L855.26 343.797L852.26 343.797ZM840.728 343.797L839.341 346.457L839.993 346.797L840.728 346.797L840.728 343.797ZM782.448 313.417L779.448 313.417L779.448 315.236L781.061 316.077L782.448 313.417ZM782.448 295.437L782.448 292.437L779.448 292.437L779.448 295.437L782.448 295.437ZM841.596 295.437L841.596 298.437L844.596 298.437L844.596 295.437L841.596 295.437ZM841.596 284.773L841.596 281.773L838.596 281.773L838.596 284.773L841.596 284.773ZM852.26 284.773L855.26 284.773L855.26 281.773L852.26 281.773L852.26 284.773ZM852.26 295.437L849.26 295.437L849.26 298.437L852.26 298.437L852.26 295.437ZM869 295.437L872 295.437L872 292.437L869 292.437L869 295.437ZM841.596 332.885L840.263 335.572L844.596 337.722L844.596 332.885L841.596 332.885ZM841.596 307.961L844.596 307.961L844.596 304.961L841.596 304.961L841.596 307.961ZM794.6 307.961L794.6 304.961L791.6 304.961L791.6 307.961L794.6 307.961ZM794.6 309.573L791.6 309.573L791.6 311.433L793.267 312.26L794.6 309.573ZM869 304.961L852.26 304.961L852.26 310.961L869 310.961L869 304.961ZM849.26 307.961L849.26 343.797L855.26 343.797L855.26 307.961L849.26 307.961ZM852.26 340.797L840.728 340.797L840.728 346.797L852.26 346.797L852.26 340.797ZM842.115 341.136L783.835 310.756L781.061 316.077L839.341 346.457L842.115 341.136ZM785.448 313.417L785.448 295.437L779.448 295.437L779.448 313.417L785.448 313.417ZM782.448 298.437L841.596 298.437L841.596 292.437L782.448 292.437L782.448 298.437ZM844.596 295.437L844.596 284.773L838.596 284.773L838.596 295.437L844.596 295.437ZM841.596 287.773L852.26 287.773L852.26 281.773L841.596 281.773L841.596 287.773ZM849.26 284.773L849.26 295.437L855.26 295.437L855.26 284.773L849.26 284.773ZM852.26 298.437L869 298.437L869 292.437L852.26 292.437L852.26 298.437ZM866 295.437L866 307.961L872 307.961L872 295.437L866 295.437ZM844.596 332.885L844.596 307.961L838.596 307.961L838.596 332.885L844.596 332.885ZM841.596 304.961L794.6 304.961L794.6 310.961L841.596 310.961L841.596 304.961ZM791.6 307.961L791.6 309.573L797.6 309.573L797.6 307.961L791.6 307.961ZM793.267 312.26L840.263 335.572L842.929 330.197L795.933 306.885L793.267 312.26ZM868.008 259.844L870.704 261.16L870.716 261.135L870.728 261.109L868.008 259.844ZM860.072 268.648L861.683 271.179L861.696 271.17L861.709 271.162L860.072 268.648ZM846.184 273.732L846.739 276.68L846.747 276.678L846.184 273.732ZM805.388 273.732L805.951 270.785L805.943 270.784L805.388 273.732ZM791.5 268.648L793.137 266.134L793.124 266.125L793.111 266.117L791.5 268.648ZM783.564 259.844L786.284 258.579L786.272 258.553L786.26 258.527L783.564 259.844ZM783.564 234.548L786.26 235.864L786.272 235.839L786.284 235.813L783.564 234.548ZM791.5 225.868L793.069 228.425L793.103 228.404L793.137 228.382L791.5 225.868ZM805.388 220.784L805.943 223.732L805.968 223.727L805.993 223.722L805.388 220.784ZM846.184 220.784L845.587 223.724L845.604 223.727L845.621 223.73L846.184 220.784ZM860.072 225.868L858.461 228.399L858.469 228.404L858.477 228.408L860.072 225.868ZM868.008 234.548L870.728 233.283L870.716 233.257L870.704 233.231L868.008 234.548ZM853.996 236.284L852.444 238.851L852.453 238.856L852.462 238.862L853.996 236.284ZM797.576 236.284L799.084 238.877L799.12 238.856L799.155 238.835L797.576 236.284ZM797.576 258.232L796.024 260.799L796.033 260.804L796.042 260.81L797.576 258.232ZM853.996 258.232L855.504 260.825L855.54 260.804L855.575 260.783L853.996 258.232ZM867.488 247.196C867.488 251.74 866.718 255.505 865.288 258.579L870.728 261.109C872.605 257.074 873.488 252.406 873.488 247.196L867.488 247.196ZM865.312 258.527C863.832 261.559 861.569 264.093 858.435 266.134L861.709 271.162C865.684 268.573 868.712 265.238 870.704 261.16L865.312 258.527ZM858.461 266.117C855.23 268.173 850.985 269.76 845.621 270.785L846.747 276.678C852.626 275.555 857.64 273.752 861.683 271.179L858.461 266.117ZM845.629 270.784C840.16 271.814 833.536 272.344 825.724 272.344L825.724 278.344C833.784 278.344 840.8 277.799 846.739 276.68L845.629 270.784ZM825.724 272.344C817.91 272.344 811.331 271.814 805.951 270.785L804.825 276.678C810.687 277.799 817.666 278.344 825.724 278.344L825.724 272.344ZM805.943 270.784C800.492 269.757 796.266 268.171 793.137 266.134L789.863 271.162C793.843 273.754 798.876 275.558 804.833 276.68L805.943 270.784ZM793.111 266.117C789.906 264.078 787.672 261.563 786.284 258.579L780.844 261.109C782.762 265.234 785.819 268.588 789.889 271.179L793.111 266.117ZM786.26 258.527C784.765 255.467 783.96 251.721 783.96 247.196L777.96 247.196C777.96 252.425 778.891 257.111 780.868 261.16L786.26 258.527ZM783.96 247.196C783.96 242.671 784.765 238.925 786.26 235.864L780.868 233.231C778.891 237.28 777.96 241.966 777.96 247.196L783.96 247.196ZM786.284 235.813C787.667 232.84 789.888 230.377 793.069 228.425L789.931 223.311C785.838 225.823 782.768 229.146 780.844 233.283L786.284 235.813ZM793.137 228.382C796.266 226.344 800.492 224.759 805.943 223.732L804.833 217.836C798.876 218.958 793.843 220.762 789.863 223.354L793.137 228.382ZM805.993 223.722C811.356 222.618 817.92 222.048 825.724 222.048L825.724 216.048C817.656 216.048 810.663 216.635 804.783 217.845L805.993 223.722ZM825.724 222.048C833.527 222.048 840.136 222.618 845.587 223.724L846.781 217.844C840.824 216.635 833.793 216.048 825.724 216.048L825.724 222.048ZM845.621 223.73C850.985 224.756 855.23 226.342 858.461 228.399L861.683 223.337C857.64 220.764 852.626 218.961 846.747 217.837L845.621 223.73ZM858.477 228.408C861.588 230.362 863.837 232.843 865.312 235.864L870.704 233.231C868.707 229.143 865.666 225.838 861.667 223.327L858.477 228.408ZM865.288 235.813C866.718 238.887 867.488 242.652 867.488 247.196L873.488 247.196C873.488 241.985 872.605 237.318 870.728 233.283L865.288 235.813ZM862.204 247.196C862.204 241.28 860.176 236.471 855.53 233.706L852.462 238.862C854.76 240.23 856.204 242.695 856.204 247.196L862.204 247.196ZM855.548 233.717C851.292 231.143 845.216 230.06 837.752 230.06L837.752 236.06C844.838 236.06 849.59 237.126 852.444 238.851L855.548 233.717ZM837.752 230.06L813.696 230.06L813.696 236.06L837.752 236.06L837.752 230.06ZM813.696 230.06C806.241 230.06 800.185 231.14 795.997 233.733L799.155 238.835C801.91 237.129 806.601 236.06 813.696 236.06L813.696 230.06ZM796.068 233.69C791.336 236.441 789.244 241.249 789.244 247.196L795.244 247.196C795.244 242.726 796.706 240.259 799.084 238.877L796.068 233.69ZM789.244 247.196C789.244 253.147 791.335 257.964 796.024 260.799L799.128 255.665C796.707 254.201 795.244 251.661 795.244 247.196L789.244 247.196ZM796.042 260.81C800.217 263.295 806.253 264.332 813.696 264.332L813.696 258.332C806.59 258.332 801.879 257.302 799.11 255.654L796.042 260.81ZM813.696 264.332L837.752 264.332L837.752 258.332L813.696 258.332L813.696 264.332ZM837.752 264.332C845.204 264.332 851.261 263.292 855.504 260.825L852.488 255.638C849.622 257.305 844.849 258.332 837.752 258.332L837.752 264.332ZM855.575 260.783C860.176 257.934 862.204 253.116 862.204 247.196L856.204 247.196C856.204 251.691 854.759 254.231 852.417 255.681L855.575 260.783ZM868.008 192.879L870.704 194.195L870.716 194.17L870.728 194.144L868.008 192.879ZM860.072 201.683L861.683 204.214L861.696 204.205L861.709 204.197L860.072 201.683ZM846.184 206.767L846.739 209.715L846.747 209.714L846.184 206.767ZM805.388 206.767L805.951 203.82L805.943 203.819L805.388 206.767ZM791.5 201.683L793.137 199.169L793.124 199.16L793.111 199.152L791.5 201.683ZM783.564 192.879L786.284 191.614L786.272 191.588L786.26 191.562L783.564 192.879ZM783.564 167.583L786.26 168.899L786.272 168.874L786.284 168.848L783.564 167.583ZM791.5 158.903L793.069 161.46L793.103 161.439L793.137 161.417L791.5 158.903ZM805.388 153.819L805.943 156.767L805.968 156.762L805.993 156.757L805.388 153.819ZM846.184 153.819L845.587 156.759L845.604 156.762L845.621 156.766L846.184 153.819ZM860.072 158.903L858.461 161.434L858.469 161.439L858.477 161.444L860.072 158.903ZM868.008 167.583L870.728 166.318L870.716 166.292L870.704 166.266L868.008 167.583ZM853.996 169.319L852.444 171.886L852.453 171.891L852.462 171.897L853.996 169.319ZM797.576 169.319L799.084 171.912L799.12 171.892L799.155 171.87L797.576 169.319ZM797.576 191.267L796.024 193.834L796.033 193.84L796.042 193.845L797.576 191.267ZM853.996 191.267L855.504 193.86L855.54 193.84L855.575 193.818L853.996 191.267ZM867.488 180.231C867.488 184.775 866.718 188.54 865.288 191.614L870.728 194.144C872.605 190.109 873.488 185.441 873.488 180.231L867.488 180.231ZM865.312 191.562C863.832 194.594 861.569 197.128 858.435 199.169L861.709 204.197C865.684 201.608 868.712 198.273 870.704 194.195L865.312 191.562ZM858.461 199.152C855.23 201.209 850.985 202.795 845.621 203.82L846.747 209.714C852.626 208.59 857.64 206.787 861.683 204.214L858.461 199.152ZM845.629 203.819C840.16 204.849 833.536 205.379 825.724 205.379L825.724 211.379C833.784 211.379 840.8 210.834 846.739 209.715L845.629 203.819ZM825.724 205.379C817.91 205.379 811.331 204.849 805.951 203.82L804.825 209.714C810.687 210.834 817.666 211.379 825.724 211.379L825.724 205.379ZM805.943 203.819C800.492 202.792 796.266 201.206 793.137 199.169L789.863 204.197C793.843 206.789 798.876 208.593 804.833 209.715L805.943 203.819ZM793.111 199.152C789.906 197.113 787.672 194.598 786.284 191.614L780.844 194.144C782.762 198.269 785.819 201.624 789.889 204.214L793.111 199.152ZM786.26 191.562C784.765 188.502 783.96 184.756 783.96 180.231L777.96 180.231C777.96 185.46 778.891 190.147 780.868 194.195L786.26 191.562ZM783.96 180.231C783.96 175.706 784.765 171.96 786.26 168.899L780.868 166.266C778.891 170.315 777.96 175.001 777.96 180.231L783.96 180.231ZM786.284 168.848C787.667 165.875 789.888 163.412 793.069 161.46L789.931 156.346C785.838 158.858 782.768 162.181 780.844 166.318L786.284 168.848ZM793.137 161.417C796.266 159.379 800.492 157.794 805.943 156.767L804.833 150.871C798.876 151.993 793.843 153.797 789.863 156.389L793.137 161.417ZM805.993 156.757C811.356 155.653 817.92 155.083 825.724 155.083L825.724 149.083C817.656 149.083 810.663 149.67 804.783 150.881L805.993 156.757ZM825.724 155.083C833.526 155.083 840.136 155.653 845.587 156.759L846.781 150.879C840.824 149.67 833.793 149.083 825.724 149.083L825.724 155.083ZM845.621 156.766C850.985 157.791 855.23 159.377 858.461 161.434L861.683 156.372C857.64 153.799 852.626 151.996 846.747 150.872L845.621 156.766ZM858.477 161.444C861.588 163.397 863.837 165.879 865.312 168.899L870.704 166.266C868.707 162.178 865.666 158.873 861.667 156.362L858.477 161.444ZM865.288 168.848C866.718 171.922 867.488 175.687 867.488 180.231L873.488 180.231C873.488 175.02 872.605 170.353 870.728 166.318L865.288 168.848ZM862.204 180.231C862.204 174.316 860.176 169.506 855.53 166.741L852.462 171.897C854.76 173.265 856.204 175.73 856.204 180.231L862.204 180.231ZM855.548 166.752C851.292 164.178 845.216 163.095 837.752 163.095L837.752 169.095C844.838 169.095 849.59 170.161 852.444 171.886L855.548 166.752ZM837.752 163.095L813.696 163.095L813.696 169.095L837.752 169.095L837.752 163.095ZM813.696 163.095C806.241 163.095 800.185 164.175 795.997 166.768L799.155 171.87C801.91 170.164 806.601 169.095 813.696 169.095L813.696 163.095ZM796.068 166.725C791.336 169.477 789.244 174.284 789.244 180.231L795.244 180.231C795.244 175.762 796.706 173.295 799.084 171.912L796.068 166.725ZM789.244 180.231C789.244 186.182 791.335 190.999 796.024 193.834L799.128 188.7C796.707 187.236 795.244 184.696 795.244 180.231L789.244 180.231ZM796.042 193.845C800.217 196.33 806.253 197.367 813.696 197.367L813.696 191.367C806.59 191.367 801.879 190.337 799.11 188.689L796.042 193.845ZM813.696 197.367L837.752 197.367L837.752 191.367L813.696 191.367L813.696 197.367ZM837.752 197.367C845.204 197.367 851.261 196.327 855.504 193.86L852.488 188.673C849.622 190.34 844.849 191.367 837.752 191.367L837.752 197.367ZM855.575 193.818C860.176 190.969 862.204 186.151 862.204 180.231L856.204 180.231C856.204 184.727 854.759 187.266 852.417 188.716L855.575 193.818Z" fill="#252222" mask="url(#path-105-outside-1_1013_1378)"/>
<line x1="522.588" y1="8.46875" x2="522.588" y2="534.027" stroke="#252222" stroke-width="3"/>
<line x1="551.512" y1="8.84961" x2="551.512" y2="534.408" stroke="#252222" stroke-width="3"/>
<g clip-path="url(#clip0_1013_1378)">
<path d="M212.06 120.488H212.058H212.056H212.054H212.052H212.049H212.047H212.045H212.043H212.041H212.039H212.036H212.034H212.032H212.03H212.028H212.026H212.024H212.021H212.019H212.017H212.015H212.013H212.011H212.009H212.007H212.005H212.002H212H211.998H211.996H211.994H211.992H211.99H211.988H211.986H211.984H211.982H211.98H211.978H211.976H211.974H211.972H211.97H211.968H211.966H211.964H211.962H211.96H211.958H211.956H211.954H211.952H211.95H211.948H211.946H211.944H211.942H211.94H211.938H211.936H211.934H211.932H211.93H211.928H211.926H211.924H211.923H211.921H211.919H211.917H211.915H211.913H211.911H211.909H211.907H211.905H211.904H211.902H211.9H211.898H211.896H211.894H211.892H211.891H211.889H211.887H211.885H211.883H211.881H211.88H211.878H211.876H211.874H211.872H211.871H211.869H211.867H211.865H211.864H211.862H211.86H211.858H211.856H211.855H211.853H211.851H211.849H211.848H211.846H211.844H211.842H211.841H211.839H211.837H211.836H211.834H211.832H211.831H211.829H211.827H211.825H211.824H211.822H211.82H211.819H211.817H211.815H211.814H211.812H211.81H211.809H211.807H211.806H211.804H211.802H211.801H211.799H211.797H211.796H211.794H211.793H211.791H211.789H211.788H211.786H211.785H211.783H211.782H211.78H211.778H211.777H211.775H211.774H211.772H211.771H211.769H211.768H211.766H211.765H211.763H211.762H211.76H211.759H211.757H211.756H211.754H211.753H211.751H211.75H211.748H211.747H211.745H211.744H211.742H211.741H211.739H211.738H211.736H211.735H211.734H211.732H211.731H211.729H211.728H211.727H211.725H211.724H211.722H211.721H211.72H211.718H211.717H211.715H211.714H211.713H211.711H211.71H211.709H211.707H211.706H211.705H211.703H211.702H211.701H211.699H211.698H211.697H211.695H211.694H211.693H211.691H211.69H211.689H211.687H211.686H211.685H211.684H211.682H211.681H211.68H211.679H211.677H211.676H211.675H211.674H211.672H211.671H211.67H211.669H211.667H211.666H211.665H211.664H211.663H211.661H211.66H211.659H211.658H211.657H211.656H211.654H211.653H211.652H211.651H211.65H211.649H211.647H211.646H211.645H211.644H211.643H211.642H211.641H211.639H211.638H211.637H211.636H211.635H211.634H211.633H211.632H211.631H211.63H211.629H211.627H211.626H211.625H211.624H211.623H211.622H211.621H211.62H211.619H211.618H211.617H211.616H211.615H211.614H211.613H211.612H211.611H211.61H211.609H211.608H211.607H211.606H211.605H211.604H211.603H211.602H211.601H211.6H211.599H211.598H211.597H211.596H211.596H211.595H211.594H211.593H211.592H211.591H211.59H211.589H211.588H211.587H211.586H211.586H211.585H211.584H211.583H211.582H211.581H211.58H211.579H211.579H211.578H211.577H211.576H211.575H211.574H211.574H211.573H211.572H211.571H211.57H211.57H211.569H211.568H211.567H211.566H211.566H211.565H211.564H211.563H211.563H211.562H211.561H211.56H211.559H211.559H211.558H211.557H211.557H211.556H211.555H211.554H211.554H211.553H211.552H211.552H211.551H211.55H211.549H211.549H211.548H211.547H211.547H211.546H211.545H211.545H211.544H211.543H211.543H211.542H211.542H211.541H211.54H211.54H211.539H211.538H211.538H211.537H211.537H211.536H211.535H211.535H211.534H211.534H211.533H211.532H211.532H211.531H211.531H211.53H211.53H211.529H211.529H211.528H211.528H211.527H211.526H211.526H211.525H211.525H211.524H211.524H211.523H211.523H211.522H211.522H211.521H211.521H211.52H211.52H211.52H211.519H211.519H211.518H211.518H211.517H211.517H211.516H211.516H211.516H211.515H211.515H211.514H211.514H211.514C205.381 120.649 199.951 122.579 195.177 126.285C191.834 128.881 189.205 132.052 187.284 135.814L199.332 135.815C202.692 132.461 207.23 130.519 212.056 130.521C212.057 130.521 212.057 130.521 212.057 130.521L212.056 132.021C216.617 132.021 220.901 133.912 224.012 137.178C224.054 137.223 224.104 137.258 224.16 137.282C224.217 137.306 224.277 137.319 224.338 137.319L212.06 120.488ZM212.06 120.488H212.063H212.065H212.067H212.069H212.071H212.073H212.076H212.078H212.08H212.082H212.084H212.086H212.089H212.091H212.093H212.095H212.097H212.099H212.101H212.103H212.106H212.108H212.11H212.112H212.114H212.116H212.118H212.12H212.122H212.124H212.126H212.128H212.131H212.133H212.135H212.137H212.139H212.141H212.143H212.145H212.147H212.149H212.151H212.153H212.155H212.157H212.159H212.161H212.163H212.165H212.167H212.169H212.171H212.173H212.175H212.177H212.179H212.181H212.183H212.184H212.186H212.188H212.19H212.192H212.194H212.196H212.198H212.2H212.202H212.204H212.206H212.207H212.209H212.211H212.213H212.215H212.217H212.219H212.221H212.222H212.224H212.226H212.228H212.23H212.232H212.234H212.235H212.237H212.239H212.241H212.243H212.244H212.246H212.248H212.25H212.252H212.253H212.255H212.257H212.259H212.26H212.262H212.264H212.266H212.267H212.269H212.271H212.273H212.274H212.276H212.278H212.28H212.281H212.283H212.285H212.286H212.288H212.29H212.292H212.293H212.295H212.297H212.298H212.3H212.302H212.303H212.305H212.307H212.308H212.31H212.311H212.313H212.315H212.316H212.318H212.32H212.321H212.323H212.324H212.326H212.328H212.329H212.331H212.332H212.334H212.336H212.337H212.339H212.34H212.342H212.343H212.345H212.346H212.348H212.35H212.351H212.353H212.354H212.356H212.357H212.359H212.36H212.362H212.363H212.365H212.366H212.368H212.369H212.371H212.372H212.374H212.375H212.376H212.378H212.379H212.381H212.382H212.384H212.385H212.387H212.388H212.389H212.391H212.392H212.394H212.395H212.396H212.398H212.399H212.401H212.402H212.403H212.405H212.406H212.407H212.409H212.41H212.412H212.413H212.414H212.416H212.417H212.418H212.42H212.421H212.422H212.423H212.425H212.426H212.427H212.429H212.43H212.431H212.433H212.434H212.435H212.436H212.438H212.439H212.44H212.441H212.443H212.444H212.445H212.446H212.448H212.449H212.45H212.451H212.452H212.454H212.455H212.456H212.457H212.458H212.46H212.461H212.462H212.463H212.464H212.466H212.467H212.468H212.469H212.47H212.471H212.472H212.474H212.475H212.476H212.477H212.478H212.479H212.48H212.481H212.483H212.484H212.485H212.486H212.487H212.488H212.489H212.49H212.491H212.492H212.493H212.494H212.495H212.496H212.498H212.499H212.5H212.501H212.502H212.503H212.504H212.505H212.506H212.507H212.508H212.509H212.51H212.511H212.512H212.513H212.514H212.515H212.516H212.517H212.517H212.518H212.519H212.52H212.521H212.522H212.523H212.524H212.525H212.526H212.527H212.528H212.529H212.53H212.53H212.531H212.532H212.533H212.534H212.535H212.536H212.537H212.537H212.538H212.539H212.54H212.541H212.542H212.543H212.543H212.544H212.545H212.546H212.547H212.547H212.548H212.549H212.55H212.551H212.551H212.552H212.553H212.554H212.555H212.555H212.556H212.557H212.558H212.558H212.559H212.56H212.561H212.561H212.562H212.563H212.563H212.564H212.565H212.566H212.566H212.567H212.568H212.568H212.569H212.57H212.57H212.571H212.572H212.572H212.573H212.574H212.574H212.575H212.576H212.576H212.577H212.578H212.578H212.579H212.58H212.58H212.581H212.581H212.582H212.583H212.583H212.584H212.584H212.585H212.585H212.586H212.587H212.587H212.588H212.588H212.589H212.589H212.59H212.59H212.591H212.592H212.592H212.593H212.593H212.594H212.594H212.595H212.595H212.596H212.596H212.597H212.597H212.598H212.598H212.598H212.599H212.599H212.6H212.6H212.601H212.601H212.602H212.602H212.602H212.603H212.603H212.604H212.604C218.737 120.651 224.166 122.581 228.939 126.288C232.281 128.885 234.909 132.057 236.829 135.82M212.06 120.488L236.829 135.82M236.829 135.82L224.781 135.819L236.829 135.82Z" stroke="#252222" stroke-width="3"/>
<path d="M236.306 146.577L236.306 146.579C236.306 146.904 236.223 147.418 235.804 147.843C235.386 148.266 234.876 148.356 234.55 148.361M236.306 146.577L229.422 151.349L227.922 151.354L227.922 151.356C227.922 151.358 227.922 151.359 227.922 151.361L227.944 156.889L226.29 156.889L226.287 141.271L227.944 141.272L227.936 146.577V146.579C227.936 146.904 228.019 147.418 228.439 147.843C228.856 148.266 229.365 148.356 229.691 148.361C230.053 148.367 230.868 148.37 232.12 148.37C233.372 148.37 234.187 148.367 234.55 148.361M236.306 146.577L236.299 141.272M236.306 146.577L236.299 141.272M234.55 148.361C234.549 148.361 234.547 148.361 234.546 148.361L234.527 146.861L234.553 148.361C234.552 148.361 234.551 148.361 234.55 148.361ZM236.299 141.272L237.955 141.271L237.95 156.889L236.297 156.889L236.32 151.361C236.32 151.359 236.321 151.358 236.321 151.356L236.321 151.355L236.299 141.272ZM232.12 149.605C233.433 149.605 234.291 149.611 234.657 149.624L232.12 149.605ZM232.12 149.605C230.812 149.605 229.955 149.611 229.588 149.624L232.12 149.605ZM226.291 158.273V158.273V158.273Z" stroke="#252222" stroke-width="3"/>
<path d="M245.275 150.874L245.276 150.862C245.297 150.586 245.402 150.146 245.787 149.788C246.173 149.429 246.62 149.357 246.9 149.357H246.901L250.479 149.359L250.48 148.505L246.975 148.513L246.972 148.513C246.522 148.513 246.091 148.334 245.774 148.016C245.456 147.699 245.277 147.268 245.277 146.818V146.817L245.279 143.999C245.279 143.999 245.279 143.998 245.279 143.998C245.279 143.577 245.444 143.17 245.743 142.865C246.044 142.56 246.457 142.384 246.893 142.384H246.893L252.384 142.387L252.381 141.27L243.664 141.273L243.669 156.88L252.625 156.885L252.627 155.806C251.124 155.815 249.363 155.815 247.344 155.806C247.343 155.806 247.343 155.806 247.342 155.806L247.348 154.306C247.233 154.306 247.089 154.292 246.916 154.265L245.275 150.874ZM245.275 150.874L245.275 150.885C245.21 151.95 245.218 153.064 245.295 154.227M245.275 150.874L246.679 155.746C246.315 155.688 245.978 155.509 245.726 155.234C245.473 154.959 245.319 154.604 245.295 154.227M245.295 154.227C245.295 154.226 245.295 154.226 245.295 154.225L246.791 154.13L245.295 154.229C245.295 154.228 245.295 154.228 245.295 154.227ZM253.732 143.887L246.893 143.884M253.732 143.887C253.836 143.887 253.887 143.835 253.887 143.731M253.732 143.887L253.732 143.731L253.887 143.731M253.732 143.887V143.731L252.387 143.734L252.387 143.731M246.893 143.884L253.745 139.903V139.903V139.77C253.78 139.77 253.814 139.784 253.839 139.809C253.864 139.834 253.878 139.867 253.878 139.903L253.887 143.731M246.893 143.884C246.862 143.884 246.834 143.896 246.812 143.918C246.791 143.939 246.779 143.968 246.779 143.999L246.777 146.818M246.893 143.884L246.777 146.818M253.887 143.731H253.732L253.733 142.387L253.732 142.387M252.387 143.731H253.732V142.387M252.387 143.731C252.387 143.556 252.431 143.149 252.782 142.794C253.136 142.436 253.548 142.387 253.732 142.387M252.387 143.731L253.732 142.387M246.777 146.818C246.777 146.87 246.798 146.919 246.834 146.956C246.871 146.992 246.92 147.013 246.972 147.013L251.841 147.002M246.777 146.818L251.978 150.736M251.981 147.139L251.978 150.736M251.981 147.139C251.981 147.102 251.967 147.068 251.94 147.042C251.914 147.016 251.878 147.002 251.841 147.002M251.981 147.139L251.846 147.139L251.841 147.139L251.841 147.002M251.981 147.139H251.846H251.841L251.841 147.144L251.844 148.502L251.841 148.502M251.978 150.736C251.978 150.769 251.965 150.801 251.942 150.824M251.978 150.736L251.942 150.824M251.841 147.002V147.139L250.481 147.137L250.481 147.139M251.841 148.502V147.144V147.139H250.481M251.841 148.502C251.493 148.502 251.151 148.367 250.893 148.116C250.634 147.864 250.481 147.513 250.481 147.139M251.841 148.502L250.481 147.139M251.942 150.824C251.919 150.847 251.888 150.86 251.855 150.86L251.942 150.824ZM252.378 139.903L252.378 139.906L252.378 139.903ZM242.251 141.273L242.251 141.273C242.251 141.273 242.251 141.273 242.251 141.273ZM252.623 158.275C252.623 158.274 252.623 158.273 252.623 158.273V158.275Z" stroke="#252222" stroke-width="3"/>
<path d="M268.535 156.889L265.901 152.153L265.896 152.146L265.896 152.146C265.698 151.785 265.645 151.362 265.747 150.964C265.849 150.565 266.099 150.22 266.445 149.998L266.456 149.991L266.456 149.991C267.311 149.455 267.866 148.834 268.201 148.143C268.536 147.448 268.694 146.588 268.603 145.506L268.535 156.889ZM268.535 156.889L266.907 156.887L264.277 151.486L264.273 151.478L264.269 151.47C264.12 151.174 263.892 150.935 263.62 150.773C263.349 150.611 263.044 150.531 262.741 150.531C262.74 150.531 262.74 150.531 262.74 150.531H261.4C260.941 150.531 260.524 150.728 260.233 151.04C259.947 151.347 259.802 151.743 259.801 152.136C259.801 152.136 259.801 152.137 259.801 152.138L259.796 156.886L258.411 156.883L258.405 141.274C259.965 141.274 261.367 141.269 262.612 141.259C264.218 141.247 265.121 141.356 265.507 141.484L268.535 156.889ZM259.792 143.973L259.792 143.97C259.792 143.54 259.963 143.127 260.268 142.823C260.571 142.519 260.983 142.348 261.412 142.348C261.413 142.348 261.413 142.348 261.413 142.348C261.414 142.348 261.414 142.348 261.415 142.348L263.615 142.344C263.615 142.344 263.615 142.344 263.615 142.344C264.085 142.343 264.55 142.435 264.985 142.613C265.419 142.792 265.814 143.054 266.148 143.386C266.481 143.717 266.746 144.11 266.927 144.544C267.108 144.978 267.201 145.443 267.202 145.913L267.202 145.916L267.202 146.232V146.233H265.702L259.792 143.973ZM259.792 143.973L259.8 148.193M259.792 143.973L259.8 148.193M259.8 148.193C259.8 148.193 259.8 148.194 259.8 148.195M259.8 148.193L259.8 148.195M259.8 148.195C259.8 148.195 259.8 148.195 259.8 148.195L259.8 148.195ZM257.066 156.879C257.068 156.879 257.069 156.879 257.07 156.879H257.066ZM259.794 158.313C259.794 158.312 259.794 158.311 259.794 158.311V158.313ZM265.507 141.484C267.306 142.079 268.436 143.547 268.603 145.506L265.507 141.484Z" stroke="#252222" stroke-width="3"/>
<path d="M295.212 154.095V154.096C295.212 154.52 295.38 154.928 295.681 155.229C295.982 155.529 296.389 155.698 296.814 155.698H301.823V156.886L293.584 156.885V141.27H295.216L295.212 154.095Z" stroke="#252222" stroke-width="3"/>
<path d="M309.192 154.302L309.192 154.302C309.116 153.124 309.112 151.982 309.183 150.878C309.2 150.603 309.299 150.159 309.686 149.795C310.072 149.432 310.521 149.359 310.798 149.359C310.798 149.359 310.798 149.359 310.798 149.359C310.8 149.359 310.801 149.359 310.802 149.359L314.342 149.349L314.341 148.51L310.797 148.511H310.797C310.583 148.511 310.371 148.469 310.173 148.387C309.974 148.305 309.793 148.185 309.64 148.032C309.487 147.879 309.365 147.696 309.283 147.494C309.202 147.296 309.161 147.084 309.162 146.869M309.192 154.302L310.662 146.876M309.192 154.302L309.192 154.309C309.219 154.695 309.387 155.058 309.664 155.329C309.937 155.595 310.295 155.753 310.674 155.775C311.137 155.804 311.66 155.817 312.24 155.817C312.616 155.817 314.036 155.814 316.495 155.807L316.493 156.882L307.525 156.881L307.522 141.27L316.247 141.271M309.192 154.302L317.746 139.865M309.162 146.869C309.162 146.865 309.162 146.86 309.162 146.856L310.662 146.876M309.162 146.869L309.162 146.873L310.662 146.876M309.162 146.869L309.167 143.959H310.667M310.662 146.876L310.667 143.959M310.667 143.959L309.167 143.957M310.667 143.959L309.167 143.957M309.167 143.957C309.168 143.54 309.334 143.14 309.629 142.845C309.924 142.55 310.325 142.384 310.742 142.384L310.743 143.883V142.384L316.248 142.382M309.167 143.957L317.674 143.882C317.694 143.882 317.713 143.874 317.727 143.86C317.74 143.846 317.748 143.826 317.748 143.806M316.248 142.382L316.248 143.806M316.248 142.382L317.674 142.382M316.248 142.382L316.247 141.271M316.248 143.806V143.807L317.672 143.806L317.674 143.806H317.674L317.748 143.806M316.248 143.806H317.672H317.674H317.674H317.748M316.248 143.806C316.248 143.44 316.39 143.081 316.653 142.812C316.918 142.541 317.284 142.382 317.674 142.382M317.748 143.806L317.746 139.865M317.746 139.865C317.746 139.84 317.736 139.816 317.718 139.799C317.7 139.781 317.676 139.771 317.651 139.771L317.746 139.865ZM317.674 142.382C317.674 142.382 317.674 142.382 317.674 142.382L317.674 142.382ZM316.247 141.271L317.651 141.271C317.287 141.271 316.933 141.13 316.668 140.869C316.402 140.608 316.247 140.248 316.246 139.866L316.247 141.271ZM307.525 158.258V158.258V158.258ZM315.635 149.346L315.631 149.346L315.635 149.346Z" stroke="#252222" stroke-width="3"/>
<path d="M195.537 141.3C194.423 143.757 193.863 146.357 193.866 149.086M195.537 141.3L184.107 149.094M195.537 141.3L185.153 141.307C184.453 143.91 184.105 146.505 184.107 149.094M195.537 141.3L184.107 149.094M193.866 149.086C193.866 149.086 193.866 149.086 193.866 149.086L195.366 149.085L193.866 149.086ZM193.866 149.086C193.868 151.815 194.433 154.413 195.552 156.868M195.552 156.868L185.167 156.879M195.552 156.868C195.782 157.374 196.036 157.873 196.314 158.367M195.552 156.868L196.314 158.367M185.167 156.879C184.462 154.277 184.111 151.683 184.107 149.094M185.167 156.879C185.249 157.182 185.336 157.486 185.428 157.79M185.167 156.879L184.2 156.88C184.392 156.88 184.685 156.929 184.966 157.14C185.246 157.349 185.375 157.614 185.428 157.79M184.107 149.094L182.607 149.096L184.107 149.094M184.107 149.094L184.107 149.094M185.428 157.79L185.428 157.791L185.428 157.79ZM196.314 158.367L184.2 158.38V158.162V158.162V156.88L184.198 156.88L184.2 158.162V158.162L196.314 158.367ZM196.503 158.367C196.502 158.355 196.502 158.344 196.502 158.333C196.495 158.079 196.557 157.828 196.679 157.605C196.802 157.383 196.981 157.197 197.2 157.067C197.23 157.049 197.26 157.033 197.291 157.017C197.489 157.403 197.703 157.785 197.932 158.163L197.933 158.296L197.933 158.297L197.933 158.365L197.822 158.365L197.82 158.365L196.503 158.367Z" stroke="#252222" stroke-width="3"/>
<mask id="path-116-inside-2_1013_1378" fill="white">
<path d="M281.199 148.315C281.234 148.315 281.257 148.304 281.267 148.281C282.251 146.034 283.487 143.24 284.976 139.898C285.005 139.834 285.054 139.802 285.124 139.802L289.309 139.8C289.324 139.8 289.339 139.806 289.349 139.817C289.36 139.827 289.366 139.841 289.366 139.856L289.343 158.291C289.343 158.316 289.333 158.34 289.316 158.357C289.299 158.375 289.275 158.385 289.251 158.385L285.31 158.379C285.283 158.379 285.258 158.368 285.239 158.349C285.221 158.33 285.211 158.305 285.211 158.278L285.218 148.955C285.219 148.723 285.165 148.71 285.057 148.915L282.265 154.22C282.237 154.276 282.19 154.307 282.127 154.312C281.897 154.329 281.587 154.337 281.195 154.337C280.805 154.337 280.495 154.329 280.266 154.312C280.202 154.307 280.156 154.276 280.127 154.22L277.339 148.911C277.231 148.706 277.177 148.719 277.178 148.951V158.275C277.178 158.301 277.168 158.327 277.149 158.345C277.131 158.364 277.106 158.375 277.079 158.376L273.138 158.379C273.114 158.379 273.09 158.369 273.073 158.352C273.056 158.334 273.046 158.31 273.046 158.286L273.037 139.851C273.037 139.843 273.039 139.836 273.041 139.829C273.044 139.823 273.049 139.816 273.054 139.811C273.059 139.806 273.066 139.802 273.073 139.799C273.08 139.796 273.087 139.795 273.095 139.795L277.279 139.799C277.349 139.799 277.398 139.83 277.427 139.894C278.914 143.237 280.148 146.033 281.129 148.281C281.14 148.304 281.163 148.315 281.199 148.315Z"/>
</mask>
<path d="M281.267 148.281L283.979 149.565L283.998 149.525L284.016 149.484L281.267 148.281ZM284.976 139.898L282.243 138.66L282.24 138.668L282.236 138.677L284.976 139.898ZM285.124 139.802L285.124 142.802L285.125 142.802L285.124 139.802ZM289.309 139.8L289.309 136.8L289.307 136.8L289.309 139.8ZM289.366 139.856L292.366 139.86V139.856L289.366 139.856ZM289.343 158.291L286.343 158.287V158.291H289.343ZM289.251 158.385L289.247 161.385H289.251V158.385ZM285.31 158.379L285.256 161.379L285.281 161.379L285.305 161.379L285.31 158.379ZM285.211 158.278L282.211 158.276L282.211 158.278L285.211 158.278ZM285.218 148.955L282.218 148.939L282.218 148.952L285.218 148.955ZM285.057 148.915L282.403 147.518L282.403 147.518L285.057 148.915ZM282.265 154.22L279.611 152.823L279.602 152.839L279.594 152.856L282.265 154.22ZM282.127 154.312L282.346 157.304L282.352 157.303L282.127 154.312ZM280.266 154.312L280.04 157.303L280.047 157.304L280.266 154.312ZM280.127 154.22L282.799 152.856L282.791 152.84L282.783 152.825L280.127 154.22ZM277.339 148.911L279.995 147.516L279.993 147.514L277.339 148.911ZM277.178 148.951H280.178V148.943L280.178 148.936L277.178 148.951ZM277.178 158.275L274.178 158.275L274.178 158.275L277.178 158.275ZM277.079 158.376L277.082 161.376L277.107 161.376L277.133 161.375L277.079 158.376ZM273.138 158.379L273.138 161.379L273.141 161.379L273.138 158.379ZM273.046 158.286L276.046 158.286L276.046 158.284L273.046 158.286ZM273.037 139.851L270.037 139.851L270.037 139.852L273.037 139.851ZM273.095 139.795L273.097 136.795H273.095L273.095 139.795ZM277.279 139.799L277.277 142.799H277.279V139.799ZM277.427 139.894L280.168 138.675L280.164 138.666L280.16 138.656L277.427 139.894ZM281.129 148.281L278.379 149.481L278.398 149.523L278.417 149.565L281.129 148.281ZM281.199 151.315C281.88 151.315 283.284 151.031 283.979 149.565L278.556 146.997C278.841 146.395 279.319 145.914 279.901 145.623C280.429 145.359 280.912 145.315 281.199 145.315V151.315ZM284.016 149.484C284.996 147.245 286.229 144.457 287.717 141.119L282.236 138.677C280.745 142.022 279.506 144.823 278.519 147.078L284.016 149.484ZM287.709 141.135C287.532 141.526 287.208 141.993 286.663 142.346C286.118 142.698 285.557 142.802 285.124 142.802V136.802C284.622 136.802 284.001 136.922 283.406 137.306C282.812 137.691 282.449 138.206 282.243 138.66L287.709 141.135ZM285.125 142.802L289.31 142.8L289.307 136.8L285.123 136.802L285.125 142.802ZM289.309 142.8C288.558 142.8 287.82 142.512 287.262 141.971L291.437 137.662C290.857 137.1 290.09 136.8 289.309 136.8L289.309 142.8ZM287.262 141.971C286.701 141.428 286.366 140.669 286.366 139.856L292.366 139.856C292.366 139.014 292.02 138.227 291.437 137.662L287.262 141.971ZM286.366 139.852L286.343 158.287L292.343 158.295L292.366 139.86L286.366 139.852ZM286.343 158.291C286.343 157.538 286.636 156.806 287.174 156.257L291.458 160.458C292.031 159.874 292.343 159.093 292.343 158.291H286.343ZM287.174 156.257C287.715 155.706 288.46 155.385 289.251 155.385V161.385C290.09 161.385 290.883 161.044 291.458 160.458L287.174 156.257ZM289.255 155.385L285.314 155.379L285.305 161.379L289.247 161.385L289.255 155.385ZM285.363 155.38C286.123 155.393 286.847 155.705 287.38 156.247L283.099 160.451C283.669 161.031 284.443 161.364 285.256 161.379L285.363 155.38ZM287.38 156.247C287.912 156.789 288.211 157.519 288.211 158.279L282.211 158.278C282.21 159.091 282.529 159.871 283.099 160.451L287.38 156.247ZM288.211 158.281L288.218 148.957L282.218 148.952L282.211 158.276L288.211 158.281ZM288.218 148.97C288.218 148.846 288.217 148.545 288.142 148.196C288.107 148.03 288.018 147.668 287.784 147.269C287.547 146.865 286.976 146.125 285.898 145.859C284.823 145.593 283.975 145.98 283.58 146.224C283.188 146.466 282.941 146.742 282.832 146.872C282.603 147.144 282.461 147.408 282.403 147.518L287.712 150.312C287.708 150.32 287.613 150.508 287.425 150.732C287.336 150.838 287.107 151.097 286.732 151.329C286.354 151.562 285.52 151.946 284.459 151.683C283.395 151.42 282.835 150.69 282.608 150.304C282.384 149.921 282.303 149.583 282.274 149.448C282.213 149.16 282.218 148.948 282.218 148.939L288.218 148.97ZM282.403 147.518L279.611 152.823L284.92 155.617L287.712 150.312L282.403 147.518ZM279.594 152.856C279.78 152.491 280.087 152.093 280.552 151.784C281.017 151.476 281.5 151.351 281.901 151.32L282.352 157.303C283.45 157.221 284.428 156.581 284.937 155.584L279.594 152.856ZM281.907 151.32C281.784 151.329 281.557 151.337 281.195 151.337V157.337C281.617 157.337 282.011 157.328 282.346 157.304L281.907 151.32ZM281.195 151.337C280.836 151.337 280.609 151.329 280.485 151.32L280.047 157.304C280.382 157.328 280.775 157.337 281.195 157.337V151.337ZM280.492 151.32C280.893 151.351 281.375 151.476 281.84 151.784C282.306 152.093 282.612 152.49 282.799 152.856L277.455 155.584C277.964 156.581 278.943 157.221 280.04 157.303L280.492 151.32ZM282.783 152.825L279.995 147.516L274.683 150.307L277.471 155.615L282.783 152.825ZM279.993 147.514C279.935 147.404 279.793 147.14 279.564 146.868C279.455 146.738 279.208 146.462 278.816 146.22C278.421 145.976 277.573 145.589 276.498 145.855C275.42 146.121 274.849 146.861 274.612 147.265C274.378 147.665 274.289 148.026 274.254 148.193C274.179 148.542 274.178 148.842 274.178 148.967L280.178 148.936C280.178 148.944 280.183 149.156 280.122 149.444C280.093 149.58 280.012 149.917 279.788 150.3C279.561 150.687 279.001 151.417 277.937 151.68C276.876 151.942 276.042 151.559 275.664 151.325C275.289 151.094 275.06 150.835 274.971 150.729C274.783 150.504 274.688 150.316 274.684 150.309L279.993 147.514ZM274.178 148.951V158.275H280.178V148.951H274.178ZM274.178 158.275C274.178 157.515 274.477 156.786 275.009 156.243L279.29 160.448C279.859 159.868 280.179 159.087 280.178 158.274L274.178 158.275ZM275.009 156.243C275.542 155.701 276.266 155.39 277.026 155.376L277.133 161.375C277.946 161.361 278.72 161.028 279.29 160.448L275.009 156.243ZM277.077 155.376L273.135 155.379L273.141 161.379L277.082 161.376L277.077 155.376ZM273.138 155.379C273.928 155.379 274.674 155.7 275.215 156.251L270.931 160.452C271.506 161.039 272.299 161.379 273.138 161.379L273.138 155.379ZM275.215 156.251C275.754 156.801 276.046 157.534 276.046 158.286L270.046 158.286C270.046 159.087 270.358 159.868 270.931 160.452L275.215 156.251ZM276.046 158.284L276.037 139.849L270.037 139.852L270.046 158.287L276.046 158.284ZM276.037 139.851C276.037 140.251 275.956 140.645 275.8 141.009L270.283 138.65C270.121 139.028 270.037 139.436 270.037 139.851H276.037ZM275.8 141.009C275.644 141.374 275.418 141.698 275.141 141.966L270.967 137.657C270.679 137.935 270.445 138.272 270.283 138.65L275.8 141.009ZM275.141 141.966C274.865 142.234 274.541 142.442 274.19 142.583L271.955 137.015C271.59 137.162 271.254 137.379 270.967 137.657L275.141 141.966ZM274.19 142.583C273.839 142.724 273.467 142.795 273.095 142.795L273.095 136.795C272.707 136.795 272.32 136.869 271.955 137.015L274.19 142.583ZM273.092 142.795L277.277 142.799L277.282 136.799L273.097 136.795L273.092 142.795ZM277.279 142.799C276.847 142.799 276.286 142.695 275.74 142.342C275.195 141.99 274.871 141.522 274.694 141.132L280.16 138.656C279.954 138.202 279.591 137.687 278.997 137.303C278.402 136.918 277.782 136.799 277.279 136.799V142.799ZM274.686 141.113C276.171 144.453 277.402 147.242 278.379 149.481L283.878 147.081C282.893 144.824 281.656 142.022 280.168 138.675L274.686 141.113ZM278.417 149.565C279.129 151.068 280.573 151.315 281.199 151.315V145.315C281.472 145.315 281.945 145.355 282.468 145.61C283.048 145.892 283.544 146.371 283.84 146.997L278.417 149.565Z" fill="#252222" mask="url(#path-116-inside-2_1013_1378)"/>
<path d="M224.727 162.356C221.337 165.685 216.878 167.612 212.052 167.612C207.226 167.612 202.767 165.685 199.377 162.356C198.279 162.357 194.258 162.362 187.312 162.372C189.408 166.429 192.305 169.793 196.012 172.479L224.727 162.356ZM224.727 162.356C225.825 162.357 229.846 162.362 236.791 162.372C234.696 166.429 231.799 169.793 228.092 172.479L224.727 162.356ZM185.086 160.964L185.086 160.964L185.086 160.964ZM185.086 160.964L185.297 160.875L185.086 160.964ZM185.086 160.963L185.086 160.875L185.086 160.963ZM185.086 160.963L185.086 160.963L185.086 160.963L185.085 160.963L185.005 160.998L185.086 160.963ZM239.018 160.874L239.018 160.875L239.018 160.874ZM228.092 172.479C224.437 175.126 220.11 176.825 215.668 177.416L228.092 172.479ZM215.668 177.416C214.554 177.564 213.349 177.639 212.052 177.639C210.755 177.639 209.551 177.564 208.436 177.416L215.668 177.416ZM208.436 177.416C203.994 176.825 199.667 175.126 196.012 172.479L208.436 177.416Z" stroke="#252222" stroke-width="3"/>
</g>
<defs>
<filter id="filter0_d_1013_1378" x="202.742" y="869.684" width="11" height="37.6836" filterUnits="userSpaceOnUse" color-interpolation-filters="sRGB">
<feFlood flood-opacity="0" result="BackgroundImageFix"/>
<feColorMatrix in="SourceAlpha" type="matrix" values="0 0 0 0 0 0 0 0 0 0 0 0 0 0 0 0 0 0 127 0" result="hardAlpha"/>
<feOffset dy="4"/>
<feGaussianBlur stdDeviation="2"/>
<feComposite in2="hardAlpha" operator="out"/>
<feColorMatrix type="matrix" values="0 0 0 0 0 0 0 0 0 0 0 0 0 0 0 0 0 0 0.25 0"/>
<feBlend mode="normal" in2="BackgroundImageFix" result="effect1_dropShadow_1013_1378"/>
<feBlend mode="normal" in="SourceGraphic" in2="effect1_dropShadow_1013_1378" result="shape"/>
</filter>
<filter id="filter1_d_1013_1378" x="268.199" y="869.684" width="11" height="37.6836" filterUnits="userSpaceOnUse" color-interpolation-filters="sRGB">
<feFlood flood-opacity="0" result="BackgroundImageFix"/>
<feColorMatrix in="SourceAlpha" type="matrix" values="0 0 0 0 0 0 0 0 0 0 0 0 0 0 0 0 0 0 127 0" result="hardAlpha"/>
<feOffset dy="4"/>
<feGaussianBlur stdDeviation="2"/>
<feComposite in2="hardAlpha" operator="out"/>
<feColorMatrix type="matrix" values="0 0 0 0 0 0 0 0 0 0 0 0 0 0 0 0 0 0 0.25 0"/>
<feBlend mode="normal" in2="BackgroundImageFix" result="effect1_dropShadow_1013_1378"/>
<feBlend mode="normal" in="SourceGraphic" in2="effect1_dropShadow_1013_1378" result="shape"/>
</filter>
<clipPath id="clip0_1013_1378">
<rect width="162.12" height="162.12" fill="white" transform="translate(167.545 70.502)"/>
</clipPath>
</defs>
</svg>
