<?xml version="1.0" encoding="UTF-8" standalone="no"?><!DOCTYPE svg PUBLIC "-//W3C//DTD SVG 1.1//EN" "http://www.w3.org/Graphics/SVG/1.1/DTD/svg11.dtd"><svg width="100%" height="100%" viewBox="0 0 1100 284" version="1.1" xmlns="http://www.w3.org/2000/svg" xmlns:xlink="http://www.w3.org/1999/xlink" xml:space="preserve" xmlns:serif="http://www.serif.com/" style="fill-rule:evenodd;clip-rule:evenodd;stroke-linejoin:round;stroke-miterlimit:2;"><g><path d="M623.718,256.452c-16.425,16.356 -36.477,24.534 -60.155,24.534c-23.678,-0 -43.729,-8.178 -60.154,-24.534c-16.426,-16.356 -24.638,-36.4 -24.638,-60.132c-0,-23.733 8.212,-43.777 24.638,-60.133c16.425,-16.356 36.476,-24.534 60.154,-24.534c23.678,0 43.73,8.178 60.155,24.534c16.425,16.356 24.638,36.4 24.638,60.133c-0,23.732 -8.213,43.776 -24.638,60.132Zm-86.392,-32.872c7.039,7.055 15.785,10.583 26.237,10.583c10.453,-0 19.199,-3.528 26.238,-10.583c7.039,-7.056 10.559,-16.143 10.559,-27.26c0,-11.118 -3.52,-20.205 -10.559,-27.26c-7.039,-7.056 -15.785,-10.584 -26.238,-10.584c-10.452,0 -19.198,3.528 -26.237,10.584c-7.04,7.055 -10.559,16.142 -10.559,27.26c-0,11.117 3.519,20.204 10.559,27.26Z" style="fill:#fff;fill-rule:nonzero;"/><path d="M822.101,256.452c-16.425,16.356 -36.477,24.534 -60.155,24.534c-23.678,-0 -43.729,-8.178 -60.155,-24.534c-16.425,-16.356 -24.638,-36.4 -24.638,-60.132c0,-23.733 8.213,-43.777 24.638,-60.133c16.426,-16.356 36.477,-24.534 60.155,-24.534c23.678,0 43.73,8.178 60.155,24.534c16.425,16.356 24.638,36.4 24.638,60.133c-0,23.732 -8.213,43.776 -24.638,60.132Zm-86.393,-32.872c7.04,7.055 15.786,10.583 26.238,10.583c10.452,-0 19.198,-3.528 26.238,-10.583c7.039,-7.056 10.559,-16.143 10.559,-27.26c-0,-11.118 -3.52,-20.205 -10.559,-27.26c-7.04,-7.056 -15.786,-10.584 -26.238,-10.584c-10.452,0 -19.198,3.528 -26.238,10.584c-7.039,7.055 -10.559,16.142 -10.559,27.26c0,11.117 3.52,20.204 10.559,27.26Z" style="fill:#fff;fill-rule:nonzero;"/><rect x="883.535" y="42.381" width="47.996" height="234.116" style="fill:#fff;fill-rule:nonzero;"/><path d="M1020.16,162.966c0,3.207 2.72,5.826 8.16,7.857c5.439,2.032 11.999,4.063 19.678,6.094c7.679,2.031 15.359,4.65 23.038,7.857c7.679,3.207 14.239,8.499 19.678,15.875c5.44,7.376 8.16,16.623 8.16,27.741c-0,17.318 -6.4,30.414 -19.199,39.287c-12.799,8.873 -28.584,13.309 -47.356,13.309c-33.703,-0 -56.635,-12.721 -68.794,-38.164l41.597,-23.732c4.266,12.614 13.332,18.921 27.197,18.921c11.519,0 17.279,-3.314 17.279,-9.942c-0,-3.207 -2.72,-5.879 -8.159,-8.017c-5.44,-2.138 -11.999,-4.223 -19.679,-6.254c-7.679,-2.031 -15.358,-4.704 -23.038,-8.018c-7.679,-3.314 -14.238,-8.498 -19.678,-15.554c-5.439,-7.055 -8.159,-15.714 -8.159,-25.977c-0,-16.677 6.026,-29.612 18.078,-38.806c12.052,-9.193 26.931,-13.79 44.636,-13.79c13.226,0 25.278,2.94 36.157,8.82c10.879,5.879 19.625,14.378 26.238,25.496l-40.957,22.128c-5.119,-9.407 -12.265,-14.111 -21.438,-14.111c-8.959,0 -13.439,2.994 -13.439,8.98Z" style="fill:#fff;fill-rule:nonzero;"/><path d="M372.22,115.773l0,-30.097l47.996,-14.432l-0,44.899l32.957,-0l0,46.182l-32.957,-0l-0,56.765c-0,6.414 2.56,10.476 7.679,12.187c5.12,1.71 13.546,2.244 25.278,1.603l0,43.616c-30.504,3.207 -51.622,0.267 -63.354,-8.819c-11.733,-9.087 -17.599,-25.283 -17.599,-48.587l0,-57.445l37.656,-22.591l-37.656,-23.281Z" style="fill:#fff;fill-rule:nonzero;"/><path d="M267.817,68.491l-114.197,68.51l114.197,68.511l114.196,-68.511l-114.196,-68.51Z" style="fill:#dd3224;"/><path d="M218.159,224.076c-3.334,4.435 -6.975,8.72 -10.925,12.853c-25.287,26.467 -56.798,39.7 -94.533,39.7l-109.273,0l0,-275.148l109.273,-0c37.735,-0 69.246,13.233 94.533,39.7c3.111,3.255 6.03,6.604 8.758,10.046l-44.432,26.655c-0.226,-0.246 -0.454,-0.491 -0.684,-0.735c-14.937,-15.854 -34.328,-23.781 -58.175,-23.781l-55.03,-0l0,171.378l55.03,-0c23.847,-0 43.238,-7.927 58.175,-23.78c1.052,-1.118 2.068,-2.259 3.048,-3.425l44.235,26.537Z" style="fill:#fff;fill-rule:nonzero;"/></g></svg>