<svg width="60" height="34" viewBox="0 0 60 34" fill="none" xmlns="http://www.w3.org/2000/svg">
<path d="M27.9641 25.9695C27.3618 27.907 24.173 27.3953 24.1698 25.3299C24.1613 20.4355 24.1603 16.058 24.1666 12.1975C24.173 6.48461 20.4294 1.59857 14.7174 0.319344C6.89434 -1.43102 0.0126795 4.77169 0.0158493 12.2879C0.0158493 19.3248 0.0105674 26.5134 1.3411e-06 33.8539C1.3411e-06 33.8862 0.0130224 33.9171 0.0362061 33.9399C0.0593899 33.9628 0.0908373 33.9756 0.123624 33.9756H6.69464C6.81932 33.9756 6.88166 33.9142 6.88166 33.7915C6.87955 26.4219 6.88271 19.2488 6.89117 12.2723C6.89117 10.7019 7.3286 9.45804 8.20347 8.54074C10.9073 5.70771 15.624 6.57509 16.9712 10.3005C17.1656 10.8392 17.2649 11.5724 17.2691 12.5001C17.2797 16.1215 17.267 19.746 17.2311 23.3736C17.2121 25.3829 17.3463 26.8389 17.6337 27.7417C19.2344 32.7276 24.6706 35.3827 29.6504 33.2673C31.5565 32.4582 32.9607 31.2226 33.8631 29.5607C34.309 28.7432 34.8795 27.1551 35.5748 24.7963C37.1195 19.5588 38.715 14.239 40.3612 8.83715C41.179 6.16324 44.4344 6.16324 45.2395 8.84651C47.7479 17.175 50.2668 25.5108 52.7963 33.8539C52.8238 33.9433 52.8851 33.9881 52.9802 33.9881L59.8777 33.9912C59.8968 33.991 59.9156 33.9864 59.9326 33.9779C59.9496 33.9693 59.9644 33.957 59.9757 33.9419C59.9871 33.9268 59.9948 33.9093 59.9981 33.8908C60.0014 33.8722 60.0004 33.8532 59.995 33.8352C57.3683 25.1905 54.7025 16.3544 51.9976 7.32703C51.5707 5.90012 51.091 4.81433 50.5585 4.06968C47.7437 0.125901 42.5262 -1.18453 38.2659 1.17425C35.318 2.80916 34.2181 5.1773 33.2355 8.51266C31.4244 14.6571 29.6673 20.4761 27.9641 25.9695Z" fill="white"/>
</svg>
