<svg width="469" height="449" viewBox="0 0 469 449" fill="none" xmlns="http://www.w3.org/2000/svg">
<ellipse cx="232.5" cy="25" rx="24.5" ry="25" fill="#5ECEB8"/>
<ellipse cx="232.5" cy="125" rx="24.5" ry="25" fill="#5ECEB8"/>
<circle cx="340" cy="59" r="25" fill="#5ECEB8"/>
<circle cx="125" cy="59" r="25" fill="#5ECEB8"/>
<circle cx="340" cy="390" r="25" fill="#5ECEB8"/>
<circle cx="125" cy="390" r="25" fill="#5ECEB8"/>
<circle cx="324" cy="175" r="25" fill="#5ECEB8"/>
<circle cx="141" cy="175" r="25" fill="#5ECEB8"/>
<circle cx="324" cy="274" r="25" fill="#5ECEB8"/>
<circle cx="408" cy="324" r="25" fill="#5ECEB8"/>
<circle cx="408" cy="125" r="25" fill="#5ECEB8"/>
<ellipse cx="442.51" cy="225" rx="25.5102" ry="25" fill="#5ECEB8"/>
<ellipse cx="25.5102" cy="225" rx="25.5102" ry="25" fill="#5ECEB8"/>
<circle cx="59" cy="125" r="25" fill="#5ECEB8"/>
<circle cx="59" cy="324" r="25" fill="#5ECEB8"/>
<circle cx="141" cy="274" r="25" fill="#5ECEB8"/>
<circle cx="233" cy="225" r="25" fill="#5ECEB8"/>
<ellipse cx="232.5" cy="324" rx="24.5" ry="25" fill="#5ECEB8"/>
<ellipse cx="232.5" cy="424" rx="24.5" ry="25" fill="#5ECEB8"/>
</svg>
