<svg width="3253" height="300" viewBox="0 0 3253 300" fill="none" xmlns="http://www.w3.org/2000/svg">
<path d="M301.418 54.9035L210.518 109.44L119.612 54.9035L210.518 0.367334L301.418 54.9035Z" fill="white" stroke="white" stroke-width="0.629988"/>
<path d="M1009.42 54.9035L918.518 109.44L827.612 54.9035L918.518 0.367334L1009.42 54.9035Z" fill="white" stroke="white" stroke-width="0.629988"/>
<path d="M1717.42 54.9035L1626.52 109.44L1535.61 54.9035L1626.52 0.367334L1717.42 54.9035Z" fill="white" stroke="white" stroke-width="0.629988"/>
<path d="M2425.42 54.9035L2334.52 109.44L2243.61 54.9035L2334.52 0.367334L2425.42 54.9035Z" fill="white" stroke="white" stroke-width="0.629988"/>
<path d="M3133.42 54.9035L3042.52 109.44L2951.61 54.9035L3042.52 0.367334L3133.42 54.9035Z" fill="white" stroke="white" stroke-width="0.629988"/>
<line x1="211" y1="56" x2="3114" y2="56" stroke="white" stroke-width="8"/>
<path d="M36.8296 217.48C34.2696 217.48 31.8856 217.064 29.6776 216.232C27.5016 215.368 25.5976 214.168 23.9656 212.632C22.3656 211.064 21.1176 209.224 20.2216 207.112C19.3256 205 18.8776 202.696 18.8776 200.2C18.8776 197.704 19.3256 195.4 20.2216 193.288C21.1176 191.176 22.3816 189.352 24.0136 187.816C25.6456 186.248 27.5496 185.048 29.7256 184.216C31.9016 183.352 34.2856 182.92 36.8776 182.92C39.6296 182.92 42.1416 183.4 44.4136 184.36C46.6856 185.288 48.6056 186.68 50.1736 188.536L46.1416 192.328C44.9256 191.016 43.5656 190.04 42.0616 189.4C40.5576 188.728 38.9256 188.392 37.1656 188.392C35.4056 188.392 33.7896 188.68 32.3176 189.256C30.8776 189.832 29.6136 190.648 28.5256 191.704C27.4696 192.76 26.6376 194.008 26.0296 195.448C25.4536 196.888 25.1656 198.472 25.1656 200.2C25.1656 201.928 25.4536 203.512 26.0296 204.952C26.6376 206.392 27.4696 207.64 28.5256 208.696C29.6136 209.752 30.8776 210.568 32.3176 211.144C33.7896 211.72 35.4056 212.008 37.1656 212.008C38.9256 212.008 40.5576 211.688 42.0616 211.048C43.5656 210.376 44.9256 209.368 46.1416 208.024L50.1736 211.864C48.6056 213.688 46.6856 215.08 44.4136 216.04C42.1416 217 39.6136 217.48 36.8296 217.48ZM66.1123 217.336C63.4883 217.336 61.1523 216.776 59.1043 215.656C57.0563 214.504 55.4403 212.936 54.2563 210.952C53.0723 208.968 52.4803 206.712 52.4803 204.184C52.4803 201.624 53.0723 199.368 54.2563 197.416C55.4403 195.432 57.0563 193.88 59.1043 192.76C61.1523 191.64 63.4883 191.08 66.1123 191.08C68.7683 191.08 71.1203 191.64 73.1683 192.76C75.2483 193.88 76.8643 195.416 78.0163 197.368C79.2003 199.32 79.7923 201.592 79.7923 204.184C79.7923 206.712 79.2003 208.968 78.0163 210.952C76.8643 212.936 75.2483 214.504 73.1683 215.656C71.1203 216.776 68.7683 217.336 66.1123 217.336ZM66.1123 212.2C67.5843 212.2 68.8963 211.88 70.0483 211.24C71.2003 210.6 72.0963 209.672 72.7363 208.456C73.4083 207.24 73.7443 205.816 73.7443 204.184C73.7443 202.52 73.4083 201.096 72.7363 199.912C72.0963 198.696 71.2003 197.768 70.0483 197.128C68.8963 196.488 67.6003 196.168 66.1603 196.168C64.6883 196.168 63.3763 196.488 62.2243 197.128C61.1043 197.768 60.2083 198.696 59.5363 199.912C58.8643 201.096 58.5283 202.52 58.5283 204.184C58.5283 205.816 58.8643 207.24 59.5363 208.456C60.2083 209.672 61.1043 210.6 62.2243 211.24C63.3763 211.88 64.6723 212.2 66.1123 212.2ZM100.074 191.08C102.122 191.08 103.946 191.48 105.546 192.28C107.178 193.08 108.458 194.312 109.386 195.976C110.314 197.608 110.778 199.72 110.778 202.312V217H104.778V203.08C104.778 200.808 104.234 199.112 103.146 197.992C102.09 196.872 100.602 196.312 98.6818 196.312C97.2738 196.312 96.0258 196.6 94.9378 197.176C93.8498 197.752 93.0018 198.616 92.3938 199.768C91.8178 200.888 91.5298 202.312 91.5298 204.04V217H85.5298V191.368H91.2418V198.28L90.2338 196.168C91.1298 194.536 92.4258 193.288 94.1218 192.424C95.8498 191.528 97.8338 191.08 100.074 191.08ZM128.037 217.336C125.221 217.336 123.045 216.616 121.509 215.176C119.973 213.704 119.205 211.544 119.205 208.696V185.704H125.205V208.552C125.205 209.768 125.509 210.712 126.117 211.384C126.757 212.056 127.637 212.392 128.757 212.392C130.101 212.392 131.221 212.04 132.117 211.336L133.797 215.608C133.093 216.184 132.229 216.616 131.205 216.904C130.181 217.192 129.125 217.336 128.037 217.336ZM114.981 196.36V191.56H132.069V196.36H114.981ZM154.525 217V211.816L154.189 210.712V201.64C154.189 199.88 153.661 198.52 152.605 197.56C151.549 196.568 149.949 196.072 147.805 196.072C146.365 196.072 144.941 196.296 143.533 196.744C142.157 197.192 140.989 197.816 140.029 198.616L137.677 194.248C139.053 193.192 140.685 192.408 142.573 191.896C144.493 191.352 146.477 191.08 148.525 191.08C152.237 191.08 155.101 191.976 157.117 193.768C159.165 195.528 160.189 198.264 160.189 201.976V217H154.525ZM146.461 217.336C144.541 217.336 142.861 217.016 141.421 216.376C139.981 215.704 138.861 214.792 138.061 213.64C137.293 212.456 136.909 211.128 136.909 209.656C136.909 208.216 137.245 206.92 137.917 205.768C138.621 204.616 139.757 203.704 141.325 203.032C142.893 202.36 144.973 202.024 147.565 202.024H155.005V206.008H147.997C145.949 206.008 144.573 206.344 143.869 207.016C143.165 207.656 142.813 208.456 142.813 209.416C142.813 210.504 143.245 211.368 144.109 212.008C144.973 212.648 146.173 212.968 147.709 212.968C149.181 212.968 150.493 212.632 151.645 211.96C152.829 211.288 153.677 210.296 154.189 208.984L155.197 212.584C154.621 214.088 153.581 215.256 152.077 216.088C150.605 216.92 148.733 217.336 146.461 217.336ZM179.696 217.336C177.008 217.336 174.608 216.776 172.496 215.656C170.416 214.504 168.784 212.936 167.6 210.952C166.416 208.968 165.824 206.712 165.824 204.184C165.824 201.624 166.416 199.368 167.6 197.416C168.784 195.432 170.416 193.88 172.496 192.76C174.608 191.64 177.008 191.08 179.696 191.08C182.192 191.08 184.384 191.592 186.272 192.616C188.192 193.608 189.648 195.08 190.64 197.032L186.032 199.72C185.264 198.504 184.32 197.608 183.2 197.032C182.112 196.456 180.928 196.168 179.648 196.168C178.176 196.168 176.848 196.488 175.664 197.128C174.48 197.768 173.552 198.696 172.88 199.912C172.208 201.096 171.872 202.52 171.872 204.184C171.872 205.848 172.208 207.288 172.88 208.504C173.552 209.688 174.48 210.6 175.664 211.24C176.848 211.88 178.176 212.2 179.648 212.2C180.928 212.2 182.112 211.912 183.2 211.336C184.32 210.76 185.264 209.864 186.032 208.648L190.64 211.336C189.648 213.256 188.192 214.744 186.272 215.8C184.384 216.824 182.192 217.336 179.696 217.336ZM205.803 217.336C202.987 217.336 200.811 216.616 199.275 215.176C197.739 213.704 196.971 211.544 196.971 208.696V185.704H202.971V208.552C202.971 209.768 203.275 210.712 203.883 211.384C204.523 212.056 205.403 212.392 206.523 212.392C207.867 212.392 208.987 212.04 209.883 211.336L211.563 215.608C210.859 216.184 209.995 216.616 208.971 216.904C207.947 217.192 206.891 217.336 205.803 217.336ZM192.747 196.36V191.56H209.835V196.36H192.747ZM227.175 217.336C224.551 217.336 222.215 216.776 220.167 215.656C218.119 214.504 216.503 212.936 215.319 210.952C214.135 208.968 213.543 206.712 213.543 204.184C213.543 201.624 214.135 199.368 215.319 197.416C216.503 195.432 218.119 193.88 220.167 192.76C222.215 191.64 224.551 191.08 227.175 191.08C229.831 191.08 232.183 191.64 234.231 192.76C236.311 193.88 237.927 195.416 239.079 197.368C240.263 199.32 240.855 201.592 240.855 204.184C240.855 206.712 240.263 208.968 239.079 210.952C237.927 212.936 236.311 214.504 234.231 215.656C232.183 216.776 229.831 217.336 227.175 217.336ZM227.175 212.2C228.647 212.2 229.959 211.88 231.111 211.24C232.263 210.6 233.159 209.672 233.799 208.456C234.471 207.24 234.807 205.816 234.807 204.184C234.807 202.52 234.471 201.096 233.799 199.912C233.159 198.696 232.263 197.768 231.111 197.128C229.959 196.488 228.663 196.168 227.223 196.168C225.751 196.168 224.439 196.488 223.287 197.128C222.167 197.768 221.271 198.696 220.599 199.912C219.927 201.096 219.591 202.52 219.591 204.184C219.591 205.816 219.927 207.24 220.599 208.456C221.271 209.672 222.167 210.6 223.287 211.24C224.439 211.88 225.735 212.2 227.175 212.2ZM271.618 217.336C268.93 217.336 266.53 216.776 264.418 215.656C262.338 214.504 260.706 212.936 259.522 210.952C258.338 208.968 257.746 206.712 257.746 204.184C257.746 201.624 258.338 199.368 259.522 197.416C260.706 195.432 262.338 193.88 264.418 192.76C266.53 191.64 268.93 191.08 271.618 191.08C274.114 191.08 276.306 191.592 278.194 192.616C280.114 193.608 281.57 195.08 282.562 197.032L277.954 199.72C277.186 198.504 276.242 197.608 275.122 197.032C274.034 196.456 272.85 196.168 271.57 196.168C270.098 196.168 268.77 196.488 267.586 197.128C266.402 197.768 265.474 198.696 264.802 199.912C264.13 201.096 263.794 202.52 263.794 204.184C263.794 205.848 264.13 207.288 264.802 208.504C265.474 209.688 266.402 210.6 267.586 211.24C268.77 211.88 270.098 212.2 271.57 212.2C272.85 212.2 274.034 211.912 275.122 211.336C276.242 210.76 277.186 209.864 277.954 208.648L282.562 211.336C281.57 213.256 280.114 214.744 278.194 215.8C276.306 216.824 274.114 217.336 271.618 217.336ZM298.894 217.336C296.27 217.336 293.934 216.776 291.886 215.656C289.838 214.504 288.222 212.936 287.038 210.952C285.854 208.968 285.262 206.712 285.262 204.184C285.262 201.624 285.854 199.368 287.038 197.416C288.222 195.432 289.838 193.88 291.886 192.76C293.934 191.64 296.27 191.08 298.894 191.08C301.55 191.08 303.902 191.64 305.95 192.76C308.03 193.88 309.646 195.416 310.798 197.368C311.982 199.32 312.574 201.592 312.574 204.184C312.574 206.712 311.982 208.968 310.798 210.952C309.646 212.936 308.03 214.504 305.95 215.656C303.902 216.776 301.55 217.336 298.894 217.336ZM298.894 212.2C300.366 212.2 301.678 211.88 302.83 211.24C303.982 210.6 304.878 209.672 305.518 208.456C306.19 207.24 306.526 205.816 306.526 204.184C306.526 202.52 306.19 201.096 305.518 199.912C304.878 198.696 303.982 197.768 302.83 197.128C301.678 196.488 300.382 196.168 298.942 196.168C297.47 196.168 296.158 196.488 295.006 197.128C293.886 197.768 292.99 198.696 292.318 199.912C291.646 201.096 291.31 202.52 291.31 204.184C291.31 205.816 291.646 207.24 292.318 208.456C292.99 209.672 293.886 210.6 295.006 211.24C296.158 211.88 297.454 212.2 298.894 212.2ZM332.855 191.08C334.903 191.08 336.727 191.48 338.327 192.28C339.959 193.08 341.239 194.312 342.167 195.976C343.095 197.608 343.559 199.72 343.559 202.312V217H337.559V203.08C337.559 200.808 337.015 199.112 335.927 197.992C334.871 196.872 333.383 196.312 331.463 196.312C330.055 196.312 328.807 196.6 327.719 197.176C326.631 197.752 325.783 198.616 325.175 199.768C324.599 200.888 324.311 202.312 324.311 204.04V217H318.311V191.368H324.023V198.28L323.015 196.168C323.911 194.536 325.207 193.288 326.903 192.424C328.631 191.528 330.615 191.08 332.855 191.08ZM376.484 217.336C373.636 217.336 371.14 216.776 368.996 215.656C366.884 214.504 365.236 212.936 364.052 210.952C362.9 208.968 362.324 206.712 362.324 204.184C362.324 201.624 362.884 199.368 364.004 197.416C365.156 195.432 366.724 193.88 368.708 192.76C370.724 191.64 373.012 191.08 375.572 191.08C378.068 191.08 380.292 191.624 382.244 192.712C384.196 193.8 385.732 195.336 386.852 197.32C387.972 199.304 388.532 201.64 388.532 204.328C388.532 204.584 388.516 204.872 388.484 205.192C388.484 205.512 388.468 205.816 388.436 206.104H367.076V202.12H385.268L382.916 203.368C382.948 201.896 382.644 200.6 382.004 199.48C381.364 198.36 380.484 197.48 379.364 196.84C378.276 196.2 377.012 195.88 375.572 195.88C374.1 195.88 372.804 196.2 371.684 196.84C370.596 197.48 369.732 198.376 369.092 199.528C368.484 200.648 368.18 201.976 368.18 203.512V204.472C368.18 206.008 368.532 207.368 369.236 208.552C369.94 209.736 370.932 210.648 372.212 211.288C373.492 211.928 374.964 212.248 376.628 212.248C378.068 212.248 379.364 212.024 380.516 211.576C381.668 211.128 382.692 210.424 383.588 209.464L386.804 213.16C385.652 214.504 384.196 215.544 382.436 216.28C380.708 216.984 378.724 217.336 376.484 217.336ZM394.295 217V181.384H400.295V217H394.295ZM143.212 276.48C140.652 276.48 138.268 276.064 136.06 275.232C133.884 274.368 131.98 273.168 130.348 271.632C128.748 270.064 127.5 268.224 126.604 266.112C125.708 264 125.26 261.696 125.26 259.2C125.26 256.704 125.708 254.4 126.604 252.288C127.5 250.176 128.764 248.352 130.396 246.816C132.028 245.248 133.932 244.048 136.108 243.216C138.284 242.352 140.668 241.92 143.26 241.92C146.012 241.92 148.524 242.4 150.796 243.36C153.068 244.288 154.988 245.68 156.556 247.536L152.524 251.328C151.308 250.016 149.948 249.04 148.444 248.4C146.94 247.728 145.308 247.392 143.548 247.392C141.788 247.392 140.172 247.68 138.7 248.256C137.26 248.832 135.996 249.648 134.908 250.704C133.852 251.76 133.02 253.008 132.412 254.448C131.836 255.888 131.548 257.472 131.548 259.2C131.548 260.928 131.836 262.512 132.412 263.952C133.02 265.392 133.852 266.64 134.908 267.696C135.996 268.752 137.26 269.568 138.7 270.144C140.172 270.72 141.788 271.008 143.548 271.008C145.308 271.008 146.94 270.688 148.444 270.048C149.948 269.376 151.308 268.368 152.524 267.024L156.556 270.864C154.988 272.688 153.068 274.08 150.796 275.04C148.524 276 145.996 276.48 143.212 276.48ZM161.959 276V240.384H167.959V276H161.959ZM175.834 276V250.368H181.834V276H175.834ZM178.858 246.144C177.738 246.144 176.81 245.792 176.074 245.088C175.37 244.384 175.018 243.536 175.018 242.544C175.018 241.52 175.37 240.672 176.074 240C176.81 239.296 177.738 238.944 178.858 238.944C179.978 238.944 180.89 239.28 181.594 239.952C182.33 240.592 182.698 241.408 182.698 242.4C182.698 243.456 182.346 244.352 181.642 245.088C180.938 245.792 180.01 246.144 178.858 246.144ZM201.757 276.336C198.909 276.336 196.413 275.776 194.269 274.656C192.157 273.504 190.509 271.936 189.325 269.952C188.173 267.968 187.597 265.712 187.597 263.184C187.597 260.624 188.157 258.368 189.277 256.416C190.429 254.432 191.997 252.88 193.981 251.76C195.997 250.64 198.285 250.08 200.845 250.08C203.341 250.08 205.565 250.624 207.517 251.712C209.469 252.8 211.005 254.336 212.125 256.32C213.245 258.304 213.805 260.64 213.805 263.328C213.805 263.584 213.789 263.872 213.757 264.192C213.757 264.512 213.741 264.816 213.709 265.104H192.349V261.12H210.541L208.189 262.368C208.221 260.896 207.917 259.6 207.277 258.48C206.637 257.36 205.757 256.48 204.637 255.84C203.549 255.2 202.285 254.88 200.845 254.88C199.373 254.88 198.077 255.2 196.957 255.84C195.869 256.48 195.005 257.376 194.365 258.528C193.757 259.648 193.453 260.976 193.453 262.512V263.472C193.453 265.008 193.805 266.368 194.509 267.552C195.213 268.736 196.205 269.648 197.485 270.288C198.765 270.928 200.237 271.248 201.901 271.248C203.341 271.248 204.637 271.024 205.789 270.576C206.941 270.128 207.965 269.424 208.861 268.464L212.077 272.16C210.925 273.504 209.469 274.544 207.709 275.28C205.981 275.984 203.997 276.336 201.757 276.336ZM234.113 250.08C236.161 250.08 237.985 250.48 239.585 251.28C241.217 252.08 242.497 253.312 243.425 254.976C244.353 256.608 244.817 258.72 244.817 261.312V276H238.817V262.08C238.817 259.808 238.273 258.112 237.185 256.992C236.129 255.872 234.641 255.312 232.721 255.312C231.313 255.312 230.065 255.6 228.977 256.176C227.889 256.752 227.041 257.616 226.433 258.768C225.857 259.888 225.569 261.312 225.569 263.04V276H219.569V250.368H225.281V257.28L224.273 255.168C225.169 253.536 226.465 252.288 228.161 251.424C229.889 250.528 231.873 250.08 234.113 250.08ZM262.076 276.336C259.26 276.336 257.084 275.616 255.548 274.176C254.012 272.704 253.244 270.544 253.244 267.696V244.704H259.244V267.552C259.244 268.768 259.548 269.712 260.156 270.384C260.796 271.056 261.676 271.392 262.796 271.392C264.14 271.392 265.26 271.04 266.156 270.336L267.836 274.608C267.132 275.184 266.268 275.616 265.244 275.904C264.22 276.192 263.164 276.336 262.076 276.336ZM249.02 255.36V250.56H266.108V255.36H249.02ZM283.976 276.336C281.128 276.336 278.632 275.776 276.488 274.656C274.376 273.504 272.728 271.936 271.544 269.952C270.392 267.968 269.816 265.712 269.816 263.184C269.816 260.624 270.376 258.368 271.496 256.416C272.648 254.432 274.216 252.88 276.2 251.76C278.216 250.64 280.504 250.08 283.064 250.08C285.56 250.08 287.784 250.624 289.736 251.712C291.688 252.8 293.224 254.336 294.344 256.32C295.464 258.304 296.024 260.64 296.024 263.328C296.024 263.584 296.008 263.872 295.976 264.192C295.976 264.512 295.96 264.816 295.928 265.104H274.568V261.12H292.76L290.408 262.368C290.44 260.896 290.136 259.6 289.496 258.48C288.856 257.36 287.976 256.48 286.856 255.84C285.768 255.2 284.504 254.88 283.064 254.88C281.592 254.88 280.296 255.2 279.176 255.84C278.088 256.48 277.224 257.376 276.584 258.528C275.976 259.648 275.672 260.976 275.672 262.512V263.472C275.672 265.008 276.024 266.368 276.728 267.552C277.432 268.736 278.424 269.648 279.704 270.288C280.984 270.928 282.456 271.248 284.12 271.248C285.56 271.248 286.856 271.024 288.008 270.576C289.16 270.128 290.184 269.424 291.08 268.464L294.296 272.16C293.144 273.504 291.688 274.544 289.928 275.28C288.2 275.984 286.216 276.336 283.976 276.336Z" fill="white"/>
<path d="M778.783 217L793.903 183.4H800.047L815.215 217H808.687L795.679 186.712H798.175L785.215 217H778.783ZM785.743 209.224L787.423 204.328H805.567L807.247 209.224H785.743ZM833.457 191.08C835.505 191.08 837.329 191.48 838.929 192.28C840.561 193.08 841.841 194.312 842.769 195.976C843.697 197.608 844.161 199.72 844.161 202.312V217H838.161V203.08C838.161 200.808 837.617 199.112 836.529 197.992C835.473 196.872 833.985 196.312 832.065 196.312C830.657 196.312 829.409 196.6 828.321 197.176C827.233 197.752 826.385 198.616 825.777 199.768C825.201 200.888 824.913 202.312 824.913 204.04V217H818.913V191.368H824.625V198.28L823.617 196.168C824.513 194.536 825.809 193.288 827.505 192.424C829.233 191.528 831.217 191.08 833.457 191.08ZM867.564 217V211.816L867.228 210.712V201.64C867.228 199.88 866.7 198.52 865.644 197.56C864.588 196.568 862.988 196.072 860.844 196.072C859.404 196.072 857.98 196.296 856.572 196.744C855.196 197.192 854.028 197.816 853.068 198.616L850.716 194.248C852.092 193.192 853.724 192.408 855.612 191.896C857.532 191.352 859.516 191.08 861.564 191.08C865.276 191.08 868.14 191.976 870.156 193.768C872.204 195.528 873.228 198.264 873.228 201.976V217H867.564ZM859.5 217.336C857.58 217.336 855.9 217.016 854.46 216.376C853.02 215.704 851.9 214.792 851.1 213.64C850.332 212.456 849.948 211.128 849.948 209.656C849.948 208.216 850.284 206.92 850.956 205.768C851.66 204.616 852.796 203.704 854.364 203.032C855.932 202.36 858.012 202.024 860.604 202.024H868.044V206.008H861.036C858.988 206.008 857.612 206.344 856.908 207.016C856.204 207.656 855.852 208.456 855.852 209.416C855.852 210.504 856.284 211.368 857.148 212.008C858.012 212.648 859.212 212.968 860.748 212.968C862.22 212.968 863.532 212.632 864.684 211.96C865.868 211.288 866.716 210.296 867.228 208.984L868.236 212.584C867.66 214.088 866.62 215.256 865.116 216.088C863.644 216.92 861.772 217.336 859.5 217.336ZM858.06 187.864L864.54 181.288H871.596L863.244 187.864H858.06ZM880.928 217V181.384H886.928V217H880.928ZM894.803 217V191.368H900.803V217H894.803ZM897.827 187.144C896.707 187.144 895.779 186.792 895.043 186.088C894.339 185.384 893.987 184.536 893.987 183.544C893.987 182.52 894.339 181.672 895.043 181C895.779 180.296 896.707 179.944 897.827 179.944C898.947 179.944 899.859 180.28 900.563 180.952C901.299 181.592 901.667 182.408 901.667 183.4C901.667 184.456 901.315 185.352 900.611 186.088C899.907 186.792 898.979 187.144 897.827 187.144ZM916.598 217.336C914.454 217.336 912.39 217.064 910.406 216.52C908.454 215.944 906.902 215.256 905.75 214.456L908.054 209.896C909.206 210.632 910.582 211.24 912.182 211.72C913.782 212.2 915.382 212.44 916.982 212.44C918.87 212.44 920.23 212.184 921.062 211.672C921.926 211.16 922.358 210.472 922.358 209.608C922.358 208.904 922.07 208.376 921.494 208.024C920.918 207.64 920.166 207.352 919.238 207.16C918.31 206.968 917.27 206.792 916.118 206.632C914.998 206.472 913.862 206.264 912.71 206.008C911.59 205.72 910.566 205.32 909.638 204.808C908.71 204.264 907.958 203.544 907.382 202.648C906.806 201.752 906.518 200.568 906.518 199.096C906.518 197.464 906.982 196.056 907.91 194.872C908.838 193.656 910.134 192.728 911.798 192.088C913.494 191.416 915.494 191.08 917.798 191.08C919.526 191.08 921.27 191.272 923.03 191.656C924.79 192.04 926.246 192.584 927.398 193.288L925.094 197.848C923.878 197.112 922.646 196.616 921.398 196.36C920.182 196.072 918.966 195.928 917.75 195.928C915.926 195.928 914.566 196.2 913.67 196.744C912.806 197.288 912.374 197.976 912.374 198.808C912.374 199.576 912.662 200.152 913.238 200.536C913.814 200.92 914.566 201.224 915.494 201.448C916.422 201.672 917.446 201.864 918.566 202.024C919.718 202.152 920.854 202.36 921.974 202.648C923.094 202.936 924.118 203.336 925.046 203.848C926.006 204.328 926.774 205.016 927.35 205.912C927.926 206.808 928.214 207.976 928.214 209.416C928.214 211.016 927.734 212.408 926.774 213.592C925.846 214.776 924.518 215.704 922.79 216.376C921.062 217.016 918.998 217.336 916.598 217.336ZM933.381 217V191.368H939.381V217H933.381ZM936.405 187.144C935.285 187.144 934.357 186.792 933.621 186.088C932.917 185.384 932.565 184.536 932.565 183.544C932.565 182.52 932.917 181.672 933.621 181C934.357 180.296 935.285 179.944 936.405 179.944C937.525 179.944 938.437 180.28 939.141 180.952C939.877 181.592 940.245 182.408 940.245 183.4C940.245 184.456 939.893 185.352 939.189 186.088C938.485 186.792 937.557 187.144 936.405 187.144ZM955.176 217.336C953.032 217.336 950.968 217.064 948.984 216.52C947.032 215.944 945.48 215.256 944.328 214.456L946.632 209.896C947.784 210.632 949.16 211.24 950.76 211.72C952.36 212.2 953.96 212.44 955.56 212.44C957.448 212.44 958.808 212.184 959.64 211.672C960.504 211.16 960.936 210.472 960.936 209.608C960.936 208.904 960.648 208.376 960.072 208.024C959.496 207.64 958.744 207.352 957.816 207.16C956.888 206.968 955.848 206.792 954.696 206.632C953.576 206.472 952.44 206.264 951.288 206.008C950.168 205.72 949.144 205.32 948.216 204.808C947.288 204.264 946.536 203.544 945.96 202.648C945.384 201.752 945.096 200.568 945.096 199.096C945.096 197.464 945.56 196.056 946.488 194.872C947.416 193.656 948.712 192.728 950.376 192.088C952.072 191.416 954.072 191.08 956.376 191.08C958.104 191.08 959.848 191.272 961.608 191.656C963.368 192.04 964.824 192.584 965.976 193.288L963.672 197.848C962.456 197.112 961.224 196.616 959.976 196.36C958.76 196.072 957.544 195.928 956.328 195.928C954.504 195.928 953.144 196.2 952.248 196.744C951.384 197.288 950.952 197.976 950.952 198.808C950.952 199.576 951.24 200.152 951.816 200.536C952.392 200.92 953.144 201.224 954.072 201.448C955 201.672 956.024 201.864 957.144 202.024C958.296 202.152 959.432 202.36 960.552 202.648C961.672 202.936 962.696 203.336 963.624 203.848C964.584 204.328 965.352 205.016 965.928 205.912C966.504 206.808 966.792 207.976 966.792 209.416C966.792 211.016 966.312 212.408 965.352 213.592C964.424 214.776 963.096 215.704 961.368 216.376C959.64 217.016 957.576 217.336 955.176 217.336ZM996.073 217.336C993.609 217.336 991.385 216.792 989.401 215.704C987.449 214.584 985.913 213.048 984.793 211.096C983.673 209.144 983.113 206.84 983.113 204.184C983.113 201.528 983.673 199.224 984.793 197.272C985.913 195.32 987.449 193.8 989.401 192.712C991.385 191.624 993.609 191.08 996.073 191.08C998.217 191.08 1000.14 191.56 1001.83 192.52C1003.53 193.448 1004.87 194.872 1005.87 196.792C1006.86 198.712 1007.35 201.176 1007.35 204.184C1007.35 207.16 1006.87 209.624 1005.91 211.576C1004.95 213.496 1003.63 214.936 1001.93 215.896C1000.23 216.856 998.281 217.336 996.073 217.336ZM996.793 212.2C998.233 212.2 999.513 211.88 1000.63 211.24C1001.79 210.6 1002.7 209.672 1003.37 208.456C1004.07 207.24 1004.43 205.816 1004.43 204.184C1004.43 202.52 1004.07 201.096 1003.37 199.912C1002.7 198.696 1001.79 197.768 1000.63 197.128C999.513 196.488 998.233 196.168 996.793 196.168C995.353 196.168 994.057 196.488 992.905 197.128C991.785 197.768 990.873 198.696 990.169 199.912C989.497 201.096 989.161 202.52 989.161 204.184C989.161 205.816 989.497 207.24 990.169 208.456C990.873 209.672 991.785 210.6 992.905 211.24C994.057 211.88 995.353 212.2 996.793 212.2ZM1004.57 217V210.952L1004.81 204.136L1004.33 197.32V181.384H1010.28V217H1004.57ZM1030.23 217.336C1027.38 217.336 1024.88 216.776 1022.74 215.656C1020.63 214.504 1018.98 212.936 1017.79 210.952C1016.64 208.968 1016.07 206.712 1016.07 204.184C1016.07 201.624 1016.63 199.368 1017.75 197.416C1018.9 195.432 1020.47 193.88 1022.45 192.76C1024.47 191.64 1026.75 191.08 1029.31 191.08C1031.81 191.08 1034.03 191.624 1035.99 192.712C1037.94 193.8 1039.47 195.336 1040.59 197.32C1041.71 199.304 1042.27 201.64 1042.27 204.328C1042.27 204.584 1042.26 204.872 1042.23 205.192C1042.23 205.512 1042.21 205.816 1042.18 206.104H1020.82V202.12H1039.01L1036.66 203.368C1036.69 201.896 1036.39 200.6 1035.75 199.48C1035.11 198.36 1034.23 197.48 1033.11 196.84C1032.02 196.2 1030.75 195.88 1029.31 195.88C1027.84 195.88 1026.55 196.2 1025.43 196.84C1024.34 197.48 1023.47 198.376 1022.83 199.528C1022.23 200.648 1021.92 201.976 1021.92 203.512V204.472C1021.92 206.008 1022.27 207.368 1022.98 208.552C1023.68 209.736 1024.67 210.648 1025.95 211.288C1027.23 211.928 1028.71 212.248 1030.37 212.248C1031.81 212.248 1033.11 212.024 1034.26 211.576C1035.41 211.128 1036.43 210.424 1037.33 209.464L1040.55 213.16C1039.39 214.504 1037.94 215.544 1036.18 216.28C1034.45 216.984 1032.47 217.336 1030.23 217.336ZM1048.04 217V181.384H1054.04V217H1048.04ZM813.207 276V242.4H827.031C830.007 242.4 832.551 242.88 834.663 243.84C836.807 244.8 838.455 246.176 839.607 247.968C840.759 249.76 841.335 251.888 841.335 254.352C841.335 256.816 840.759 258.944 839.607 260.736C838.455 262.528 836.807 263.904 834.663 264.864C832.551 265.824 830.007 266.304 827.031 266.304H816.663L819.447 263.376V276H813.207ZM819.447 264.048L816.663 261.024H826.743C829.495 261.024 831.559 260.448 832.935 259.296C834.343 258.112 835.047 256.464 835.047 254.352C835.047 252.208 834.343 250.56 832.935 249.408C831.559 248.256 829.495 247.68 826.743 247.68H816.663L819.447 244.608V264.048ZM846.756 276V250.368H852.468V257.424L851.796 255.36C852.564 253.632 853.764 252.32 855.396 251.424C857.06 250.528 859.124 250.08 861.588 250.08V255.792C861.332 255.728 861.092 255.696 860.868 255.696C860.644 255.664 860.42 255.648 860.196 255.648C857.924 255.648 856.116 256.32 854.772 257.664C853.428 258.976 852.756 260.944 852.756 263.568V276H846.756ZM877.964 276.336C875.34 276.336 873.004 275.776 870.956 274.656C868.908 273.504 867.292 271.936 866.108 269.952C864.924 267.968 864.332 265.712 864.332 263.184C864.332 260.624 864.924 258.368 866.108 256.416C867.292 254.432 868.908 252.88 870.956 251.76C873.004 250.64 875.34 250.08 877.964 250.08C880.62 250.08 882.972 250.64 885.02 251.76C887.1 252.88 888.716 254.416 889.868 256.368C891.052 258.32 891.644 260.592 891.644 263.184C891.644 265.712 891.052 267.968 889.868 269.952C888.716 271.936 887.1 273.504 885.02 274.656C882.972 275.776 880.62 276.336 877.964 276.336ZM877.964 271.2C879.436 271.2 880.748 270.88 881.9 270.24C883.052 269.6 883.948 268.672 884.588 267.456C885.26 266.24 885.596 264.816 885.596 263.184C885.596 261.52 885.26 260.096 884.588 258.912C883.948 257.696 883.052 256.768 881.9 256.128C880.748 255.488 879.452 255.168 878.012 255.168C876.54 255.168 875.228 255.488 874.076 256.128C872.956 256.768 872.06 257.696 871.388 258.912C870.716 260.096 870.38 261.52 870.38 263.184C870.38 264.816 870.716 266.24 871.388 267.456C872.06 268.672 872.956 269.6 874.076 270.24C875.228 270.88 876.524 271.2 877.964 271.2ZM898.79 285.648C897.542 285.648 896.294 285.44 895.046 285.024C893.798 284.608 892.758 284.032 891.926 283.296L894.326 278.88C894.934 279.424 895.622 279.856 896.39 280.176C897.158 280.496 897.942 280.656 898.742 280.656C899.83 280.656 900.71 280.384 901.382 279.84C902.054 279.296 902.678 278.384 903.254 277.104L904.742 273.744L905.222 273.024L914.918 250.368H920.678L908.678 278.064C907.878 279.984 906.982 281.504 905.99 282.624C905.03 283.744 903.942 284.528 902.726 284.976C901.542 285.424 900.23 285.648 898.79 285.648ZM904.07 276.912L892.502 250.368H898.742L908.15 272.496L904.07 276.912ZM935.773 276.336C932.925 276.336 930.429 275.776 928.285 274.656C926.173 273.504 924.525 271.936 923.341 269.952C922.189 267.968 921.613 265.712 921.613 263.184C921.613 260.624 922.173 258.368 923.293 256.416C924.445 254.432 926.013 252.88 927.997 251.76C930.013 250.64 932.301 250.08 934.861 250.08C937.357 250.08 939.581 250.624 941.533 251.712C943.485 252.8 945.021 254.336 946.141 256.32C947.261 258.304 947.821 260.64 947.821 263.328C947.821 263.584 947.805 263.872 947.773 264.192C947.773 264.512 947.757 264.816 947.725 265.104H926.365V261.12H944.557L942.205 262.368C942.237 260.896 941.933 259.6 941.293 258.48C940.653 257.36 939.773 256.48 938.653 255.84C937.565 255.2 936.301 254.88 934.861 254.88C933.389 254.88 932.093 255.2 930.973 255.84C929.885 256.48 929.021 257.376 928.381 258.528C927.773 259.648 927.469 260.976 927.469 262.512V263.472C927.469 265.008 927.821 266.368 928.525 267.552C929.229 268.736 930.221 269.648 931.501 270.288C932.781 270.928 934.253 271.248 935.917 271.248C937.357 271.248 938.653 271.024 939.805 270.576C940.957 270.128 941.981 269.424 942.877 268.464L946.093 272.16C944.941 273.504 943.485 274.544 941.725 275.28C939.997 275.984 938.013 276.336 935.773 276.336ZM965.344 276.336C962.656 276.336 960.256 275.776 958.144 274.656C956.064 273.504 954.432 271.936 953.248 269.952C952.064 267.968 951.472 265.712 951.472 263.184C951.472 260.624 952.064 258.368 953.248 256.416C954.432 254.432 956.064 252.88 958.144 251.76C960.256 250.64 962.656 250.08 965.344 250.08C967.84 250.08 970.032 250.592 971.92 251.616C973.84 252.608 975.296 254.08 976.288 256.032L971.68 258.72C970.912 257.504 969.968 256.608 968.848 256.032C967.76 255.456 966.576 255.168 965.296 255.168C963.824 255.168 962.496 255.488 961.312 256.128C960.128 256.768 959.2 257.696 958.528 258.912C957.856 260.096 957.52 261.52 957.52 263.184C957.52 264.848 957.856 266.288 958.528 267.504C959.2 268.688 960.128 269.6 961.312 270.24C962.496 270.88 963.824 271.2 965.296 271.2C966.576 271.2 967.76 270.912 968.848 270.336C969.968 269.76 970.912 268.864 971.68 267.648L976.288 270.336C975.296 272.256 973.84 273.744 971.92 274.8C970.032 275.824 967.84 276.336 965.344 276.336ZM991.451 276.336C988.635 276.336 986.459 275.616 984.923 274.176C983.387 272.704 982.619 270.544 982.619 267.696V244.704H988.619V267.552C988.619 268.768 988.923 269.712 989.531 270.384C990.171 271.056 991.051 271.392 992.171 271.392C993.515 271.392 994.635 271.04 995.531 270.336L997.211 274.608C996.507 275.184 995.643 275.616 994.619 275.904C993.595 276.192 992.539 276.336 991.451 276.336ZM978.395 255.36V250.56H995.483V255.36H978.395ZM1012.82 276.336C1010.2 276.336 1007.86 275.776 1005.82 274.656C1003.77 273.504 1002.15 271.936 1000.97 269.952C999.783 267.968 999.191 265.712 999.191 263.184C999.191 260.624 999.783 258.368 1000.97 256.416C1002.15 254.432 1003.77 252.88 1005.82 251.76C1007.86 250.64 1010.2 250.08 1012.82 250.08C1015.48 250.08 1017.83 250.64 1019.88 251.76C1021.96 252.88 1023.58 254.416 1024.73 256.368C1025.91 258.32 1026.5 260.592 1026.5 263.184C1026.5 265.712 1025.91 267.968 1024.73 269.952C1023.58 271.936 1021.96 273.504 1019.88 274.656C1017.83 275.776 1015.48 276.336 1012.82 276.336ZM1012.82 271.2C1014.3 271.2 1015.61 270.88 1016.76 270.24C1017.91 269.6 1018.81 268.672 1019.45 267.456C1020.12 266.24 1020.46 264.816 1020.46 263.184C1020.46 261.52 1020.12 260.096 1019.45 258.912C1018.81 257.696 1017.91 256.768 1016.76 256.128C1015.61 255.488 1014.31 255.168 1012.87 255.168C1011.4 255.168 1010.09 255.488 1008.94 256.128C1007.82 256.768 1006.92 257.696 1006.25 258.912C1005.58 260.096 1005.24 261.52 1005.24 263.184C1005.24 264.816 1005.58 266.24 1006.25 267.456C1006.92 268.672 1007.82 269.6 1008.94 270.24C1010.09 270.88 1011.38 271.2 1012.82 271.2Z" fill="white"/>
<path d="M1474.54 229L1459.85 195.4H1466.62L1479.73 225.784H1475.84L1489.09 195.4H1495.33L1480.69 229H1474.54ZM1512.17 229V223.816L1511.83 222.712V213.64C1511.83 211.88 1511.3 210.52 1510.25 209.56C1509.19 208.568 1507.59 208.072 1505.45 208.072C1504.01 208.072 1502.58 208.296 1501.17 208.744C1499.8 209.192 1498.63 209.816 1497.67 210.616L1495.32 206.248C1496.69 205.192 1498.33 204.408 1500.21 203.896C1502.13 203.352 1504.12 203.08 1506.17 203.08C1509.88 203.08 1512.74 203.976 1514.76 205.768C1516.81 207.528 1517.83 210.264 1517.83 213.976V229H1512.17ZM1504.1 229.336C1502.18 229.336 1500.5 229.016 1499.06 228.376C1497.62 227.704 1496.5 226.792 1495.7 225.64C1494.93 224.456 1494.55 223.128 1494.55 221.656C1494.55 220.216 1494.89 218.92 1495.56 217.768C1496.26 216.616 1497.4 215.704 1498.97 215.032C1500.53 214.36 1502.61 214.024 1505.21 214.024H1512.65V218.008H1505.64C1503.59 218.008 1502.21 218.344 1501.51 219.016C1500.81 219.656 1500.45 220.456 1500.45 221.416C1500.45 222.504 1500.89 223.368 1501.75 224.008C1502.61 224.648 1503.81 224.968 1505.35 224.968C1506.82 224.968 1508.13 224.632 1509.29 223.96C1510.47 223.288 1511.32 222.296 1511.83 220.984L1512.84 224.584C1512.26 226.088 1511.22 227.256 1509.72 228.088C1508.25 228.92 1506.37 229.336 1504.1 229.336ZM1525.53 229V193.384H1531.53V229H1525.53ZM1539.4 229V203.368H1545.4V229H1539.4ZM1542.43 199.144C1541.31 199.144 1540.38 198.792 1539.64 198.088C1538.94 197.384 1538.59 196.536 1538.59 195.544C1538.59 194.52 1538.94 193.672 1539.64 193C1540.38 192.296 1541.31 191.944 1542.43 191.944C1543.55 191.944 1544.46 192.28 1545.16 192.952C1545.9 193.592 1546.27 194.408 1546.27 195.4C1546.27 196.456 1545.92 197.352 1545.21 198.088C1544.51 198.792 1543.58 199.144 1542.43 199.144ZM1564.13 229.336C1561.66 229.336 1559.44 228.792 1557.46 227.704C1555.5 226.584 1553.97 225.048 1552.85 223.096C1551.73 221.144 1551.17 218.84 1551.17 216.184C1551.17 213.528 1551.73 211.224 1552.85 209.272C1553.97 207.32 1555.5 205.8 1557.46 204.712C1559.44 203.624 1561.66 203.08 1564.13 203.08C1566.27 203.08 1568.19 203.56 1569.89 204.52C1571.58 205.448 1572.93 206.872 1573.92 208.792C1574.91 210.712 1575.41 213.176 1575.41 216.184C1575.41 219.16 1574.93 221.624 1573.97 223.576C1573.01 225.496 1571.68 226.936 1569.98 227.896C1568.29 228.856 1566.34 229.336 1564.13 229.336ZM1564.85 224.2C1566.29 224.2 1567.57 223.88 1568.69 223.24C1569.84 222.6 1570.75 221.672 1571.42 220.456C1572.13 219.24 1572.48 217.816 1572.48 216.184C1572.48 214.52 1572.13 213.096 1571.42 211.912C1570.75 210.696 1569.84 209.768 1568.69 209.128C1567.57 208.488 1566.29 208.168 1564.85 208.168C1563.41 208.168 1562.11 208.488 1560.96 209.128C1559.84 209.768 1558.93 210.696 1558.22 211.912C1557.55 213.096 1557.22 214.52 1557.22 216.184C1557.22 217.816 1557.55 219.24 1558.22 220.456C1558.93 221.672 1559.84 222.6 1560.96 223.24C1562.11 223.88 1563.41 224.2 1564.85 224.2ZM1572.62 229V222.952L1572.86 216.136L1572.38 209.32V193.384H1578.34V229H1572.62ZM1602.02 229V223.816L1601.69 222.712V213.64C1601.69 211.88 1601.16 210.52 1600.1 209.56C1599.05 208.568 1597.45 208.072 1595.3 208.072C1593.86 208.072 1592.44 208.296 1591.03 208.744C1589.66 209.192 1588.49 209.816 1587.53 210.616L1585.18 206.248C1586.55 205.192 1588.18 204.408 1590.07 203.896C1591.99 203.352 1593.98 203.08 1596.02 203.08C1599.74 203.08 1602.6 203.976 1604.62 205.768C1606.66 207.528 1607.69 210.264 1607.69 213.976V229H1602.02ZM1593.96 229.336C1592.04 229.336 1590.36 229.016 1588.92 228.376C1587.48 227.704 1586.36 226.792 1585.56 225.64C1584.79 224.456 1584.41 223.128 1584.41 221.656C1584.41 220.216 1584.74 218.92 1585.42 217.768C1586.12 216.616 1587.26 215.704 1588.82 215.032C1590.39 214.36 1592.47 214.024 1595.06 214.024H1602.5V218.008H1595.5C1593.45 218.008 1592.07 218.344 1591.37 219.016C1590.66 219.656 1590.31 220.456 1590.31 221.416C1590.31 222.504 1590.74 223.368 1591.61 224.008C1592.47 224.648 1593.67 224.968 1595.21 224.968C1596.68 224.968 1597.99 224.632 1599.14 223.96C1600.33 223.288 1601.18 222.296 1601.69 220.984L1602.7 224.584C1602.12 226.088 1601.08 227.256 1599.58 228.088C1598.1 228.92 1596.23 229.336 1593.96 229.336ZM1627.2 229.336C1624.51 229.336 1622.11 228.776 1620 227.656C1617.92 226.504 1616.28 224.936 1615.1 222.952C1613.92 220.968 1613.32 218.712 1613.32 216.184C1613.32 213.624 1613.92 211.368 1615.1 209.416C1616.28 207.432 1617.92 205.88 1620 204.76C1622.11 203.64 1624.51 203.08 1627.2 203.08C1629.69 203.08 1631.88 203.592 1633.77 204.616C1635.69 205.608 1637.15 207.08 1638.14 209.032L1633.53 211.72C1632.76 210.504 1631.82 209.608 1630.7 209.032C1629.61 208.456 1628.43 208.168 1627.15 208.168C1625.68 208.168 1624.35 208.488 1623.16 209.128C1621.98 209.768 1621.05 210.696 1620.38 211.912C1619.71 213.096 1619.37 214.52 1619.37 216.184C1619.37 217.848 1619.71 219.288 1620.38 220.504C1621.05 221.688 1621.98 222.6 1623.16 223.24C1624.35 223.88 1625.68 224.2 1627.15 224.2C1628.43 224.2 1629.61 223.912 1630.7 223.336C1631.82 222.76 1632.76 221.864 1633.53 220.648L1638.14 223.336C1637.15 225.256 1635.69 226.744 1633.77 227.8C1631.88 228.824 1629.69 229.336 1627.2 229.336ZM1643.09 229V203.368H1649.09V229H1643.09ZM1646.12 199.144C1645 199.144 1644.07 198.792 1643.33 198.088C1642.63 197.384 1642.28 196.536 1642.28 195.544C1642.28 194.52 1642.63 193.672 1643.33 193C1644.07 192.296 1645 191.944 1646.12 191.944C1647.24 191.944 1648.15 192.28 1648.85 192.952C1649.59 193.592 1649.96 194.408 1649.96 195.4C1649.96 196.456 1649.6 197.352 1648.9 198.088C1648.2 198.792 1647.27 199.144 1646.12 199.144ZM1668.49 229.336C1665.86 229.336 1663.53 228.776 1661.48 227.656C1659.43 226.504 1657.82 224.936 1656.63 222.952C1655.45 220.968 1654.86 218.712 1654.86 216.184C1654.86 213.624 1655.45 211.368 1656.63 209.416C1657.82 207.432 1659.43 205.88 1661.48 204.76C1663.53 203.64 1665.86 203.08 1668.49 203.08C1671.14 203.08 1673.5 203.64 1675.54 204.76C1677.62 205.88 1679.24 207.416 1680.39 209.368C1681.58 211.32 1682.17 213.592 1682.17 216.184C1682.17 218.712 1681.58 220.968 1680.39 222.952C1679.24 224.936 1677.62 226.504 1675.54 227.656C1673.5 228.776 1671.14 229.336 1668.49 229.336ZM1668.49 224.2C1669.96 224.2 1671.27 223.88 1672.42 223.24C1673.58 222.6 1674.47 221.672 1675.11 220.456C1675.78 219.24 1676.12 217.816 1676.12 216.184C1676.12 214.52 1675.78 213.096 1675.11 211.912C1674.47 210.696 1673.58 209.768 1672.42 209.128C1671.27 208.488 1669.98 208.168 1668.54 208.168C1667.06 208.168 1665.75 208.488 1664.6 209.128C1663.48 209.768 1662.58 210.696 1661.91 211.912C1661.24 213.096 1660.9 214.52 1660.9 216.184C1660.9 217.816 1661.24 219.24 1661.91 220.456C1662.58 221.672 1663.48 222.6 1664.6 223.24C1665.75 223.88 1667.05 224.2 1668.49 224.2ZM1664.41 199.864L1670.89 193.288H1677.94L1669.59 199.864H1664.41ZM1702.45 203.08C1704.5 203.08 1706.32 203.48 1707.92 204.28C1709.55 205.08 1710.83 206.312 1711.76 207.976C1712.69 209.608 1713.15 211.72 1713.15 214.312V229H1707.15V215.08C1707.15 212.808 1706.61 211.112 1705.52 209.992C1704.46 208.872 1702.98 208.312 1701.06 208.312C1699.65 208.312 1698.4 208.6 1697.31 209.176C1696.22 209.752 1695.38 210.616 1694.77 211.768C1694.19 212.888 1693.9 214.312 1693.9 216.04V229H1687.9V203.368H1693.62V210.28L1692.61 208.168C1693.5 206.536 1694.8 205.288 1696.5 204.424C1698.22 203.528 1700.21 203.08 1702.45 203.08ZM1744.88 229.336C1742.41 229.336 1740.19 228.792 1738.21 227.704C1736.25 226.584 1734.72 225.048 1733.6 223.096C1732.48 221.144 1731.92 218.84 1731.92 216.184C1731.92 213.528 1732.48 211.224 1733.6 209.272C1734.72 207.32 1736.25 205.8 1738.21 204.712C1740.19 203.624 1742.41 203.08 1744.88 203.08C1747.02 203.08 1748.94 203.56 1750.64 204.52C1752.33 205.448 1753.68 206.872 1754.67 208.792C1755.66 210.712 1756.16 213.176 1756.16 216.184C1756.16 219.16 1755.68 221.624 1754.72 223.576C1753.76 225.496 1752.43 226.936 1750.73 227.896C1749.04 228.856 1747.09 229.336 1744.88 229.336ZM1745.6 224.2C1747.04 224.2 1748.32 223.88 1749.44 223.24C1750.59 222.6 1751.5 221.672 1752.17 220.456C1752.88 219.24 1753.23 217.816 1753.23 216.184C1753.23 214.52 1752.88 213.096 1752.17 211.912C1751.5 210.696 1750.59 209.768 1749.44 209.128C1748.32 208.488 1747.04 208.168 1745.6 208.168C1744.16 208.168 1742.86 208.488 1741.71 209.128C1740.59 209.768 1739.68 210.696 1738.97 211.912C1738.3 213.096 1737.97 214.52 1737.97 216.184C1737.97 217.816 1738.3 219.24 1738.97 220.456C1739.68 221.672 1740.59 222.6 1741.71 223.24C1742.86 223.88 1744.16 224.2 1745.6 224.2ZM1753.37 229V222.952L1753.61 216.136L1753.13 209.32V193.384H1759.09V229H1753.37ZM1779.03 229.336C1776.18 229.336 1773.69 228.776 1771.54 227.656C1769.43 226.504 1767.78 224.936 1766.6 222.952C1765.45 220.968 1764.87 218.712 1764.87 216.184C1764.87 213.624 1765.43 211.368 1766.55 209.416C1767.7 207.432 1769.27 205.88 1771.25 204.76C1773.27 203.64 1775.56 203.08 1778.12 203.08C1780.61 203.08 1782.84 203.624 1784.79 204.712C1786.74 205.8 1788.28 207.336 1789.4 209.32C1790.52 211.304 1791.08 213.64 1791.08 216.328C1791.08 216.584 1791.06 216.872 1791.03 217.192C1791.03 217.512 1791.01 217.816 1790.98 218.104H1769.62V214.12H1787.81L1785.46 215.368C1785.49 213.896 1785.19 212.6 1784.55 211.48C1783.91 210.36 1783.03 209.48 1781.91 208.84C1780.82 208.2 1779.56 207.88 1778.12 207.88C1776.65 207.88 1775.35 208.2 1774.23 208.84C1773.14 209.48 1772.28 210.376 1771.64 211.528C1771.03 212.648 1770.73 213.976 1770.73 215.512V216.472C1770.73 218.008 1771.08 219.368 1771.78 220.552C1772.49 221.736 1773.48 222.648 1774.76 223.288C1776.04 223.928 1777.51 224.248 1779.17 224.248C1780.61 224.248 1781.91 224.024 1783.06 223.576C1784.21 223.128 1785.24 222.424 1786.13 221.464L1789.35 225.16C1788.2 226.504 1786.74 227.544 1784.98 228.28C1783.25 228.984 1781.27 229.336 1779.03 229.336ZM1532.69 288V254.4H1547.38C1551.03 254.4 1554.23 255.104 1556.98 256.512C1559.73 257.92 1561.88 259.872 1563.41 262.368C1564.95 264.864 1565.72 267.808 1565.72 271.2C1565.72 274.56 1564.95 277.504 1563.41 280.032C1561.88 282.528 1559.73 284.48 1556.98 285.888C1554.23 287.296 1551.03 288 1547.38 288H1532.69ZM1538.93 282.72H1547.09C1549.62 282.72 1551.8 282.24 1553.62 281.28C1555.48 280.32 1556.9 278.976 1557.89 277.248C1558.92 275.52 1559.43 273.504 1559.43 271.2C1559.43 268.864 1558.92 266.848 1557.89 265.152C1556.9 263.424 1555.48 262.08 1553.62 261.12C1551.8 260.16 1549.62 259.68 1547.09 259.68H1538.93V282.72ZM1571.77 288V262.368H1577.77V288H1571.77ZM1574.8 258.144C1573.68 258.144 1572.75 257.792 1572.01 257.088C1571.31 256.384 1570.96 255.536 1570.96 254.544C1570.96 253.52 1571.31 252.672 1572.01 252C1572.75 251.296 1573.68 250.944 1574.8 250.944C1575.92 250.944 1576.83 251.28 1577.53 251.952C1578.27 252.592 1578.64 253.408 1578.64 254.4C1578.64 255.456 1578.28 256.352 1577.58 257.088C1576.88 257.792 1575.95 258.144 1574.8 258.144ZM1593.57 288.336C1591.42 288.336 1589.36 288.064 1587.37 287.52C1585.42 286.944 1583.87 286.256 1582.72 285.456L1585.02 280.896C1586.17 281.632 1587.55 282.24 1589.15 282.72C1590.75 283.2 1592.35 283.44 1593.95 283.44C1595.84 283.44 1597.2 283.184 1598.03 282.672C1598.89 282.16 1599.33 281.472 1599.33 280.608C1599.33 279.904 1599.04 279.376 1598.46 279.024C1597.89 278.64 1597.13 278.352 1596.21 278.16C1595.28 277.968 1594.24 277.792 1593.09 277.632C1591.97 277.472 1590.83 277.264 1589.68 277.008C1588.56 276.72 1587.53 276.32 1586.61 275.808C1585.68 275.264 1584.93 274.544 1584.35 273.648C1583.77 272.752 1583.49 271.568 1583.49 270.096C1583.49 268.464 1583.95 267.056 1584.88 265.872C1585.81 264.656 1587.1 263.728 1588.77 263.088C1590.46 262.416 1592.46 262.08 1594.77 262.08C1596.49 262.08 1598.24 262.272 1600 262.656C1601.76 263.04 1603.21 263.584 1604.37 264.288L1602.06 268.848C1600.85 268.112 1599.61 267.616 1598.37 267.36C1597.15 267.072 1595.93 266.928 1594.72 266.928C1592.89 266.928 1591.53 267.2 1590.64 267.744C1589.77 268.288 1589.34 268.976 1589.34 269.808C1589.34 270.576 1589.63 271.152 1590.21 271.536C1590.78 271.92 1591.53 272.224 1592.46 272.448C1593.39 272.672 1594.41 272.864 1595.53 273.024C1596.69 273.152 1597.82 273.36 1598.94 273.648C1600.06 273.936 1601.09 274.336 1602.01 274.848C1602.97 275.328 1603.74 276.016 1604.32 276.912C1604.89 277.808 1605.18 278.976 1605.18 280.416C1605.18 282.016 1604.7 283.408 1603.74 284.592C1602.81 285.776 1601.49 286.704 1599.76 287.376C1598.03 288.016 1595.97 288.336 1593.57 288.336ZM1622.4 288.336C1619.55 288.336 1617.05 287.776 1614.91 286.656C1612.8 285.504 1611.15 283.936 1609.97 281.952C1608.81 279.968 1608.24 277.712 1608.24 275.184C1608.24 272.624 1608.8 270.368 1609.92 268.416C1611.07 266.432 1612.64 264.88 1614.62 263.76C1616.64 262.64 1618.93 262.08 1621.49 262.08C1623.98 262.08 1626.21 262.624 1628.16 263.712C1630.11 264.8 1631.65 266.336 1632.77 268.32C1633.89 270.304 1634.45 272.64 1634.45 275.328C1634.45 275.584 1634.43 275.872 1634.4 276.192C1634.4 276.512 1634.38 276.816 1634.35 277.104H1612.99V273.12H1631.18L1628.83 274.368C1628.86 272.896 1628.56 271.6 1627.92 270.48C1627.28 269.36 1626.4 268.48 1625.28 267.84C1624.19 267.2 1622.93 266.88 1621.49 266.88C1620.01 266.88 1618.72 267.2 1617.6 267.84C1616.51 268.48 1615.65 269.376 1615.01 270.528C1614.4 271.648 1614.09 272.976 1614.09 274.512V275.472C1614.09 277.008 1614.45 278.368 1615.15 279.552C1615.85 280.736 1616.85 281.648 1618.13 282.288C1619.41 282.928 1620.88 283.248 1622.54 283.248C1623.98 283.248 1625.28 283.024 1626.43 282.576C1627.58 282.128 1628.61 281.424 1629.5 280.464L1632.72 284.16C1631.57 285.504 1630.11 286.544 1628.35 287.28C1626.62 287.984 1624.64 288.336 1622.4 288.336ZM1654.75 262.08C1656.8 262.08 1658.63 262.48 1660.23 263.28C1661.86 264.08 1663.14 265.312 1664.07 266.976C1664.99 268.608 1665.46 270.72 1665.46 273.312V288H1659.46V274.08C1659.46 271.808 1658.91 270.112 1657.83 268.992C1656.77 267.872 1655.28 267.312 1653.36 267.312C1651.95 267.312 1650.71 267.6 1649.62 268.176C1648.53 268.752 1647.68 269.616 1647.07 270.768C1646.5 271.888 1646.21 273.312 1646.21 275.04V288H1640.21V262.368H1645.92V269.28L1644.91 267.168C1645.81 265.536 1647.11 264.288 1648.8 263.424C1650.53 262.528 1652.51 262.08 1654.75 262.08ZM1656.29 258.864C1655.52 258.864 1654.82 258.72 1654.18 258.432C1653.57 258.112 1653.01 257.744 1652.5 257.328C1652.02 256.88 1651.55 256.496 1651.11 256.176C1650.66 255.856 1650.21 255.696 1649.76 255.696C1649.09 255.696 1648.55 255.952 1648.13 256.464C1647.71 256.976 1647.47 257.68 1647.41 258.576H1644.19C1644.26 256.592 1644.74 255.024 1645.63 253.872C1646.56 252.72 1647.81 252.144 1649.38 252.144C1650.15 252.144 1650.85 252.304 1651.49 252.624C1652.13 252.944 1652.69 253.312 1653.17 253.728C1653.68 254.144 1654.16 254.512 1654.61 254.832C1655.06 255.152 1655.49 255.312 1655.91 255.312C1656.58 255.312 1657.12 255.072 1657.54 254.592C1657.99 254.112 1658.23 253.44 1658.26 252.576H1661.47C1661.44 254.432 1660.96 255.952 1660.03 257.136C1659.11 258.288 1657.86 258.864 1656.29 258.864ZM1684.64 288.336C1682.01 288.336 1679.68 287.776 1677.63 286.656C1675.58 285.504 1673.96 283.936 1672.78 281.952C1671.6 279.968 1671 277.712 1671 275.184C1671 272.624 1671.6 270.368 1672.78 268.416C1673.96 266.432 1675.58 264.88 1677.63 263.76C1679.68 262.64 1682.01 262.08 1684.64 262.08C1687.29 262.08 1689.64 262.64 1691.69 263.76C1693.77 264.88 1695.39 266.416 1696.54 268.368C1697.72 270.32 1698.32 272.592 1698.32 275.184C1698.32 277.712 1697.72 279.968 1696.54 281.952C1695.39 283.936 1693.77 285.504 1691.69 286.656C1689.64 287.776 1687.29 288.336 1684.64 288.336ZM1684.64 283.2C1686.11 283.2 1687.42 282.88 1688.57 282.24C1689.72 281.6 1690.62 280.672 1691.26 279.456C1691.93 278.24 1692.27 276.816 1692.27 275.184C1692.27 273.52 1691.93 272.096 1691.26 270.912C1690.62 269.696 1689.72 268.768 1688.57 268.128C1687.42 267.488 1686.12 267.168 1684.68 267.168C1683.21 267.168 1681.9 267.488 1680.75 268.128C1679.63 268.768 1678.73 269.696 1678.06 270.912C1677.39 272.096 1677.05 273.52 1677.05 275.184C1677.05 276.816 1677.39 278.24 1678.06 279.456C1678.73 280.672 1679.63 281.6 1680.75 282.24C1681.9 282.88 1683.2 283.2 1684.64 283.2ZM1711.97 288.336C1709.83 288.336 1707.77 288.064 1705.78 287.52C1703.83 286.944 1702.28 286.256 1701.13 285.456L1703.43 280.896C1704.58 281.632 1705.96 282.24 1707.56 282.72C1709.16 283.2 1710.76 283.44 1712.36 283.44C1714.25 283.44 1715.61 283.184 1716.44 282.672C1717.3 282.16 1717.73 281.472 1717.73 280.608C1717.73 279.904 1717.45 279.376 1716.87 279.024C1716.29 278.64 1715.54 278.352 1714.61 278.16C1713.69 277.968 1712.65 277.792 1711.49 277.632C1710.37 277.472 1709.24 277.264 1708.09 277.008C1706.97 276.72 1705.94 276.32 1705.01 275.808C1704.09 275.264 1703.33 274.544 1702.76 273.648C1702.18 272.752 1701.89 271.568 1701.89 270.096C1701.89 268.464 1702.36 267.056 1703.29 265.872C1704.21 264.656 1705.51 263.728 1707.17 263.088C1708.87 262.416 1710.87 262.08 1713.17 262.08C1714.9 262.08 1716.65 262.272 1718.41 262.656C1720.17 263.04 1721.62 263.584 1722.77 264.288L1720.47 268.848C1719.25 268.112 1718.02 267.616 1716.77 267.36C1715.56 267.072 1714.34 266.928 1713.13 266.928C1711.3 266.928 1709.94 267.2 1709.05 267.744C1708.18 268.288 1707.75 268.976 1707.75 269.808C1707.75 270.576 1708.04 271.152 1708.61 271.536C1709.19 271.92 1709.94 272.224 1710.87 272.448C1711.8 272.672 1712.82 272.864 1713.94 273.024C1715.09 273.152 1716.23 273.36 1717.35 273.648C1718.47 273.936 1719.49 274.336 1720.42 274.848C1721.38 275.328 1722.15 276.016 1722.73 276.912C1723.3 277.808 1723.59 278.976 1723.59 280.416C1723.59 282.016 1723.11 283.408 1722.15 284.592C1721.22 285.776 1719.89 286.704 1718.17 287.376C1716.44 288.016 1714.37 288.336 1711.97 288.336Z" fill="white"/>
<path d="M2174.67 229V195.4H2189.36C2193 195.4 2196.2 196.104 2198.96 197.512C2201.71 198.92 2203.85 200.872 2205.39 203.368C2206.92 205.864 2207.69 208.808 2207.69 212.2C2207.69 215.56 2206.92 218.504 2205.39 221.032C2203.85 223.528 2201.71 225.48 2198.96 226.888C2196.2 228.296 2193 229 2189.36 229H2174.67ZM2180.91 223.72H2189.07C2191.6 223.72 2193.77 223.24 2195.6 222.28C2197.45 221.32 2198.88 219.976 2199.87 218.248C2200.89 216.52 2201.4 214.504 2201.4 212.2C2201.4 209.864 2200.89 207.848 2199.87 206.152C2198.88 204.424 2197.45 203.08 2195.6 202.12C2193.77 201.16 2191.6 200.68 2189.07 200.68H2180.91V223.72ZM2225.8 229.336C2222.95 229.336 2220.45 228.776 2218.31 227.656C2216.2 226.504 2214.55 224.936 2213.36 222.952C2212.21 220.968 2211.64 218.712 2211.64 216.184C2211.64 213.624 2212.2 211.368 2213.32 209.416C2214.47 207.432 2216.04 205.88 2218.02 204.76C2220.04 203.64 2222.32 203.08 2224.88 203.08C2227.38 203.08 2229.6 203.624 2231.56 204.712C2233.51 205.8 2235.04 207.336 2236.16 209.32C2237.28 211.304 2237.84 213.64 2237.84 216.328C2237.84 216.584 2237.83 216.872 2237.8 217.192C2237.8 217.512 2237.78 217.816 2237.75 218.104H2216.39V214.12H2234.58L2232.23 215.368C2232.26 213.896 2231.96 212.6 2231.32 211.48C2230.68 210.36 2229.8 209.48 2228.68 208.84C2227.59 208.2 2226.32 207.88 2224.88 207.88C2223.41 207.88 2222.12 208.2 2221 208.84C2219.91 209.48 2219.04 210.376 2218.4 211.528C2217.8 212.648 2217.49 213.976 2217.49 215.512V216.472C2217.49 218.008 2217.84 219.368 2218.55 220.552C2219.25 221.736 2220.24 222.648 2221.52 223.288C2222.8 223.928 2224.28 224.248 2225.94 224.248C2227.38 224.248 2228.68 224.024 2229.83 223.576C2230.98 223.128 2232 222.424 2232.9 221.464L2236.12 225.16C2234.96 226.504 2233.51 227.544 2231.75 228.28C2230.02 228.984 2228.04 229.336 2225.8 229.336ZM2251.53 229.336C2249.38 229.336 2247.32 229.064 2245.34 228.52C2243.38 227.944 2241.83 227.256 2240.68 226.456L2242.98 221.896C2244.14 222.632 2245.51 223.24 2247.11 223.72C2248.71 224.2 2250.31 224.44 2251.91 224.44C2253.8 224.44 2255.16 224.184 2255.99 223.672C2256.86 223.16 2257.29 222.472 2257.29 221.608C2257.29 220.904 2257 220.376 2256.42 220.024C2255.85 219.64 2255.1 219.352 2254.17 219.16C2253.24 218.968 2252.2 218.792 2251.05 218.632C2249.93 218.472 2248.79 218.264 2247.64 218.008C2246.52 217.72 2245.5 217.32 2244.57 216.808C2243.64 216.264 2242.89 215.544 2242.31 214.648C2241.74 213.752 2241.45 212.568 2241.45 211.096C2241.45 209.464 2241.91 208.056 2242.84 206.872C2243.77 205.656 2245.06 204.728 2246.73 204.088C2248.42 203.416 2250.42 203.08 2252.73 203.08C2254.46 203.08 2256.2 203.272 2257.96 203.656C2259.72 204.04 2261.18 204.584 2262.33 205.288L2260.02 209.848C2258.81 209.112 2257.58 208.616 2256.33 208.36C2255.11 208.072 2253.9 207.928 2252.68 207.928C2250.86 207.928 2249.5 208.2 2248.6 208.744C2247.74 209.288 2247.3 209.976 2247.3 210.808C2247.3 211.576 2247.59 212.152 2248.17 212.536C2248.74 212.92 2249.5 213.224 2250.42 213.448C2251.35 213.672 2252.38 213.864 2253.5 214.024C2254.65 214.152 2255.78 214.36 2256.9 214.648C2258.02 214.936 2259.05 215.336 2259.98 215.848C2260.94 216.328 2261.7 217.016 2262.28 217.912C2262.86 218.808 2263.14 219.976 2263.14 221.416C2263.14 223.016 2262.66 224.408 2261.7 225.592C2260.78 226.776 2259.45 227.704 2257.72 228.376C2255.99 229.016 2253.93 229.336 2251.53 229.336ZM2284.1 229V223.816L2283.77 222.712V213.64C2283.77 211.88 2283.24 210.52 2282.18 209.56C2281.13 208.568 2279.53 208.072 2277.38 208.072C2275.94 208.072 2274.52 208.296 2273.11 208.744C2271.74 209.192 2270.57 209.816 2269.61 210.616L2267.26 206.248C2268.63 205.192 2270.26 204.408 2272.15 203.896C2274.07 203.352 2276.06 203.08 2278.1 203.08C2281.82 203.08 2284.68 203.976 2286.7 205.768C2288.74 207.528 2289.77 210.264 2289.77 213.976V229H2284.1ZM2276.04 229.336C2274.12 229.336 2272.44 229.016 2271 228.376C2269.56 227.704 2268.44 226.792 2267.64 225.64C2266.87 224.456 2266.49 223.128 2266.49 221.656C2266.49 220.216 2266.82 218.92 2267.5 217.768C2268.2 216.616 2269.34 215.704 2270.9 215.032C2272.47 214.36 2274.55 214.024 2277.14 214.024H2284.58V218.008H2277.58C2275.53 218.008 2274.15 218.344 2273.45 219.016C2272.74 219.656 2272.39 220.456 2272.39 221.416C2272.39 222.504 2272.82 223.368 2273.69 224.008C2274.55 224.648 2275.75 224.968 2277.29 224.968C2278.76 224.968 2280.07 224.632 2281.22 223.96C2282.41 223.288 2283.26 222.296 2283.77 220.984L2284.78 224.584C2284.2 226.088 2283.16 227.256 2281.66 228.088C2280.18 228.92 2278.31 229.336 2276.04 229.336ZM2297.47 229V203.368H2303.18V210.424L2302.51 208.36C2303.28 206.632 2304.48 205.32 2306.11 204.424C2307.77 203.528 2309.84 203.08 2312.3 203.08V208.792C2312.04 208.728 2311.8 208.696 2311.58 208.696C2311.36 208.664 2311.13 208.648 2310.91 208.648C2308.64 208.648 2306.83 209.32 2305.48 210.664C2304.14 211.976 2303.47 213.944 2303.47 216.568V229H2297.47ZM2317.39 229V203.368H2323.1V210.424L2322.43 208.36C2323.2 206.632 2324.4 205.32 2326.03 204.424C2327.69 203.528 2329.76 203.08 2332.22 203.08V208.792C2331.97 208.728 2331.73 208.696 2331.5 208.696C2331.28 208.664 2331.05 208.648 2330.83 208.648C2328.56 208.648 2326.75 209.32 2325.41 210.664C2324.06 211.976 2323.39 213.944 2323.39 216.568V229H2317.39ZM2348.6 229.336C2345.97 229.336 2343.64 228.776 2341.59 227.656C2339.54 226.504 2337.92 224.936 2336.74 222.952C2335.56 220.968 2334.96 218.712 2334.96 216.184C2334.96 213.624 2335.56 211.368 2336.74 209.416C2337.92 207.432 2339.54 205.88 2341.59 204.76C2343.64 203.64 2345.97 203.08 2348.6 203.08C2351.25 203.08 2353.6 203.64 2355.65 204.76C2357.73 205.88 2359.35 207.416 2360.5 209.368C2361.68 211.32 2362.28 213.592 2362.28 216.184C2362.28 218.712 2361.68 220.968 2360.5 222.952C2359.35 224.936 2357.73 226.504 2355.65 227.656C2353.6 228.776 2351.25 229.336 2348.6 229.336ZM2348.6 224.2C2350.07 224.2 2351.38 223.88 2352.53 223.24C2353.68 222.6 2354.58 221.672 2355.22 220.456C2355.89 219.24 2356.23 217.816 2356.23 216.184C2356.23 214.52 2355.89 213.096 2355.22 211.912C2354.58 210.696 2353.68 209.768 2352.53 209.128C2351.38 208.488 2350.08 208.168 2348.64 208.168C2347.17 208.168 2345.86 208.488 2344.71 209.128C2343.59 209.768 2342.69 210.696 2342.02 211.912C2341.35 213.096 2341.01 214.52 2341.01 216.184C2341.01 217.816 2341.35 219.24 2342.02 220.456C2342.69 221.672 2343.59 222.6 2344.71 223.24C2345.86 223.88 2347.16 224.2 2348.6 224.2ZM2368.01 229V193.384H2374.01V229H2368.01ZM2381.89 229V193.384H2387.89V229H2381.89ZM2407.28 229.336C2404.66 229.336 2402.32 228.776 2400.28 227.656C2398.23 226.504 2396.61 224.936 2395.43 222.952C2394.24 220.968 2393.65 218.712 2393.65 216.184C2393.65 213.624 2394.24 211.368 2395.43 209.416C2396.61 207.432 2398.23 205.88 2400.28 204.76C2402.32 203.64 2404.66 203.08 2407.28 203.08C2409.94 203.08 2412.29 203.64 2414.34 204.76C2416.42 205.88 2418.04 207.416 2419.19 209.368C2420.37 211.32 2420.96 213.592 2420.96 216.184C2420.96 218.712 2420.37 220.968 2419.19 222.952C2418.04 224.936 2416.42 226.504 2414.34 227.656C2412.29 228.776 2409.94 229.336 2407.28 229.336ZM2407.28 224.2C2408.76 224.2 2410.07 223.88 2411.22 223.24C2412.37 222.6 2413.27 221.672 2413.91 220.456C2414.58 219.24 2414.92 217.816 2414.92 216.184C2414.92 214.52 2414.58 213.096 2413.91 211.912C2413.27 210.696 2412.37 209.768 2411.22 209.128C2410.07 208.488 2408.77 208.168 2407.33 208.168C2405.86 208.168 2404.55 208.488 2403.4 209.128C2402.28 209.768 2401.38 210.696 2400.71 211.912C2400.04 213.096 2399.7 214.52 2399.7 216.184C2399.7 217.816 2400.04 219.24 2400.71 220.456C2401.38 221.672 2402.28 222.6 2403.4 223.24C2404.55 223.88 2405.84 224.2 2407.28 224.2ZM2450.82 229.336C2448.35 229.336 2446.13 228.792 2444.14 227.704C2442.19 226.584 2440.66 225.048 2439.54 223.096C2438.42 221.144 2437.86 218.84 2437.86 216.184C2437.86 213.528 2438.42 211.224 2439.54 209.272C2440.66 207.32 2442.19 205.8 2444.14 204.712C2446.13 203.624 2448.35 203.08 2450.82 203.08C2452.96 203.08 2454.88 203.56 2456.58 204.52C2458.27 205.448 2459.62 206.872 2460.61 208.792C2461.6 210.712 2462.1 213.176 2462.1 216.184C2462.1 219.16 2461.62 221.624 2460.66 223.576C2459.7 225.496 2458.37 226.936 2456.67 227.896C2454.98 228.856 2453.02 229.336 2450.82 229.336ZM2451.54 224.2C2452.98 224.2 2454.26 223.88 2455.38 223.24C2456.53 222.6 2457.44 221.672 2458.11 220.456C2458.82 219.24 2459.17 217.816 2459.17 216.184C2459.17 214.52 2458.82 213.096 2458.11 211.912C2457.44 210.696 2456.53 209.768 2455.38 209.128C2454.26 208.488 2452.98 208.168 2451.54 208.168C2450.1 208.168 2448.8 208.488 2447.65 209.128C2446.53 209.768 2445.62 210.696 2444.91 211.912C2444.24 213.096 2443.9 214.52 2443.9 216.184C2443.9 217.816 2444.24 219.24 2444.91 220.456C2445.62 221.672 2446.53 222.6 2447.65 223.24C2448.8 223.88 2450.1 224.2 2451.54 224.2ZM2459.31 229V222.952L2459.55 216.136L2459.07 209.32V193.384H2465.02V229H2459.31ZM2484.97 229.336C2482.12 229.336 2479.62 228.776 2477.48 227.656C2475.37 226.504 2473.72 224.936 2472.54 222.952C2471.38 220.968 2470.81 218.712 2470.81 216.184C2470.81 213.624 2471.37 211.368 2472.49 209.416C2473.64 207.432 2475.21 205.88 2477.19 204.76C2479.21 203.64 2481.5 203.08 2484.06 203.08C2486.55 203.08 2488.78 203.624 2490.73 204.712C2492.68 205.8 2494.22 207.336 2495.34 209.32C2496.46 211.304 2497.02 213.64 2497.02 216.328C2497.02 216.584 2497 216.872 2496.97 217.192C2496.97 217.512 2496.95 217.816 2496.92 218.104H2475.56V214.12H2493.75L2491.4 215.368C2491.43 213.896 2491.13 212.6 2490.49 211.48C2489.85 210.36 2488.97 209.48 2487.85 208.84C2486.76 208.2 2485.5 207.88 2484.06 207.88C2482.58 207.88 2481.29 208.2 2480.17 208.84C2479.08 209.48 2478.22 210.376 2477.58 211.528C2476.97 212.648 2476.66 213.976 2476.66 215.512V216.472C2476.66 218.008 2477.02 219.368 2477.72 220.552C2478.42 221.736 2479.42 222.648 2480.7 223.288C2481.98 223.928 2483.45 224.248 2485.11 224.248C2486.55 224.248 2487.85 224.024 2489 223.576C2490.15 223.128 2491.18 222.424 2492.07 221.464L2495.29 225.16C2494.14 226.504 2492.68 227.544 2490.92 228.28C2489.19 228.984 2487.21 229.336 2484.97 229.336ZM2210.04 288V254.4H2223.86C2226.84 254.4 2229.38 254.88 2231.49 255.84C2233.64 256.8 2235.28 258.176 2236.44 259.968C2237.59 261.76 2238.16 263.888 2238.16 266.352C2238.16 268.816 2237.59 270.944 2236.44 272.736C2235.28 274.528 2233.64 275.904 2231.49 276.864C2229.38 277.824 2226.84 278.304 2223.86 278.304H2213.49L2216.28 275.376V288H2210.04ZM2216.28 276.048L2213.49 273.024H2223.57C2226.32 273.024 2228.39 272.448 2229.76 271.296C2231.17 270.112 2231.88 268.464 2231.88 266.352C2231.88 264.208 2231.17 262.56 2229.76 261.408C2228.39 260.256 2226.32 259.68 2223.57 259.68H2213.49L2216.28 256.608V276.048ZM2243.58 288V262.368H2249.3V269.424L2248.62 267.36C2249.39 265.632 2250.59 264.32 2252.22 263.424C2253.89 262.528 2255.95 262.08 2258.42 262.08V267.792C2258.16 267.728 2257.92 267.696 2257.7 267.696C2257.47 267.664 2257.25 267.648 2257.02 267.648C2254.75 267.648 2252.94 268.32 2251.6 269.664C2250.26 270.976 2249.58 272.944 2249.58 275.568V288H2243.58ZM2274.79 288.336C2272.17 288.336 2269.83 287.776 2267.78 286.656C2265.74 285.504 2264.12 283.936 2262.94 281.952C2261.75 279.968 2261.16 277.712 2261.16 275.184C2261.16 272.624 2261.75 270.368 2262.94 268.416C2264.12 266.432 2265.74 264.88 2267.78 263.76C2269.83 262.64 2272.17 262.08 2274.79 262.08C2277.45 262.08 2279.8 262.64 2281.85 263.76C2283.93 264.88 2285.54 266.416 2286.7 268.368C2287.88 270.32 2288.47 272.592 2288.47 275.184C2288.47 277.712 2287.88 279.968 2286.7 281.952C2285.54 283.936 2283.93 285.504 2281.85 286.656C2279.8 287.776 2277.45 288.336 2274.79 288.336ZM2274.79 283.2C2276.26 283.2 2277.58 282.88 2278.73 282.24C2279.88 281.6 2280.78 280.672 2281.42 279.456C2282.09 278.24 2282.42 276.816 2282.42 275.184C2282.42 273.52 2282.09 272.096 2281.42 270.912C2280.78 269.696 2279.88 268.768 2278.73 268.128C2277.58 267.488 2276.28 267.168 2274.84 267.168C2273.37 267.168 2272.06 267.488 2270.9 268.128C2269.78 268.768 2268.89 269.696 2268.22 270.912C2267.54 272.096 2267.21 273.52 2267.21 275.184C2267.21 276.816 2267.54 278.24 2268.22 279.456C2268.89 280.672 2269.78 281.6 2270.9 282.24C2272.06 282.88 2273.35 283.2 2274.79 283.2ZM2303.86 288.336C2301.04 288.336 2298.87 287.616 2297.33 286.176C2295.79 284.704 2295.03 282.544 2295.03 279.696V256.704H2301.03V279.552C2301.03 280.768 2301.33 281.712 2301.94 282.384C2302.58 283.056 2303.46 283.392 2304.58 283.392C2305.92 283.392 2307.04 283.04 2307.94 282.336L2309.62 286.608C2308.91 287.184 2308.05 287.616 2307.03 287.904C2306 288.192 2304.95 288.336 2303.86 288.336ZM2290.8 267.36V262.56H2307.89V267.36H2290.8ZM2325.23 288.336C2322.61 288.336 2320.27 287.776 2318.22 286.656C2316.17 285.504 2314.56 283.936 2313.37 281.952C2312.19 279.968 2311.6 277.712 2311.6 275.184C2311.6 272.624 2312.19 270.368 2313.37 268.416C2314.56 266.432 2316.17 264.88 2318.22 263.76C2320.27 262.64 2322.61 262.08 2325.23 262.08C2327.89 262.08 2330.24 262.64 2332.29 263.76C2334.37 264.88 2335.98 266.416 2337.13 268.368C2338.32 270.32 2338.91 272.592 2338.91 275.184C2338.91 277.712 2338.32 279.968 2337.13 281.952C2335.98 283.936 2334.37 285.504 2332.29 286.656C2330.24 287.776 2327.89 288.336 2325.23 288.336ZM2325.23 283.2C2326.7 283.2 2328.01 282.88 2329.17 282.24C2330.32 281.6 2331.21 280.672 2331.85 279.456C2332.53 278.24 2332.86 276.816 2332.86 275.184C2332.86 273.52 2332.53 272.096 2331.85 270.912C2331.21 269.696 2330.32 268.768 2329.17 268.128C2328.01 267.488 2326.72 267.168 2325.28 267.168C2323.81 267.168 2322.49 267.488 2321.34 268.128C2320.22 268.768 2319.33 269.696 2318.65 270.912C2317.98 272.096 2317.65 273.52 2317.65 275.184C2317.65 276.816 2317.98 278.24 2318.65 279.456C2319.33 280.672 2320.22 281.6 2321.34 282.24C2322.49 282.88 2323.79 283.2 2325.23 283.2ZM2354.29 288.336C2351.48 288.336 2349.3 287.616 2347.77 286.176C2346.23 284.704 2345.46 282.544 2345.46 279.696V256.704H2351.46V279.552C2351.46 280.768 2351.77 281.712 2352.37 282.384C2353.01 283.056 2353.89 283.392 2355.01 283.392C2356.36 283.392 2357.48 283.04 2358.37 282.336L2360.05 286.608C2359.35 287.184 2358.49 287.616 2357.46 287.904C2356.44 288.192 2355.38 288.336 2354.29 288.336ZM2341.24 267.36V262.56H2358.33V267.36H2341.24ZM2364.99 288V262.368H2370.99V288H2364.99ZM2368.01 258.144C2366.89 258.144 2365.97 257.792 2365.23 257.088C2364.53 256.384 2364.17 255.536 2364.17 254.544C2364.17 253.52 2364.53 252.672 2365.23 252C2365.97 251.296 2366.89 250.944 2368.01 250.944C2369.13 250.944 2370.05 251.28 2370.75 251.952C2371.49 252.592 2371.85 253.408 2371.85 254.4C2371.85 255.456 2371.5 256.352 2370.8 257.088C2370.09 257.792 2369.17 258.144 2368.01 258.144ZM2393.07 288.336C2390.99 288.336 2389.09 287.856 2387.36 286.896C2385.67 285.936 2384.31 284.496 2383.28 282.576C2382.29 280.624 2381.79 278.16 2381.79 275.184C2381.79 272.176 2382.27 269.712 2383.23 267.792C2384.23 265.872 2385.57 264.448 2387.27 263.52C2388.96 262.56 2390.9 262.08 2393.07 262.08C2395.6 262.08 2397.83 262.624 2399.75 263.712C2401.7 264.8 2403.23 266.32 2404.35 268.272C2405.51 270.224 2406.08 272.528 2406.08 275.184C2406.08 277.84 2405.51 280.16 2404.35 282.144C2403.23 284.096 2401.7 285.616 2399.75 286.704C2397.83 287.792 2395.6 288.336 2393.07 288.336ZM2378.87 297.312V262.368H2384.58V268.416L2384.39 275.232L2384.87 282.048V297.312H2378.87ZM2392.4 283.2C2393.84 283.2 2395.12 282.88 2396.24 282.24C2397.39 281.6 2398.31 280.672 2398.98 279.456C2399.65 278.24 2399.99 276.816 2399.99 275.184C2399.99 273.52 2399.65 272.096 2398.98 270.912C2398.31 269.696 2397.39 268.768 2396.24 268.128C2395.12 267.488 2393.84 267.168 2392.4 267.168C2390.96 267.168 2389.67 267.488 2388.51 268.128C2387.36 268.768 2386.45 269.696 2385.78 270.912C2385.11 272.096 2384.77 273.52 2384.77 275.184C2384.77 276.816 2385.11 278.24 2385.78 279.456C2386.45 280.672 2387.36 281.6 2388.51 282.24C2389.67 282.88 2390.96 283.2 2392.4 283.2ZM2423.29 288.336C2420.67 288.336 2418.33 287.776 2416.28 286.656C2414.24 285.504 2412.62 283.936 2411.44 281.952C2410.25 279.968 2409.66 277.712 2409.66 275.184C2409.66 272.624 2410.25 270.368 2411.44 268.416C2412.62 266.432 2414.24 264.88 2416.28 263.76C2418.33 262.64 2420.67 262.08 2423.29 262.08C2425.95 262.08 2428.3 262.64 2430.35 263.76C2432.43 264.88 2434.04 266.416 2435.2 268.368C2436.38 270.32 2436.97 272.592 2436.97 275.184C2436.97 277.712 2436.38 279.968 2435.2 281.952C2434.04 283.936 2432.43 285.504 2430.35 286.656C2428.3 287.776 2425.95 288.336 2423.29 288.336ZM2423.29 283.2C2424.76 283.2 2426.08 282.88 2427.23 282.24C2428.38 281.6 2429.28 280.672 2429.92 279.456C2430.59 278.24 2430.92 276.816 2430.92 275.184C2430.92 273.52 2430.59 272.096 2429.92 270.912C2429.28 269.696 2428.38 268.768 2427.23 268.128C2426.08 267.488 2424.78 267.168 2423.34 267.168C2421.87 267.168 2420.56 267.488 2419.4 268.128C2418.28 268.768 2417.39 269.696 2416.72 270.912C2416.04 272.096 2415.71 273.52 2415.71 275.184C2415.71 276.816 2416.04 278.24 2416.72 279.456C2417.39 280.672 2418.28 281.6 2419.4 282.24C2420.56 282.88 2421.85 283.2 2423.29 283.2ZM2450.63 288.336C2448.49 288.336 2446.42 288.064 2444.44 287.52C2442.49 286.944 2440.93 286.256 2439.78 285.456L2442.09 280.896C2443.24 281.632 2444.61 282.24 2446.21 282.72C2447.81 283.2 2449.41 283.44 2451.01 283.44C2452.9 283.44 2454.26 283.184 2455.09 282.672C2455.96 282.16 2456.39 281.472 2456.39 280.608C2456.39 279.904 2456.1 279.376 2455.53 279.024C2454.95 278.64 2454.2 278.352 2453.27 278.16C2452.34 277.968 2451.3 277.792 2450.15 277.632C2449.03 277.472 2447.89 277.264 2446.74 277.008C2445.62 276.72 2444.6 276.32 2443.67 275.808C2442.74 275.264 2441.99 274.544 2441.41 273.648C2440.84 272.752 2440.55 271.568 2440.55 270.096C2440.55 268.464 2441.01 267.056 2441.94 265.872C2442.87 264.656 2444.17 263.728 2445.83 263.088C2447.53 262.416 2449.53 262.08 2451.83 262.08C2453.56 262.08 2455.3 262.272 2457.06 262.656C2458.82 263.04 2460.28 263.584 2461.43 264.288L2459.13 268.848C2457.91 268.112 2456.68 267.616 2455.43 267.36C2454.21 267.072 2453 266.928 2451.78 266.928C2449.96 266.928 2448.6 267.2 2447.7 267.744C2446.84 268.288 2446.41 268.976 2446.41 269.808C2446.41 270.576 2446.69 271.152 2447.27 271.536C2447.85 271.92 2448.6 272.224 2449.53 272.448C2450.45 272.672 2451.48 272.864 2452.6 273.024C2453.75 273.152 2454.89 273.36 2456.01 273.648C2457.13 273.936 2458.15 274.336 2459.08 274.848C2460.04 275.328 2460.81 276.016 2461.38 276.912C2461.96 277.808 2462.25 278.976 2462.25 280.416C2462.25 282.016 2461.77 283.408 2460.81 284.592C2459.88 285.776 2458.55 286.704 2456.82 287.376C2455.09 288.016 2453.03 288.336 2450.63 288.336Z" fill="white"/>
<path d="M2888.22 210.856H2904.97V216.136H2888.22V210.856ZM2888.74 229H2882.5V195.4H2907.03V200.632H2888.74V229ZM2927.44 229V223.816L2927.1 222.712V213.64C2927.1 211.88 2926.57 210.52 2925.52 209.56C2924.46 208.568 2922.86 208.072 2920.72 208.072C2919.28 208.072 2917.85 208.296 2916.45 208.744C2915.07 209.192 2913.9 209.816 2912.94 210.616L2910.59 206.248C2911.97 205.192 2913.6 204.408 2915.49 203.896C2917.41 203.352 2919.39 203.08 2921.44 203.08C2925.15 203.08 2928.01 203.976 2930.03 205.768C2932.08 207.528 2933.1 210.264 2933.1 213.976V229H2927.44ZM2919.37 229.336C2917.45 229.336 2915.77 229.016 2914.33 228.376C2912.89 227.704 2911.77 226.792 2910.97 225.64C2910.21 224.456 2909.82 223.128 2909.82 221.656C2909.82 220.216 2910.16 218.92 2910.83 217.768C2911.53 216.616 2912.67 215.704 2914.24 215.032C2915.81 214.36 2917.89 214.024 2920.48 214.024H2927.92V218.008H2920.91C2918.86 218.008 2917.49 218.344 2916.78 219.016C2916.08 219.656 2915.73 220.456 2915.73 221.416C2915.73 222.504 2916.16 223.368 2917.02 224.008C2917.89 224.648 2919.09 224.968 2920.62 224.968C2922.09 224.968 2923.41 224.632 2924.56 223.96C2925.74 223.288 2926.59 222.296 2927.1 220.984L2928.11 224.584C2927.53 226.088 2926.49 227.256 2924.99 228.088C2923.52 228.92 2921.65 229.336 2919.37 229.336ZM2955.01 229.336C2952.84 229.336 2950.9 228.856 2949.2 227.896C2947.51 226.936 2946.16 225.496 2945.17 223.576C2944.21 221.624 2943.73 219.16 2943.73 216.184C2943.73 213.176 2944.23 210.712 2945.22 208.792C2946.24 206.872 2947.6 205.448 2949.3 204.52C2951.03 203.56 2952.93 203.08 2955.01 203.08C2957.54 203.08 2959.76 203.624 2961.68 204.712C2963.64 205.8 2965.17 207.32 2966.29 209.272C2967.44 211.224 2968.02 213.528 2968.02 216.184C2968.02 218.84 2967.44 221.144 2966.29 223.096C2965.17 225.048 2963.64 226.584 2961.68 227.704C2959.76 228.792 2957.54 229.336 2955.01 229.336ZM2940.8 229V193.384H2946.8V209.32L2946.32 216.136L2946.52 222.952V229H2940.8ZM2954.34 224.2C2955.78 224.2 2957.06 223.88 2958.18 223.24C2959.33 222.6 2960.24 221.672 2960.92 220.456C2961.59 219.24 2961.92 217.816 2961.92 216.184C2961.92 214.52 2961.59 213.096 2960.92 211.912C2960.24 210.696 2959.33 209.768 2958.18 209.128C2957.06 208.488 2955.78 208.168 2954.34 208.168C2952.9 208.168 2951.6 208.488 2950.45 209.128C2949.3 209.768 2948.39 210.696 2947.72 211.912C2947.04 213.096 2946.71 214.52 2946.71 216.184C2946.71 217.816 2947.04 219.24 2947.72 220.456C2948.39 221.672 2949.3 222.6 2950.45 223.24C2951.6 223.88 2952.9 224.2 2954.34 224.2ZM2973.71 229V203.368H2979.42V210.424L2978.75 208.36C2979.52 206.632 2980.72 205.32 2982.35 204.424C2984.01 203.528 2986.08 203.08 2988.54 203.08V208.792C2988.29 208.728 2988.05 208.696 2987.82 208.696C2987.6 208.664 2987.37 208.648 2987.15 208.648C2984.88 208.648 2983.07 209.32 2981.73 210.664C2980.38 211.976 2979.71 213.944 2979.71 216.568V229H2973.71ZM2993.63 229V203.368H2999.63V229H2993.63ZM2996.66 199.144C2995.54 199.144 2994.61 198.792 2993.87 198.088C2993.17 197.384 2992.82 196.536 2992.82 195.544C2992.82 194.52 2993.17 193.672 2993.87 193C2994.61 192.296 2995.54 191.944 2996.66 191.944C2997.78 191.944 2998.69 192.28 2999.39 192.952C3000.13 193.592 3000.5 194.408 3000.5 195.4C3000.5 196.456 3000.14 197.352 2999.44 198.088C2998.74 198.792 2997.81 199.144 2996.66 199.144ZM3019.27 229.336C3016.58 229.336 3014.18 228.776 3012.07 227.656C3009.99 226.504 3008.35 224.936 3007.17 222.952C3005.99 220.968 3005.39 218.712 3005.39 216.184C3005.39 213.624 3005.99 211.368 3007.17 209.416C3008.35 207.432 3009.99 205.88 3012.07 204.76C3014.18 203.64 3016.58 203.08 3019.27 203.08C3021.76 203.08 3023.95 203.592 3025.84 204.616C3027.76 205.608 3029.22 207.08 3030.21 209.032L3025.6 211.72C3024.83 210.504 3023.89 209.608 3022.77 209.032C3021.68 208.456 3020.5 208.168 3019.22 208.168C3017.75 208.168 3016.42 208.488 3015.23 209.128C3014.05 209.768 3013.12 210.696 3012.45 211.912C3011.78 213.096 3011.44 214.52 3011.44 216.184C3011.44 217.848 3011.78 219.288 3012.45 220.504C3013.12 221.688 3014.05 222.6 3015.23 223.24C3016.42 223.88 3017.75 224.2 3019.22 224.2C3020.5 224.2 3021.68 223.912 3022.77 223.336C3023.89 222.76 3024.83 221.864 3025.6 220.648L3030.21 223.336C3029.22 225.256 3027.76 226.744 3025.84 227.8C3023.95 228.824 3021.76 229.336 3019.27 229.336ZM3051.19 229V223.816L3050.85 222.712V213.64C3050.85 211.88 3050.32 210.52 3049.27 209.56C3048.21 208.568 3046.61 208.072 3044.47 208.072C3043.03 208.072 3041.6 208.296 3040.2 208.744C3038.82 209.192 3037.65 209.816 3036.69 210.616L3034.34 206.248C3035.72 205.192 3037.35 204.408 3039.24 203.896C3041.16 203.352 3043.14 203.08 3045.19 203.08C3048.9 203.08 3051.76 203.976 3053.78 205.768C3055.83 207.528 3056.85 210.264 3056.85 213.976V229H3051.19ZM3043.12 229.336C3041.2 229.336 3039.52 229.016 3038.08 228.376C3036.64 227.704 3035.52 226.792 3034.72 225.64C3033.96 224.456 3033.57 223.128 3033.57 221.656C3033.57 220.216 3033.91 218.92 3034.58 217.768C3035.28 216.616 3036.42 215.704 3037.99 215.032C3039.56 214.36 3041.64 214.024 3044.23 214.024H3051.67V218.008H3044.66C3042.61 218.008 3041.24 218.344 3040.53 219.016C3039.83 219.656 3039.48 220.456 3039.48 221.416C3039.48 222.504 3039.91 223.368 3040.77 224.008C3041.64 224.648 3042.84 224.968 3044.37 224.968C3045.84 224.968 3047.16 224.632 3048.31 223.96C3049.49 223.288 3050.34 222.296 3050.85 220.984L3051.86 224.584C3051.28 226.088 3050.24 227.256 3048.74 228.088C3047.27 228.92 3045.4 229.336 3043.12 229.336ZM3076.36 229.336C3073.67 229.336 3071.27 228.776 3069.16 227.656C3067.08 226.504 3065.45 224.936 3064.26 222.952C3063.08 220.968 3062.49 218.712 3062.49 216.184C3062.49 213.624 3063.08 211.368 3064.26 209.416C3065.45 207.432 3067.08 205.88 3069.16 204.76C3071.27 203.64 3073.67 203.08 3076.36 203.08C3078.86 203.08 3081.05 203.592 3082.94 204.616C3084.86 205.608 3086.31 207.08 3087.3 209.032L3082.7 211.72C3081.93 210.504 3080.98 209.608 3079.86 209.032C3078.78 208.456 3077.59 208.168 3076.31 208.168C3074.84 208.168 3073.51 208.488 3072.33 209.128C3071.14 209.768 3070.22 210.696 3069.54 211.912C3068.87 213.096 3068.54 214.52 3068.54 216.184C3068.54 217.848 3068.87 219.288 3069.54 220.504C3070.22 221.688 3071.14 222.6 3072.33 223.24C3073.51 223.88 3074.84 224.2 3076.31 224.2C3077.59 224.2 3078.78 223.912 3079.86 223.336C3080.98 222.76 3081.93 221.864 3082.7 220.648L3087.3 223.336C3086.31 225.256 3084.86 226.744 3082.94 227.8C3081.05 228.824 3078.86 229.336 3076.36 229.336ZM3092.26 229V203.368H3098.26V229H3092.26ZM3095.28 199.144C3094.16 199.144 3093.23 198.792 3092.5 198.088C3091.79 197.384 3091.44 196.536 3091.44 195.544C3091.44 194.52 3091.79 193.672 3092.5 193C3093.23 192.296 3094.16 191.944 3095.28 191.944C3096.4 191.944 3097.31 192.28 3098.02 192.952C3098.75 193.592 3099.12 194.408 3099.12 195.4C3099.12 196.456 3098.77 197.352 3098.06 198.088C3097.36 198.792 3096.43 199.144 3095.28 199.144ZM3117.65 229.336C3115.03 229.336 3112.69 228.776 3110.64 227.656C3108.6 226.504 3106.98 224.936 3105.8 222.952C3104.61 220.968 3104.02 218.712 3104.02 216.184C3104.02 213.624 3104.61 211.368 3105.8 209.416C3106.98 207.432 3108.6 205.88 3110.64 204.76C3112.69 203.64 3115.03 203.08 3117.65 203.08C3120.31 203.08 3122.66 203.64 3124.71 204.76C3126.79 205.88 3128.4 207.416 3129.56 209.368C3130.74 211.32 3131.33 213.592 3131.33 216.184C3131.33 218.712 3130.74 220.968 3129.56 222.952C3128.4 224.936 3126.79 226.504 3124.71 227.656C3122.66 228.776 3120.31 229.336 3117.65 229.336ZM3117.65 224.2C3119.12 224.2 3120.44 223.88 3121.59 223.24C3122.74 222.6 3123.64 221.672 3124.28 220.456C3124.95 219.24 3125.28 217.816 3125.28 216.184C3125.28 214.52 3124.95 213.096 3124.28 211.912C3123.64 210.696 3122.74 209.768 3121.59 209.128C3120.44 208.488 3119.14 208.168 3117.7 208.168C3116.23 208.168 3114.92 208.488 3113.76 209.128C3112.64 209.768 3111.75 210.696 3111.08 211.912C3110.4 213.096 3110.07 214.52 3110.07 216.184C3110.07 217.816 3110.4 219.24 3111.08 220.456C3111.75 221.672 3112.64 222.6 3113.76 223.24C3114.92 223.88 3116.21 224.2 3117.65 224.2ZM3113.57 199.864L3120.05 193.288H3127.11L3118.76 199.864H3113.57ZM3151.61 203.08C3153.66 203.08 3155.48 203.48 3157.08 204.28C3158.72 205.08 3160 206.312 3160.92 207.976C3161.85 209.608 3162.32 211.72 3162.32 214.312V229H3156.32V215.08C3156.32 212.808 3155.77 211.112 3154.68 209.992C3153.63 208.872 3152.14 208.312 3150.22 208.312C3148.81 208.312 3147.56 208.6 3146.48 209.176C3145.39 209.752 3144.54 210.616 3143.93 211.768C3143.36 212.888 3143.07 214.312 3143.07 216.04V229H3137.07V203.368H3142.78V210.28L3141.77 208.168C3142.67 206.536 3143.96 205.288 3145.66 204.424C3147.39 203.528 3149.37 203.08 3151.61 203.08ZM3185.31 238.648C3184.06 238.648 3182.81 238.44 3181.56 238.024C3180.31 237.608 3179.27 237.032 3178.44 236.296L3180.84 231.88C3181.45 232.424 3182.14 232.856 3182.91 233.176C3183.67 233.496 3184.46 233.656 3185.26 233.656C3186.35 233.656 3187.23 233.384 3187.9 232.84C3188.57 232.296 3189.19 231.384 3189.77 230.104L3191.26 226.744L3191.74 226.024L3201.43 203.368H3207.19L3195.19 231.064C3194.39 232.984 3193.5 234.504 3192.51 235.624C3191.55 236.744 3190.46 237.528 3189.24 237.976C3188.06 238.424 3186.75 238.648 3185.31 238.648ZM3190.59 229.912L3179.02 203.368H3185.26L3194.67 225.496L3190.59 229.912ZM2906.05 288.48C2903.49 288.48 2901.1 288.064 2898.9 287.232C2896.72 286.368 2894.82 285.168 2893.18 283.632C2891.58 282.064 2890.34 280.224 2889.44 278.112C2888.54 276 2888.1 273.696 2888.1 271.2C2888.1 268.704 2888.54 266.4 2889.44 264.288C2890.34 262.176 2891.6 260.352 2893.23 258.816C2894.86 257.248 2896.77 256.048 2898.94 255.216C2901.12 254.352 2903.5 253.92 2906.1 253.92C2908.85 253.92 2911.36 254.4 2913.63 255.36C2915.9 256.288 2917.82 257.68 2919.39 259.536L2915.36 263.328C2914.14 262.016 2912.78 261.04 2911.28 260.4C2909.78 259.728 2908.14 259.392 2906.38 259.392C2904.62 259.392 2903.01 259.68 2901.54 260.256C2900.1 260.832 2898.83 261.648 2897.74 262.704C2896.69 263.76 2895.86 265.008 2895.25 266.448C2894.67 267.888 2894.38 269.472 2894.38 271.2C2894.38 272.928 2894.67 274.512 2895.25 275.952C2895.86 277.392 2896.69 278.64 2897.74 279.696C2898.83 280.752 2900.1 281.568 2901.54 282.144C2903.01 282.72 2904.62 283.008 2906.38 283.008C2908.14 283.008 2909.78 282.688 2911.28 282.048C2912.78 281.376 2914.14 280.368 2915.36 279.024L2919.39 282.864C2917.82 284.688 2915.9 286.08 2913.63 287.04C2911.36 288 2908.83 288.48 2906.05 288.48ZM2935.86 288.336C2933.01 288.336 2930.52 287.776 2928.37 286.656C2926.26 285.504 2924.61 283.936 2923.43 281.952C2922.28 279.968 2921.7 277.712 2921.7 275.184C2921.7 272.624 2922.26 270.368 2923.38 268.416C2924.53 266.432 2926.1 264.88 2928.08 263.76C2930.1 262.64 2932.39 262.08 2934.95 262.08C2937.44 262.08 2939.67 262.624 2941.62 263.712C2943.57 264.8 2945.11 266.336 2946.23 268.32C2947.35 270.304 2947.91 272.64 2947.91 275.328C2947.91 275.584 2947.89 275.872 2947.86 276.192C2947.86 276.512 2947.84 276.816 2947.81 277.104H2926.45V273.12H2944.64L2942.29 274.368C2942.32 272.896 2942.02 271.6 2941.38 270.48C2940.74 269.36 2939.86 268.48 2938.74 267.84C2937.65 267.2 2936.39 266.88 2934.95 266.88C2933.48 266.88 2932.18 267.2 2931.06 267.84C2929.97 268.48 2929.11 269.376 2928.47 270.528C2927.86 271.648 2927.56 272.976 2927.56 274.512V275.472C2927.56 277.008 2927.91 278.368 2928.61 279.552C2929.32 280.736 2930.31 281.648 2931.59 282.288C2932.87 282.928 2934.34 283.248 2936 283.248C2937.44 283.248 2938.74 283.024 2939.89 282.576C2941.04 282.128 2942.07 281.424 2942.96 280.464L2946.18 284.16C2945.03 285.504 2943.57 286.544 2941.81 287.28C2940.08 287.984 2938.1 288.336 2935.86 288.336ZM2953.67 288V262.368H2959.38V269.424L2958.71 267.36C2959.48 265.632 2960.68 264.32 2962.31 263.424C2963.97 262.528 2966.04 262.08 2968.5 262.08V267.792C2968.25 267.728 2968.01 267.696 2967.78 267.696C2967.56 267.664 2967.33 267.648 2967.11 267.648C2964.84 267.648 2963.03 268.32 2961.69 269.664C2960.34 270.976 2959.67 272.944 2959.67 275.568V288H2953.67ZM2984.18 288.336C2981.36 288.336 2979.19 287.616 2977.65 286.176C2976.11 284.704 2975.35 282.544 2975.35 279.696V256.704H2981.35V279.552C2981.35 280.768 2981.65 281.712 2982.26 282.384C2982.9 283.056 2983.78 283.392 2984.9 283.392C2986.24 283.392 2987.36 283.04 2988.26 282.336L2989.94 286.608C2989.23 287.184 2988.37 287.616 2987.35 287.904C2986.32 288.192 2985.27 288.336 2984.18 288.336ZM2971.12 267.36V262.56H2988.21V267.36H2971.12ZM2994.87 288V262.368H3000.87V288H2994.87ZM2997.9 258.144C2996.78 258.144 2995.85 257.792 2995.11 257.088C2994.41 256.384 2994.06 255.536 2994.06 254.544C2994.06 253.52 2994.41 252.672 2995.11 252C2995.85 251.296 2996.78 250.944 2997.9 250.944C2999.02 250.944 2999.93 251.28 3000.63 251.952C3001.37 252.592 3001.74 253.408 3001.74 254.4C3001.74 255.456 3001.39 256.352 3000.68 257.088C2999.98 257.792 2999.05 258.144 2997.9 258.144ZM3009.56 288V260.928C3009.56 258.24 3010.35 256.096 3011.92 254.496C3013.52 252.864 3015.79 252.048 3018.73 252.048C3019.79 252.048 3020.78 252.16 3021.71 252.384C3022.67 252.608 3023.47 252.96 3024.11 253.44L3022.48 257.952C3022.03 257.6 3021.52 257.344 3020.94 257.184C3020.36 256.992 3019.77 256.896 3019.16 256.896C3017.92 256.896 3016.97 257.248 3016.33 257.952C3015.69 258.624 3015.37 259.648 3015.37 261.024V263.904L3015.56 266.592V288H3009.56ZM3005.34 267.36V262.56H3022.43V267.36H3005.34ZM3026.65 288V262.368H3032.65V288H3026.65ZM3029.68 258.144C3028.56 258.144 3027.63 257.792 3026.89 257.088C3026.19 256.384 3025.84 255.536 3025.84 254.544C3025.84 253.52 3026.19 252.672 3026.89 252C3027.63 251.296 3028.56 250.944 3029.68 250.944C3030.8 250.944 3031.71 251.28 3032.41 251.952C3033.15 252.592 3033.52 253.408 3033.52 254.4C3033.52 255.456 3033.16 256.352 3032.46 257.088C3031.76 257.792 3030.83 258.144 3029.68 258.144ZM3052.29 288.336C3049.6 288.336 3047.2 287.776 3045.09 286.656C3043.01 285.504 3041.38 283.936 3040.19 281.952C3039.01 279.968 3038.42 277.712 3038.42 275.184C3038.42 272.624 3039.01 270.368 3040.19 268.416C3041.38 266.432 3043.01 264.88 3045.09 263.76C3047.2 262.64 3049.6 262.08 3052.29 262.08C3054.79 262.08 3056.98 262.592 3058.87 263.616C3060.79 264.608 3062.24 266.08 3063.23 268.032L3058.63 270.72C3057.86 269.504 3056.91 268.608 3055.79 268.032C3054.71 267.456 3053.52 267.168 3052.24 267.168C3050.77 267.168 3049.44 267.488 3048.26 268.128C3047.07 268.768 3046.15 269.696 3045.47 270.912C3044.8 272.096 3044.47 273.52 3044.47 275.184C3044.47 276.848 3044.8 278.288 3045.47 279.504C3046.15 280.688 3047.07 281.6 3048.26 282.24C3049.44 282.88 3050.77 283.2 3052.24 283.2C3053.52 283.2 3054.71 282.912 3055.79 282.336C3056.91 281.76 3057.86 280.864 3058.63 279.648L3063.23 282.336C3062.24 284.256 3060.79 285.744 3058.87 286.8C3056.98 287.824 3054.79 288.336 3052.29 288.336ZM3084.21 288V282.816L3083.88 281.712V272.64C3083.88 270.88 3083.35 269.52 3082.29 268.56C3081.24 267.568 3079.64 267.072 3077.49 267.072C3076.05 267.072 3074.63 267.296 3073.22 267.744C3071.84 268.192 3070.68 268.816 3069.72 269.616L3067.36 265.248C3068.74 264.192 3070.37 263.408 3072.26 262.896C3074.18 262.352 3076.16 262.08 3078.21 262.08C3081.92 262.08 3084.79 262.976 3086.8 264.768C3088.85 266.528 3089.88 269.264 3089.88 272.976V288H3084.21ZM3076.15 288.336C3074.23 288.336 3072.55 288.016 3071.11 287.376C3069.67 286.704 3068.55 285.792 3067.75 284.64C3066.98 283.456 3066.6 282.128 3066.6 280.656C3066.6 279.216 3066.93 277.92 3067.6 276.768C3068.31 275.616 3069.44 274.704 3071.01 274.032C3072.58 273.36 3074.66 273.024 3077.25 273.024H3084.69V277.008H3077.68C3075.64 277.008 3074.26 277.344 3073.56 278.016C3072.85 278.656 3072.5 279.456 3072.5 280.416C3072.5 281.504 3072.93 282.368 3073.8 283.008C3074.66 283.648 3075.86 283.968 3077.4 283.968C3078.87 283.968 3080.18 283.632 3081.33 282.96C3082.52 282.288 3083.36 281.296 3083.88 279.984L3084.88 283.584C3084.31 285.088 3083.27 286.256 3081.76 287.088C3080.29 287.92 3078.42 288.336 3076.15 288.336ZM3109.38 288.336C3106.7 288.336 3104.3 287.776 3102.18 286.656C3100.1 285.504 3098.47 283.936 3097.29 281.952C3096.1 279.968 3095.51 277.712 3095.51 275.184C3095.51 272.624 3096.1 270.368 3097.29 268.416C3098.47 266.432 3100.1 264.88 3102.18 263.76C3104.3 262.64 3106.7 262.08 3109.38 262.08C3111.88 262.08 3114.07 262.592 3115.96 263.616C3117.88 264.608 3119.34 266.08 3120.33 268.032L3115.72 270.72C3114.95 269.504 3114.01 268.608 3112.89 268.032C3111.8 267.456 3110.62 267.168 3109.34 267.168C3107.86 267.168 3106.54 267.488 3105.35 268.128C3104.17 268.768 3103.24 269.696 3102.57 270.912C3101.9 272.096 3101.56 273.52 3101.56 275.184C3101.56 276.848 3101.9 278.288 3102.57 279.504C3103.24 280.688 3104.17 281.6 3105.35 282.24C3106.54 282.88 3107.86 283.2 3109.34 283.2C3110.62 283.2 3111.8 282.912 3112.89 282.336C3114.01 281.76 3114.95 280.864 3115.72 279.648L3120.33 282.336C3119.34 284.256 3117.88 285.744 3115.96 286.8C3114.07 287.824 3111.88 288.336 3109.38 288.336ZM3125.28 288V262.368H3131.28V288H3125.28ZM3128.3 258.144C3127.18 258.144 3126.26 257.792 3125.52 257.088C3124.82 256.384 3124.46 255.536 3124.46 254.544C3124.46 253.52 3124.82 252.672 3125.52 252C3126.26 251.296 3127.18 250.944 3128.3 250.944C3129.42 250.944 3130.34 251.28 3131.04 251.952C3131.78 252.592 3132.14 253.408 3132.14 254.4C3132.14 255.456 3131.79 256.352 3131.09 257.088C3130.38 257.792 3129.46 258.144 3128.3 258.144ZM3150.67 288.336C3148.05 288.336 3145.71 287.776 3143.67 286.656C3141.62 285.504 3140 283.936 3138.82 281.952C3137.63 279.968 3137.04 277.712 3137.04 275.184C3137.04 272.624 3137.63 270.368 3138.82 268.416C3140 266.432 3141.62 264.88 3143.67 263.76C3145.71 262.64 3148.05 262.08 3150.67 262.08C3153.33 262.08 3155.68 262.64 3157.73 263.76C3159.81 264.88 3161.43 266.416 3162.58 268.368C3163.76 270.32 3164.35 272.592 3164.35 275.184C3164.35 277.712 3163.76 279.968 3162.58 281.952C3161.43 283.936 3159.81 285.504 3157.73 286.656C3155.68 287.776 3153.33 288.336 3150.67 288.336ZM3150.67 283.2C3152.15 283.2 3153.46 282.88 3154.61 282.24C3155.76 281.6 3156.66 280.672 3157.3 279.456C3157.97 278.24 3158.31 276.816 3158.31 275.184C3158.31 273.52 3157.97 272.096 3157.3 270.912C3156.66 269.696 3155.76 268.768 3154.61 268.128C3153.46 267.488 3152.16 267.168 3150.72 267.168C3149.25 267.168 3147.94 267.488 3146.79 268.128C3145.67 268.768 3144.77 269.696 3144.1 270.912C3143.43 272.096 3143.09 273.52 3143.09 275.184C3143.09 276.816 3143.43 278.24 3144.1 279.456C3144.77 280.672 3145.67 281.6 3146.79 282.24C3147.94 282.88 3149.23 283.2 3150.67 283.2ZM3146.59 258.864L3153.07 252.288H3160.13L3151.78 258.864H3146.59ZM3184.64 262.08C3186.68 262.08 3188.51 262.48 3190.11 263.28C3191.74 264.08 3193.02 265.312 3193.95 266.976C3194.88 268.608 3195.34 270.72 3195.34 273.312V288H3189.34V274.08C3189.34 271.808 3188.8 270.112 3187.71 268.992C3186.65 267.872 3185.16 267.312 3183.24 267.312C3181.84 267.312 3180.59 267.6 3179.5 268.176C3178.41 268.752 3177.56 269.616 3176.96 270.768C3176.38 271.888 3176.09 273.312 3176.09 275.04V288H3170.09V262.368H3175.8V269.28L3174.8 267.168C3175.69 265.536 3176.99 264.288 3178.68 263.424C3180.41 262.528 3182.4 262.08 3184.64 262.08Z" fill="white"/>
</svg>
