<svg width="350" height="413" viewBox="0 0 350 413" fill="none" xmlns="http://www.w3.org/2000/svg">
<circle cx="226" cy="25" r="25" transform="rotate(-180 226 25)" fill="#5ECEB8"/>
<circle cx="124" cy="388" r="25" fill="#5ECEB8"/>
<circle cx="125" cy="25" r="25" transform="rotate(-180 125 25)" fill="#5ECEB8"/>
<circle cx="225" cy="388" r="25" fill="#5ECEB8"/>
<circle cx="175" cy="84" r="25" transform="rotate(-180 175 84)" fill="#5ECEB8"/>
<circle cx="175" cy="329" r="25" fill="#5ECEB8"/>
<circle cx="175" cy="211" r="25" fill="#5ECEB8"/>
<circle cx="125" cy="152" r="25" transform="rotate(-180 125 152)" fill="#5ECEB8"/>
<circle cx="225" cy="270" r="25" fill="#5ECEB8"/>
<circle cx="225" cy="152" r="25" transform="rotate(-180 225 152)" fill="#5ECEB8"/>
<circle cx="125" cy="270" r="25" fill="#5ECEB8"/>
<circle cx="325" cy="152" r="25" transform="rotate(-180 325 152)" fill="#5ECEB8"/>
<circle cx="25" cy="270" r="25" fill="#5ECEB8"/>
<circle cx="25" cy="152" r="25" transform="rotate(-180 25 152)" fill="#5ECEB8"/>
<circle cx="325" cy="270" r="25" fill="#5ECEB8"/>
<circle cx="75" cy="84" r="25" transform="rotate(-180 75 84)" fill="#5ECEB8"/>
<circle cx="275" cy="329" r="25" fill="#5ECEB8"/>
<circle cx="275" cy="211" r="25" fill="#5ECEB8"/>
<circle cx="275" cy="84" r="25" transform="rotate(-180 275 84)" fill="#5ECEB8"/>
<circle cx="75" cy="329" r="25" fill="#5ECEB8"/>
<circle cx="74" cy="211" r="25" fill="#5ECEB8"/>
</svg>
