<svg width="2000" height="1152" viewBox="0 0 2000 1152" fill="none" xmlns="http://www.w3.org/2000/svg">
<path d="M932.135 879.364C912.06 944.972 805.766 927.646 805.66 857.705C805.378 691.975 805.343 543.748 805.554 413.024C805.766 219.578 680.981 54.13 490.581 10.8134C229.811 -48.4563 0.42263 161.576 0.52829 416.087C0.52829 654.364 0.352225 897.782 2.40803e-05 1146.34C2.40803e-05 1147.43 0.434059 1148.48 1.20685 1149.25C1.97964 1150.03 3.02789 1150.46 4.12078 1150.46H223.155C227.311 1150.46 229.389 1148.38 229.389 1144.23C229.318 894.683 229.424 651.793 229.706 415.559C229.706 362.382 244.287 320.263 273.449 289.202C363.577 193.271 520.8 222.642 565.705 348.788C572.186 367.031 575.497 391.858 575.638 423.272C575.99 545.896 575.567 668.627 574.369 791.463C573.735 859.501 578.208 908.805 587.788 939.373C641.147 1108.2 822.354 1198.11 988.347 1126.48C1051.88 1099.08 1098.69 1057.24 1128.77 1000.97C1143.63 973.286 1162.65 919.51 1185.83 839.639C1237.32 662.288 1290.5 482.154 1345.37 299.238C1372.63 208.696 1481.15 208.696 1507.98 299.555C1591.6 581.571 1675.56 863.833 1759.88 1146.34C1760.79 1149.37 1762.84 1150.88 1766.01 1150.88L1995.92 1150.99C1996.56 1150.98 1997.19 1150.83 1997.75 1150.54C1998.32 1150.25 1998.81 1149.83 1999.19 1149.32C1999.57 1148.81 1999.83 1148.22 1999.94 1147.59C2000.05 1146.96 2000.01 1146.32 1999.83 1145.71C1912.28 852.986 1823.42 553.785 1733.25 248.104C1719.02 199.786 1703.03 163.02 1685.28 137.805C1591.46 4.26319 1417.54 -40.1099 1275.53 39.7616C1177.27 95.1223 1140.6 175.311 1107.85 288.251C1047.48 496.311 988.91 693.349 932.135 879.364Z" fill="#5ECEB8"/>
</svg>
