<svg width="4734" height="2921" viewBox="0 0 4734 2921" fill="none" xmlns="http://www.w3.org/2000/svg">
<path d="M2369.02 2234.9C2318 2401.65 2047.85 2357.61 2047.58 2179.86C2046.87 1758.66 2046.78 1381.94 2047.32 1049.7C2047.85 558.058 1730.71 137.571 1246.81 27.4824C584.065 -123.152 1.07373 410.646 1.34229 1057.49C1.34229 1663.07 0.89502 2281.71 0 2913.43C0 2916.2 1.10303 2918.87 3.06689 2920.83C5.03076 2922.8 7.69531 2923.9 10.4727 2923.9H567.147C577.71 2923.9 582.991 2918.62 582.991 2908.06C582.812 2273.84 583.08 1656.53 583.796 1056.14C583.796 920.994 620.854 813.948 694.97 735.006C924.031 491.199 1323.61 565.845 1437.74 886.446C1454.21 932.808 1462.62 995.908 1462.98 1075.75C1463.88 1387.4 1462.8 1699.31 1459.76 2011.5C1458.15 2184.42 1469.52 2309.73 1493.86 2387.42C1629.47 2816.49 2090.01 3045 2511.88 2862.95C2673.36 2793.31 2792.32 2686.98 2868.77 2543.96C2906.54 2473.61 2954.88 2336.94 3013.78 2133.94C3144.64 1683.2 3279.81 1225.39 3419.26 760.515C3488.55 530.402 3764.33 530.401 3832.54 761.32C4045.04 1478.06 4258.44 2195.43 4472.73 2913.43C4475.06 2921.12 4480.25 2924.97 4488.31 2924.97L5072.64 2925.24C5074.26 2925.22 5075.85 2924.83 5077.29 2924.1C5078.73 2923.36 5079.98 2922.3 5080.95 2921C5081.91 2919.7 5082.56 2918.19 5082.84 2916.6C5083.12 2915.01 5083.03 2913.37 5082.57 2911.82C4860.05 2167.86 4634.21 1407.44 4405.06 630.556C4368.9 507.757 4328.26 414.316 4283.14 350.231C4044.68 10.8349 3602.67 -101.939 3241.76 101.054C2992.02 241.753 2898.84 445.553 2815.6 732.59C2662.17 1261.38 2513.31 1762.15 2369.02 2234.9Z" fill="white"/>
</svg>
