<svg width="16" height="14" viewBox="0 0 16 14" fill="none" xmlns="http://www.w3.org/2000/svg">
<path d="M10.6642 6.93584C10.6642 6.93731 10.6642 6.94026 10.6642 6.94173C10.4185 6.95204 10.1727 6.96382 9.92697 6.97266C9.47668 6.98886 9.0264 7.00506 8.57611 7.01979C8.5349 7.02126 8.51577 7.03599 8.49959 7.07134C8.45102 7.17886 8.40099 7.28638 8.34949 7.39243C8.23765 7.63104 8.12582 7.86818 8.00956 8.11857C8.57905 8.13919 9.1397 8.15833 9.69889 8.17896C9.6621 8.19516 9.62531 8.19958 9.58999 8.20105C9.06318 8.21872 8.53637 8.23787 8.00956 8.25407C7.961 8.25555 7.93599 8.27175 7.91539 8.31593C7.78589 8.59726 7.65492 8.87858 7.52249 9.1599C7.48864 9.23207 7.4548 9.30572 7.41654 9.38525C8.01987 9.40587 8.61289 9.42797 9.22358 9.44859C9.19709 9.45448 9.19121 9.45742 9.18385 9.45742C8.6335 9.47804 8.08167 9.50014 7.53132 9.51928C7.3459 9.52518 7.34443 9.52223 7.28115 9.70487C7.17815 10.0068 7.07661 10.3102 6.97508 10.6136C6.96772 10.6372 6.96625 10.6637 6.96183 10.6932C7.45774 10.7109 7.94482 10.7285 8.43042 10.7462C8.43042 10.7491 8.43042 10.7536 8.43042 10.7565C7.93305 10.7742 7.43419 10.7919 6.93534 10.8095C6.88531 11.2146 6.93093 11.5946 7.09427 11.9613C7.1134 12.0055 7.13989 12.0158 7.18403 12.0173C7.42684 12.0247 7.66964 12.035 7.91244 12.0453C7.91244 12.0497 7.91244 12.0527 7.91244 12.0571C7.66523 12.0659 7.41654 12.0747 7.15902 12.0836C7.17373 12.113 7.18109 12.1366 7.19581 12.1543C7.31353 12.306 7.41801 12.4695 7.55339 12.6035C7.91244 12.957 8.35096 13.1647 8.85717 13.1691C10.1757 13.1809 11.4942 13.1721 12.8112 13.1735C12.8642 13.1735 12.8877 13.1558 12.9083 13.1087C13.4189 11.9628 13.9325 10.8169 14.4446 9.67099C14.4549 9.64743 14.4622 9.62386 14.477 9.58851C13.4351 9.58851 12.4065 9.58851 11.3661 9.58851C12.9142 6.39087 14.4549 3.20206 16 0.00589156C15.9662 0.00441867 15.9426 0.00147289 15.9191 0.00147289C14.5711 0.00147289 13.2232 0.00147289 11.8753 0C11.8253 0 11.7958 0.0117831 11.7752 0.0618614C11.7296 0.170855 11.6766 0.276903 11.6266 0.382951C11.6178 0.402099 11.6119 0.421246 11.6031 0.449231C12.327 0.47427 13.0407 0.500782 13.7721 0.525822C13.7486 0.533186 13.7427 0.534659 13.7382 0.534659C13.0216 0.561171 12.3064 0.587683 11.5898 0.611249C11.5368 0.612722 11.5089 0.628924 11.4853 0.679002C11.3338 1.0104 11.1778 1.34033 11.0247 1.67026C11.0144 1.69088 11.0071 1.71297 10.9953 1.74243C11.7605 1.77041 12.5139 1.79693 13.2688 1.82344C13.2615 1.83375 13.2556 1.83669 13.2482 1.83669C12.4977 1.86321 11.7473 1.88972 10.9968 1.91181C10.932 1.91328 10.8982 1.93243 10.8702 1.99429C10.7113 2.34189 10.5494 2.68655 10.3876 3.03268C10.3773 3.05625 10.3684 3.07981 10.3552 3.10927C11.0527 3.13431 11.7384 3.15935 12.4256 3.18439C12.4256 3.19322 12.4256 3.20353 12.4256 3.21237C12.2446 3.21237 12.0636 3.20795 11.8826 3.21384C11.3676 3.22857 10.854 3.24919 10.3405 3.2654C10.289 3.26687 10.2684 3.28749 10.2478 3.3302C10.1153 3.61594 9.98142 3.90168 9.84898 4.18742C9.83868 4.21099 9.82838 4.23456 9.81661 4.26549C10.4965 4.29053 11.166 4.31409 11.8356 4.33913C11.8356 4.34944 11.8356 4.35828 11.8356 4.36859C11.6737 4.36859 11.5103 4.36417 11.3485 4.37006C10.8334 4.38627 10.3199 4.40541 9.80631 4.42161C9.75186 4.42309 9.72979 4.44371 9.70919 4.48937C9.59735 4.73387 9.48257 4.97542 9.36926 5.21845C9.31629 5.33186 9.26478 5.44527 9.20739 5.569C9.83427 5.59109 10.4494 5.61318 11.0645 5.63528C11.0277 5.65148 10.9924 5.6559 10.9556 5.65737C10.367 5.67799 9.77982 5.70008 9.19121 5.71923C9.15148 5.7207 9.1294 5.73101 9.11322 5.76784C8.95135 6.11838 8.78654 6.46893 8.62319 6.81801C8.61731 6.82979 8.61584 6.84304 8.60995 6.86367C9.29716 6.88723 9.97995 6.9108 10.6642 6.93584ZM9.08526 1.98693C9.04553 1.98693 9.01609 1.98546 8.98666 1.98693C8.58052 2.00166 8.17438 2.01639 7.7697 2.02964C7.27085 2.04732 6.77053 2.06205 6.27168 2.07972C5.51384 2.10623 4.756 2.13569 3.99963 2.1622C3.45369 2.18135 2.90775 2.2005 2.36181 2.22112C2.28235 2.22406 2.18376 2.20639 2.12637 2.24616C2.06898 2.28592 2.05279 2.38608 2.02042 2.45973C1.96891 2.57314 1.91888 2.68802 1.86591 2.80585C1.88504 2.8088 1.89387 2.81175 1.90417 2.81175C2.54576 2.83384 3.18882 2.85741 3.83041 2.8795C4.52203 2.90454 5.21218 2.92958 5.9038 2.95314C6.87354 2.98702 7.84181 3.0209 8.81155 3.0533C8.83362 3.0533 8.87041 3.02973 8.87924 3.00764C8.92045 2.90454 8.95429 2.79996 8.98814 2.69391C9.06024 2.46856 9.08673 2.23585 9.08526 1.98693ZM2.47512 1.44196C4.67359 1.52002 6.85735 1.59661 9.03964 1.6732C9.04111 1.66142 9.04405 1.657 9.04258 1.65258C8.97783 1.31382 8.83215 1.01335 8.61289 0.748228C8.59818 0.730553 8.56286 0.720243 8.53637 0.721716C8.34507 0.726135 8.1523 0.734972 7.961 0.742336C7.46215 0.760011 6.96183 0.77474 6.46298 0.792415C5.70808 0.818927 4.95319 0.848384 4.19682 0.874896C3.7171 0.892571 3.23738 0.9073 2.75766 0.924975C2.73558 0.926448 2.70027 0.938231 2.69291 0.955905C2.6208 1.11203 2.55164 1.26963 2.47512 1.44196ZM0 13.1706C0.0309022 13.1721 0.0515037 13.175 0.0735767 13.175C1.42592 13.175 2.77826 13.175 4.12913 13.1765C4.17769 13.1765 4.2027 13.1617 4.22331 13.1176C4.35869 12.823 4.49701 12.5284 4.63534 12.2338C4.64269 12.2176 4.64711 12.1985 4.65446 12.1779C4.63975 12.1764 4.62945 12.1734 4.62062 12.1734C4.1512 12.1911 3.68178 12.2103 3.21236 12.2265C2.30001 12.2589 1.38766 12.2898 0.475306 12.3192C0.425274 12.3207 0.401729 12.3369 0.382599 12.3811C0.336982 12.4842 0.284006 12.5844 0.235446 12.6875C0.155983 12.8451 0.0794629 13.0041 0 13.1706ZM0.67102 11.7846C0.712223 11.789 0.743125 11.7934 0.774027 11.7934C1.29789 11.8126 1.82176 11.8302 2.34563 11.8479C3.1329 11.8744 3.92017 11.9009 4.70744 11.9304C4.756 11.9319 4.78249 11.9201 4.80309 11.8744C4.91787 11.624 5.03559 11.3751 5.15332 11.1247C5.19158 11.0437 5.22836 10.9612 5.26368 10.8847C5.10475 10.8847 4.95024 10.8802 4.79573 10.8861C4.04083 10.9126 3.28594 10.9406 2.52957 10.9686C2.04985 10.9863 1.57013 11.001 1.09041 11.0202C1.06539 11.0216 1.03155 11.0437 1.01977 11.0658C0.972685 11.1498 0.932953 11.2367 0.89175 11.3236C0.819645 11.4738 0.74754 11.624 0.67102 11.7846ZM5.87437 9.58115C5.83758 9.58115 5.81256 9.57967 5.78902 9.58115C5.15037 9.60471 4.51025 9.62828 3.87161 9.65037C3.15791 9.67541 2.44569 9.70045 1.732 9.72402C1.68638 9.72549 1.65842 9.7358 1.63635 9.78293C1.53481 10.0009 1.42739 10.2174 1.32291 10.4354C1.31555 10.4516 1.30967 10.4708 1.30084 10.4943C1.50244 10.5017 1.69668 10.5091 1.88945 10.5164C2.54134 10.54 3.19323 10.5621 3.84512 10.5842C4.33661 10.6019 4.82811 10.6195 5.32107 10.6387C5.36227 10.6402 5.38876 10.6298 5.40642 10.5886C5.44321 10.5032 5.48441 10.4192 5.52414 10.3338C5.63745 10.0878 5.75223 9.84185 5.87437 9.58115ZM7.65345 5.7752C7.61078 5.7752 7.58135 5.77373 7.55192 5.7752C7.23407 5.78551 6.91769 5.79582 6.59983 5.8076C5.95972 5.83117 5.32107 5.85474 4.68095 5.8783C4.31896 5.89156 3.95843 5.90334 3.59643 5.91218C3.53316 5.91365 3.49048 5.92691 3.46694 5.99319C3.44633 6.05063 3.41396 6.10365 3.38747 6.15962C3.30801 6.32606 3.22855 6.49102 3.14467 6.66483C3.17116 6.66924 3.18882 6.67514 3.20795 6.67514C3.59937 6.68839 3.9908 6.70165 4.38076 6.7149C4.78396 6.72816 5.18716 6.74289 5.59036 6.75762C6.09657 6.77529 6.60425 6.79149 7.11046 6.81064C7.15902 6.81211 7.17815 6.79149 7.19728 6.75173C7.3047 6.51901 7.41359 6.28777 7.52249 6.05652C7.56369 5.96668 7.60489 5.8783 7.65345 5.7752ZM8.25678 4.47758C8.21999 4.47758 8.19351 4.47611 8.16702 4.47758C7.41359 4.50557 6.66164 4.53355 5.90821 4.56007C5.33431 4.58069 4.76189 4.60131 4.18799 4.61898C4.14237 4.62045 4.11883 4.63813 4.10117 4.67937C4.02465 4.84433 3.94371 5.00782 3.86425 5.17132C3.83335 5.23612 3.80245 5.3024 3.7686 5.37605C4.38076 5.39814 4.98115 5.42023 5.58153 5.44085C6.29081 5.46589 6.99862 5.48946 7.7079 5.51744C7.75793 5.51892 7.78148 5.50713 7.80208 5.46147C7.93304 5.17573 8.06843 4.88999 8.20086 4.60425C8.21852 4.56596 8.23618 4.52472 8.25678 4.47758ZM6.46887 8.31004C6.43797 8.31004 6.42031 8.31004 6.40412 8.31004C5.87584 8.32919 5.34609 8.34834 4.81781 8.36749C3.98933 8.39694 3.15939 8.4264 2.33091 8.45733C2.30442 8.4588 2.26911 8.48384 2.25586 8.50888C2.16463 8.68858 2.07781 8.87121 1.99099 9.05385C1.97039 9.09804 1.94978 9.14075 1.92771 9.18936C1.95714 9.1923 1.97627 9.19378 1.99687 9.19525C2.59726 9.21734 3.19765 9.23944 3.79803 9.26006C4.50878 9.2851 5.21953 9.30866 5.93176 9.33665C5.98179 9.33812 6.00092 9.32192 6.01858 9.28068C6.07302 9.15695 6.13189 9.0347 6.18928 8.91245C6.27904 8.71509 6.37027 8.51919 6.46887 8.31004ZM7.04424 7.07723C7.00009 7.07723 6.97213 7.07576 6.9427 7.07723C6.62485 7.08754 6.30847 7.09785 5.99062 7.10964C5.32843 7.1332 4.66624 7.15677 4.00552 7.18034C3.66559 7.19212 3.32714 7.20538 2.98722 7.21274C2.90628 7.21421 2.85919 7.23925 2.82682 7.31732C2.76207 7.46902 2.68555 7.61484 2.61492 7.7636C2.59137 7.81368 2.56636 7.86376 2.53987 7.9212C2.57666 7.92562 2.60315 7.93004 2.62963 7.93004C3.16527 7.94919 3.70238 7.96686 4.23949 7.98601C4.65005 8.00074 5.06061 8.01547 5.47264 8.03019C5.81992 8.04198 6.1672 8.05376 6.51301 8.06702C6.56746 8.06996 6.59689 8.05229 6.61749 8.00074C6.64545 7.92709 6.68224 7.85787 6.71609 7.78569C6.82056 7.55592 6.92946 7.32468 7.04424 7.07723ZM4.63092 3.58354C4.54999 3.75292 4.47641 3.90905 4.39695 4.07549C4.57942 4.08285 4.74717 4.08874 4.91346 4.09463C5.61685 4.11967 6.32024 4.14324 7.02511 4.16828C7.46068 4.18448 7.89626 4.19921 8.33183 4.21688C8.37598 4.21836 8.39216 4.19921 8.40835 4.16386C8.47457 4.02099 8.54373 3.87959 8.60701 3.73525C8.66587 3.60269 8.71737 3.46865 8.77771 3.32137C6.37322 3.40679 3.98492 3.49075 1.59809 3.5747C1.59809 3.57765 1.59809 3.57912 1.59809 3.58207C2.60462 3.58354 3.61262 3.58354 4.63092 3.58354ZM3.06374 0.148762C4.75306 0.20915 6.43797 0.268066 8.13464 0.328454C8.11699 0.313725 8.1111 0.307834 8.10374 0.301942C7.79472 0.114885 7.46215 0.00294578 7.09868 0.00147289C5.81109 0 4.52203 0.00147289 3.23443 0.00147289C3.102 0.00147289 3.102 0.0014729 3.06374 0.148762Z" fill="#EBCFC5"/>
</svg>
