<?xml version="1.0" encoding="utf-8"?>
<!-- Generator: Adobe Illustrator 24.1.0, SVG Export Plug-In . SVG Version: 6.00 Build 0)  -->
<svg version="1.1" id="Capa_1" xmlns="http://www.w3.org/2000/svg" xmlns:xlink="http://www.w3.org/1999/xlink" x="0px" y="0px"
	 viewBox="0 0 1950.2 802.98" style="enable-background:new 0 0 1950.2 802.98;" xml:space="preserve">
<style type="text/css">
	.st0{fill:#FFFFFF;}
</style>
<path class="st0" d="M808.45,801.85c0-136.2,0-271.28,0-407.61c5.7-0.38,11.03-1.04,16.36-1.04c173.66-0.03,347.31,0,520.97,0.02
	c53.31,0,106.62,0.19,159.93-0.19c15.25-0.11,30.94,0.01,45.63-3.42c25.5-5.96,50.67-13.98,70.45-32.81
	c10.69-10.18,17.21-22.29,21.06-36.83c4.8-18.14,1.42-34.9-4.55-51.49c-7.01-19.46-21.57-31.86-39.76-41.27
	c-30.84-15.95-63.92-16.56-97.3-16.56c-209.33,0.02-418.66,0-627.99,0.01c-79.18,0-158.37,0.03-237.55,0.09
	c-4.2,0-8.39,0.51-13.9,0.86c0,197.07,0,393.23,0,590.27c-82.73,0-164.06,0-245.35,0c-0.29-0.27-0.59-0.52-0.86-0.79
	c-0.27-0.28-0.64-0.55-0.75-0.89c-0.23-0.74-0.36-1.53-0.45-2.3c-0.09-0.78-0.1-1.56-0.11-2.35c-0.03-1.57-0.05-3.14-0.05-4.7
	c-0.03-191.3-0.07-382.59-0.11-573.89c0-0.78-0.17-1.55-0.3-2.33c-0.06-0.37-0.22-0.73-0.8-2.62c-3.44-0.39-7.51-1.24-11.59-1.25
	c-80.75-0.06-161.5-0.02-242.26-0.01c-37.24,0-74.48-0.03-111.71-0.08c-2.28,0-4.55-0.31-6.99-0.49c-2.3-8.41,4.42-12.79,7.93-17.52
	c17.92-24.19,36.68-47.76,55.23-71.49c16.59-21.22,33.44-42.24,49.9-63.55c12.29-15.91,24.28-32.06,36.11-48.32
	c4.76-6.54,10.3-9.3,18.68-9.29c440.61,0.18,881.22,0.05,1321.83,0.37c27.36,0.02,54.72,3.43,82.08,5.28
	c1.56,0.11,3.11,0.38,4.68,0.49c30.4,2.13,60.36,7.04,89.89,14.55c45.08,11.47,87.68,29.06,126.05,55.34
	c32.45,22.22,59.32,50.69,79.14,84.68c14.35,24.6,22.12,51.74,25.68,80.48c2.57,20.72,4.87,41.34,3.07,61.94
	c-2.94,33.79-9.11,66.7-23.9,98.14c-18.83,40.05-46.25,72.18-81.36,97.98c-18.47,13.58-39.19,23.75-60.99,31.13
	c-10.64,3.6-21.77,5.76-32.61,8.82c-2.39,0.67-4.48,2.41-7.92,4.34c92.04,79.45,170.57,170.28,256.23,258.52
	c-6.66,0.3-10.63,0.64-14.61,0.64c-88.98,0.02-177.97-0.01-266.95-0.02c-12.93,0-25.91-0.56-38.79,0.22
	c-9.2,0.56-15.39-2.71-21.07-9.64c-18.34-22.37-37.06-44.43-55.73-66.54c-29.15-34.51-58.38-68.95-87.55-103.43
	c-7.45-8.81-15.12-17.46-22.12-26.62c-3.63-4.76-7.94-5.51-13.29-5.5c-79.58,0.1-159.15,0.1-238.73,0.1
	c-39.2,0-78.4-0.04-117.6-0.06c-4.24,0-8.47,0-14.01,0c-0.47,5.88-1.2,10.77-1.21,15.66c-0.09,59.58-0.07,119.17-0.08,178.75
	c0,4.69,0,9.38,0,15.51c-3.97,0.56-7.63,1.53-11.3,1.54c-76.43,0.09-152.87,0.09-229.3,0.05
	C815.16,802.73,812.47,802.24,808.45,801.85z"/>
</svg>
